<svg xmlns="http://www.w3.org/2000/svg" viewBox="0 0 234.19 131.16"><defs><style>.cls-1{fill:#f8ac91;}.cls-15,.cls-2{fill:#ff4f5b;}.cls-14,.cls-2{opacity:0.5;}.cls-3{fill:#93b7fd;}.cls-10,.cls-3,.cls-8{opacity:0.2;}.cls-11,.cls-4{opacity:0.7;}.cls-5{fill:#f5f5f5;}.cls-6,.cls-8,.cls-9{fill:#007cff;}.cls-6,.cls-7{opacity:0.3;}.cls-10,.cls-11,.cls-7{fill:#fff;}.cls-12{fill:#7692fd;}.cls-12,.cls-13{opacity:0.4;}.cls-13{fill:#417bfd;}</style></defs><title>bottle3</title><g id="Layer_2" data-name="Layer 2"><g id="Layer_1-2" data-name="Layer 1"><path class="cls-1" d="M89.55,51.91c-1.25-1-1.86-2.53-3-3.68-.58-.6-1.08-1.46-1.7-2a8.8,8.8,0,0,0-1.53-.83c.8.13,1.53.56,2.38.62s1.47-.07,2.2-.08a33.7,33.7,0,0,1,4.16.45c5,.58,7.79,5.21,7.5,10-.75,0-1.91-1.21-2.86-1.37a13.93,13.93,0,0,1-3-.93A22.76,22.76,0,0,1,89.55,51.91Z"/><path class="cls-2" d="M99.35,56c-3.78-2.78-9.32-5.27-11.78-8.71"/><path class="cls-3" d="M40.54,42.85C46.19,25.73,60.26,9.08,78.28,9.33c16,.22,29.31,13.53,45.25,15.16,16.94,1.72,32.85-10,49.85-9.33,15.25.63,28.79,11.73,35.19,25.58s6.5,29.92,3.39,44.86c-1.44,6.87-3.63,13.82-8.17,19.18-4.1,4.84-9.81,8-15.54,10.75C154.08,131.81,114.14,135.3,77.52,126c-18.79-4.79-29-8.62-35.86-27.43A85.72,85.72,0,0,1,40.54,42.85Z"/><g class="cls-4"><ellipse id="_Path_" data-name="&lt;Path&gt;" class="cls-5" cx="110.51" cy="116.09" rx="62.46" ry="3.65"/><path class="cls-6" d="M128.74,111.77l-8.67.71h0l-20,1.64a6.06,6.06,0,0,1-4.61-1.57,6.13,6.13,0,0,1-2-4L92.7,99l-2-24.24A6.08,6.08,0,0,1,93,69.47a6.13,6.13,0,0,1-3.12-4.83L87.71,38.11a9.79,9.79,0,0,1,2.6-7.5L97,23.42a3.91,3.91,0,0,0,1-3L98,19.55l-.13-1.65-.11-1.34.67-.06.32,0,2.82-.23.32,0,2.82-.23.32,0,2.82-.23.32,0,2.82-.23.32,0,2.81-.23.33,0,.67-.06.11,1.34.14,1.66.07.88a3.92,3.92,0,0,0,1.5,2.77l7.8,6a9.8,9.8,0,0,1,3.79,7l.91,11,.54,6.58h0l.73,8.9a6,6,0,0,1-2.29,5.27,6,6,0,0,1,2.77,3.23,5.93,5.93,0,0,1,.35,1.59l2.26,27.54.52,6.28A6.09,6.09,0,0,1,128.74,111.77Z"/><rect class="cls-6" x="97.82" y="15.84" width="17.42" height="3.01" transform="translate(-1.06 8.78) rotate(-4.7)"/><path class="cls-7" d="M90.47,31.3l6.71-7.2s4.32.19.95,5.5C95.28,34.08,90.29,33.39,90.47,31.3Z"/><path class="cls-8" d="M134.3,105.21a6.1,6.1,0,0,1-5.57,6.56l-28.68,2.35a6.07,6.07,0,0,1-6.56-5.56Z"/><path class="cls-6" d="M91.72,31.93a7.92,7.92,0,0,0-2.09,6l2.18,26.53a4.15,4.15,0,0,0,2.13,3.29l2.53,1.41L94.2,71a4.12,4.12,0,0,0-1.56,3.59l2.78,33.82a4.15,4.15,0,0,0,4.47,3.8l28.68-2.36a4.15,4.15,0,0,0,3.8-4.48l-2.78-33.81a4.15,4.15,0,0,0-2.13-3.3l-2.53-1.4,2.27-1.8a4.14,4.14,0,0,0,1.56-3.6l-2.18-26.53a7.87,7.87,0,0,0-3-5.6c-2.57-1.67-9.34,2.48-17.26,3.13S93.38,31.09,91.72,31.93Z"/><path class="cls-8" d="M106.27,32.45c7.92-.65,14.69-4.8,17.26-3.13-4.49,2.48-9.65,4-17.14,4.63a39.15,39.15,0,0,1-14.67-2C93.38,31.09,98.35,33.1,106.27,32.45Z"/><path class="cls-8" d="M128.4,66.56l-3.46.28-2.26.19L105,68.48l-8.26.68-.3,0-2.16.18L93,69.47a6.13,6.13,0,0,1-3.12-4.83l.54,0,1.39-.12,1.07-.09L112,62.82l11.63-1,5.15-.42,1.92-.16A6,6,0,0,1,128.4,66.56Z"/><path class="cls-9" d="M95.25,15.87l.32,0-.21-2.56A2.11,2.11,0,0,1,97.3,11l2.77-.23,0-.32-2.78.23A2.43,2.43,0,0,0,95,13.32Z"/><path class="cls-9" d="M96.12,19.08l.23-.23a2.08,2.08,0,0,1-.65-1.35l-.32,0A2.42,2.42,0,0,0,96.12,19.08Z"/><rect class="cls-9" x="96.3" y="11.08" width="20.01" height="6.86" rx="3.43" transform="translate(213.44 20.27) rotate(175.3)"/><path class="cls-10" d="M114.36,16.57h0a.15.15,0,0,0,.15-.17l-.42-5.09a.16.16,0,0,0-.32,0l.42,5.1A.16.16,0,0,0,114.36,16.57Z"/><path class="cls-10" d="M111.22,16.83h0a.16.16,0,0,0,.15-.17l-.42-5.1a.15.15,0,0,0-.17-.14.16.16,0,0,0-.15.17l.42,5.09A.16.16,0,0,0,111.22,16.83Z"/><path class="cls-10" d="M108.08,17.09h0a.16.16,0,0,0,.14-.17l-.42-5.1a.16.16,0,0,0-.17-.15.17.17,0,0,0-.15.18l.42,5.09A.16.16,0,0,0,108.08,17.09Z"/><path class="cls-10" d="M104.94,17.35h0a.17.17,0,0,0,.14-.18l-.42-5.09a.16.16,0,0,0-.17-.15.17.17,0,0,0-.15.18l.42,5.09A.17.17,0,0,0,104.94,17.35Z"/><path class="cls-10" d="M101.8,17.61h0a.16.16,0,0,0,.14-.18l-.41-5.09a.17.17,0,0,0-.18-.15.16.16,0,0,0-.15.17l.42,5.1A.17.17,0,0,0,101.8,17.61Z"/><path class="cls-10" d="M98.66,17.86h0a.15.15,0,0,0,.14-.17l-.41-5.09a.17.17,0,0,0-.18-.15.15.15,0,0,0-.14.17l.41,5.1A.16.16,0,0,0,98.66,17.86Z"/><path class="cls-8" d="M128.74,111.77l-7.41.6a5.35,5.35,0,0,1-5.78-5.63,4.66,4.66,0,0,1,.08-.64l1.09-6,0-.1,0-.14.58-3.19,0-.25,4.75-26.28.55-3.08.94-5.16,1.7-9.44a2.36,2.36,0,0,1,4.64,0h0l0,.26.7,8.64a6,6,0,0,1-2.29,5.27,6,6,0,0,1,2.77,3.23,5.93,5.93,0,0,1,.35,1.59l2.26,27.54.52,6.28A6.09,6.09,0,0,1,128.74,111.77Z"/><circle class="cls-6" cx="99.96" cy="96.46" r="3.15"/><path class="cls-6" d="M106.84,84.52a2.23,2.23,0,1,0,2-2.4A2.23,2.23,0,0,0,106.84,84.52Z"/><path class="cls-6" d="M116.16,57.38A2.23,2.23,0,1,0,114,55,2.23,2.23,0,0,0,116.16,57.38Z"/><path class="cls-6" d="M110.08,44a1.58,1.58,0,1,0-1.5-1.65A1.57,1.57,0,0,0,110.08,44Z"/><path class="cls-6" d="M100.3,74.89a.92.92,0,1,0,.84-1A.93.93,0,0,0,100.3,74.89Z"/><path class="cls-11" d="M115.13,98.38a1.82,1.82,0,0,1,.44-1.36,1.85,1.85,0,0,1,1.27-.66,1.88,1.88,0,0,1,2,1.71h0a1.87,1.87,0,0,1-.44,1.36,1.84,1.84,0,0,1-1.27.65H117A1.87,1.87,0,0,1,115.13,98.38Zm1.73-1.78a1.63,1.63,0,0,0-1.11.57,1.62,1.62,0,0,0,1.37,2.67,1.57,1.57,0,0,0,1.11-.57A1.62,1.62,0,0,0,117,96.6Z"/><path class="cls-11" d="M96.19,62.07a1.33,1.33,0,0,1-.48-.92,1.38,1.38,0,0,1,.32-1,1.35,1.35,0,0,1,2.38.77h0a1.35,1.35,0,0,1-1.23,1.46h-.12A1.32,1.32,0,0,1,96.19,62.07Zm2-1.12a1.11,1.11,0,1,0-2.22.18,1.17,1.17,0,0,0,.39.76,1.16,1.16,0,0,0,.82.26,1.11,1.11,0,0,0,1-1.2Z"/><path class="cls-11" d="M117.25,33.25a.63.63,0,1,1,1.26-.1h0a.63.63,0,0,1-.58.68h-.05A.62.62,0,0,1,117.25,33.25Zm1-.08a.39.39,0,0,0-.43-.36.39.39,0,0,0-.35.42.39.39,0,0,0,.42.36.41.41,0,0,0,.36-.42Z"/><path class="cls-11" d="M102.59,50.13a1.61,1.61,0,0,1-.19-2.28,1.58,1.58,0,0,1,1.1-.56,1.63,1.63,0,0,1,1.18.37,1.65,1.65,0,0,1,.57,1.11h0a1.62,1.62,0,0,1-1.48,1.74h-.14A1.6,1.6,0,0,1,102.59,50.13Zm.93-2.6A1.39,1.39,0,0,0,102.26,49a1.38,1.38,0,0,0,2.75-.22h0a1.4,1.4,0,0,0-1.37-1.27Zm1.6,1.25h0Z"/><path class="cls-7" d="M90.42,64.6,88.34,39.3A1.23,1.23,0,0,1,89.47,38h0A1.24,1.24,0,0,1,90.8,39.1l2.08,25.3a5.12,5.12,0,0,0,2.62,4.06l1.27.7-1.14.9a5.13,5.13,0,0,0-1.92,4.43l2.78,33.82c.16,2,1.44,3,3.23,3.81a.56.56,0,0,1-.18,1.08h0A5.13,5.13,0,0,1,94,108.51L91.24,74.7a5.12,5.12,0,0,1,1.93-4.44l1.14-.9L93,68.66A5.11,5.11,0,0,1,90.42,64.6Z"/><path class="cls-6" d="M57,103.91c.35-1.57,4.69-.65,5.59-.5a26.09,26.09,0,0,1,5.1,1.48c1.81.71,3.92,1.76,5.8.68,1.09-.63-2.68-1.87-3-2a28,28,0,0,1-4.62-2.12c-.6-.35-1.75-1.2-1.25-2.06s1.89-.64,2.79-.54a32.89,32.89,0,0,1,7.94,2,74.1,74.1,0,0,1,7.3,3.34,9.62,9.62,0,0,0,3,1.06c1.14.16,2.53-.08,3-.71s-.12-1.36-.26-2a3.35,3.35,0,0,1,.23-2.24,2.4,2.4,0,0,1,1-1.11,5.59,5.59,0,0,1,4.32.11A7.17,7.17,0,0,1,96,100.75a8.71,8.71,0,0,1,2.53,4.37,4.08,4.08,0,0,0,1.71,2.59c1.73,1.17,4.89,1.1,7.31.52,4.22-1,7.43-3.37,8.22-6,.38-1.26.56-2.56,2.26-3.07,1.09-.33,3.38-.1,2.9,1.28a4.75,4.75,0,0,1-.69,1c-.45.59-.93,1.7.4,2.06a4.08,4.08,0,0,0,1.31.06,20.07,20.07,0,0,0,10.77-3.72,8.83,8.83,0,0,0,2.08-2.37c.3-.49.41-1,.74-1.53a3.06,3.06,0,0,1,1.3-1.07c1.64-.7,5.5-.34,5.77,1.21a5.42,5.42,0,0,1-.65,2.54.51.51,0,0,0,0,.32c.08.2.39.26.64.28,3.45.23,6.8-1.11,9.69-2.51,3.07-1.49,6.45-3.41,10.71-3.44a8.48,8.48,0,0,1,2.61.3,1.45,1.45,0,0,1,.59.31.77.77,0,0,1,.14.83,1.92,1.92,0,0,1-.6.71,14.7,14.7,0,0,1-4.74,2,81.27,81.27,0,0,0-14.1,6.1c-.46.26-1.26.85-.63,1.28s1.93.15,2.7,0c1.39-.23,2.72-.59,4.07-.93a13.59,13.59,0,0,1,5.8-.48,4.22,4.22,0,0,1,2.42,1.18,1.11,1.11,0,0,1,.2,1.3c-.66,1.18-3.68,1.69-5.34,2.27a54.1,54.1,0,0,0-6.19,2.55c-1.72.85-3.31,1.78-5.05,2.61-6.22,3-14.9,3.37-22.66,3.66-8.42.32-16.88,0-25.28-.42-6.11-.34-12.13-1-18.13-1.81-1.72-.22-3.44-.5-5.16-.74a30.68,30.68,0,0,1-5.15-1,4.26,4.26,0,0,1-1.66-.83c-.46-.42-.61-1,.22-1.15a14,14,0,0,1,5.19.36q2.84.51,5.63,1.2a22.06,22.06,0,0,0,2.57.52,6.2,6.2,0,0,0,2.61-.17c.28-.08.58-.24.6-.48s-.22-.4-.46-.49A68.43,68.43,0,0,0,72.32,109c-2.53-.55-5.1-.89-7.64-1.31-2.31-.39-4.75-.49-6.74-2a2.31,2.31,0,0,1-.89-1.07A1.25,1.25,0,0,1,57,103.91Z"/><path class="cls-6" d="M156.66,90.87c1-2.68,4.31-7.43,5-4.63C162.07,87.82,156.66,90.87,156.66,90.87Z"/><path class="cls-6" d="M72.2,96.16c-1.79-1.64-4-2.62-4.33-1.18S72.2,96.16,72.2,96.16Z"/><path class="cls-6" d="M146,83.11c1.23-.65,2.2-1.67,1.47-2.11S146,83.11,146,83.11Z"/></g><path class="cls-12" d="M115.92,89.86C122,87.68,131,85.6,125,78.9a30.1,30.1,0,0,1-7.84-21.05,25.11,25.11,0,0,1,10.6-19.53c-1.31,5.4.25,11.07,2.28,16.24s4.57,10.23,5.36,15.72-.6,11.74-5.07,15l12.5-5.39a4.34,4.34,0,0,0,2.6-2.07,4.16,4.16,0,0,0-.13-2.58c-1.6-5.88-4-11.53-5.5-17.44s-2.07-12.29,0-18,7.26-10.63,13.35-10.94c-4.06,5.86-.61,13.69.94,20.64a36.49,36.49,0,0,1-4.42,26.69,137.49,137.49,0,0,0,16.11-13c1.28-1.2,2.64-2.7,2.44-4.44-.17-1.43-1.34-2.5-2.3-3.56a17.19,17.19,0,0,1-4-14.82c.82-3.9,3-7.51,3.17-11.49.1-2.44-.58-4.86-.52-7.31.2-8.31,8.58-14,16.54-16.41-5.78,7.11-4.81,17.33-3.88,26.44s1,19.63-5.77,25.79a28.06,28.06,0,0,0,12.67-18c1-4.93.74-10.26,3.14-14.68,2.11-3.9,6-6.51,8.5-10.18,1.62-2.4,2.6-5.2,4.25-7.59A16.44,16.44,0,0,1,214.73.06C210.17,1.88,207.85,7,207,11.83s-.74,9.89-2.48,14.48c-3.56,9.44-13.9,14.48-19.43,22.92C192.71,45,200.46,40.7,209,38.68s18-1.5,25.23,3.36c-4.77-.74-9.47,1.72-13.24,4.74s-7,6.7-11.24,9.1c-7.28,4.19-16.74,3.87-24.14-.11-1.65-.88-3.4-2-5.24-1.64a7.33,7.33,0,0,0-3.29,2L165.69,66c5.27-.21,10.13-3,15.38-3.6,5.66-.62,11.23,1.4,16.82,2.5s12.05,1,16.16-2.92c-4.14,6.22-9.25,12-15.82,15.55s-14.79,4.59-21.56,1.42c-4.66-2.18-8.81-6.32-14-6.12-6.23.24-10.39,6.66-16.27,8.72a27.13,27.13,0,0,1,18.1,2c3.62,1.77,6.88,4.37,10.76,5.43,2.28.62,4.71.69,6.92,1.52,5.11,1.92,8.45,7.64,13.86,8.4-5.31-1-10.58,1.91-16,2.19-4.77.25-9.37-1.58-13.78-3.39a137.76,137.76,0,0,1-15.24-7c-2.81-1.57-5.56-3.35-8.65-4.26s-6.68-.81-9.22,1.17c13,2.63,20.29,18.68,33.43,20.74a37.11,37.11,0,0,1-25.51-.47,14,14,0,0,1-6.06-4,17.62,17.62,0,0,1-2.64-5.69c-1.1-3.4-1.45-9.82-6.54-9.46-2.42.17-4.47,1.74-6.53,3s-4.59,2.35-6.85,1.46a1.21,1.21,0,0,1-.67-.52c-.31-.62.39-1.25,1-1.59A21.36,21.36,0,0,1,115.92,89.86Z"/><path class="cls-13" d="M71.88,106.15c1.76,0,3.56.14,5.35.15-2.27-5.54,5.11-7.81,8.49-11.9A35.31,35.31,0,0,0,92.51,80c1.73-7.33,1.69-14.94,1.65-22.47-1.89,6.75-7.79,11.53-11.3,17.6a53.77,53.77,0,0,0-4.45,11.43q-2.28,7.5-4.55,15c-3.74-2.63-4.23-8.17-2.67-12.48s4.64-7.84,7-11.74a39.92,39.92,0,0,0,3.56-33.49c-.58,6.12-6,10.44-9.32,15.61a36.06,36.06,0,0,0-4.6,12.13,65.26,65.26,0,0,0-1,20c-3.5-4.52-7.2-9.76-6.31-15.41a26.16,26.16,0,0,1,1.92-5.65,52.94,52.94,0,0,0,2.73-30.45c-1.78-8.52-5.7-16.76-5.27-25.45a46.25,46.25,0,0,0-7.26,41.11c2.18,7,6.12,13.91,5.11,21.18C49,68.21,51.69,53.35,46.42,42.19,40.88,30.44,27.58,24.66,19.06,14.86A37.15,37.15,0,0,0,35.49,52.29,28.1,28.1,0,0,1,41,56.09a20.46,20.46,0,0,1,2.82,4q4.28,7.23,8.54,14.46C44.68,70.71,40.43,62.4,33.9,56.85c-8-6.79-19-9.14-27-15.9A45.9,45.9,0,0,0,33.2,68.29c5.3,2.06,11,3.11,16.09,5.6s9.8,6.9,10.46,12.54c-6.83-8.23-17.48-12.34-28-14.34S10.46,69.85,0,67.64c6.45,8.29,14.1,17.25,24.56,18.23,5.45.51,10.84-1.31,16.31-1.77A33.32,33.32,0,0,1,61.8,89.44l2.27,4.48c-9-1.56-17.5-5.94-26.6-5.76-9.46.19-19.61,5.18-27.85.52,6.09,8.2,16.59,12.23,26.8,12.67s20.28-2.27,30-5.31q2.46,3.92,4.93,7.83a21.59,21.59,0,0,1-10.7,1.72c-3-.29-5.83-1.19-8.78-1.46-6.83-.64-13.49,2.06-20.3,2.83a36.36,36.36,0,0,1-15.9-1.73c4.92,3.66,9.92,7.36,15.6,9.67s12.23,3.14,18,.93c3.12-1.2,5.84-3.23,8.75-4.89a39.91,39.91,0,0,1,12.27-4.5l.92-.15A1.54,1.54,0,0,1,71.88,106.15Z"/><path class="cls-13" d="M170.39,91c-6.62-4-15.82-1.84-22.36,1.21-7.06,3.3-12.94,9.35-14.5,17.17-1.38,6.9,1.27,14.27,7.32,18.11a13.48,13.48,0,0,0,4.12,1.74.46.46,0,0,0,.27.52c3.65,1.62,7.49,1.62,11.38,1.06,4.06-.58,8.69-1.2,12.25-3.36,6-3.68,8.5-11.19,8.92-17.9S176.67,94.77,170.39,91Zm6.46,13.9c.48,5.91-.63,12.51-4.07,17.44a14.51,14.51,0,0,1-7.63,5.65A52.05,52.05,0,0,1,155,130a21.15,21.15,0,0,1-7-.3c5.34.27,11-1.85,15.62-4.11,6.77-3.32,13.06-9.71,12.37-17.83-.65-7.6-8-12.34-15.13-12.49-7.54-.16-15.92,3.64-20.28,9.9-3.65,5.23-3.91,13.13,1.11,17.65,5.75,5.16,14.6,1.86,20.42-1.43,3.12-1.77,6.13-4.21,7.6-7.56a10.61,10.61,0,0,0-.2-9.28c-1.81-3.22-5.41-4.14-8.87-4.3a21.91,21.91,0,0,0-11,2.06,11.76,11.76,0,0,0-6.27,7.4,10,10,0,0,0,1.22,8.23c4.34,6.12,14.4,2.59,18.94-1.45,2.45-2.18,4-6,2.28-9s-5.49-3.88-8.64-3.18A16.31,16.31,0,0,0,151.4,107a8.3,8.3,0,0,0-3.32,3.6c-1.12,3,1.28,6.18,4.16,7a9.55,9.55,0,0,0,9.29-2.64c1.38-1.56,1.89-3,.64-5.1a4.8,4.8,0,0,0-2.07-1.55,6.82,6.82,0,0,0-4.88.4c-1.36.58-3.61,1.43-4.15,3-1.09,3.09,5.43,3.55,7.15,3.14a5.35,5.35,0,0,0,3.66-3.13,3.15,3.15,0,0,1-.34,1.66,6.82,6.82,0,0,1-3.89,3.07c-3.18,1.11-7.58.66-8.74-3.06s3.7-6.46,6.54-7.63c3.11-1.28,7.37-1.25,9.42,1.87,2.23,3.38-.41,7.34-3.24,9.3a19.84,19.84,0,0,1-9,3.48c-3.15.29-6.34-.76-7.88-3.68a9.72,9.72,0,0,1-.25-7.87c2.45-6.43,10.43-8.1,16.55-7.72,3.51.22,7,1.44,8.25,5a10.22,10.22,0,0,1-1,8.63,18.66,18.66,0,0,1-7.49,6.4,30.37,30.37,0,0,1-9.16,3.29c-3.26.53-6.78.09-9.33-2.17a11.52,11.52,0,0,1-3.58-7.32c-.72-6.46,3.63-11.94,8.9-15.11,5.86-3.52,13.73-5.28,20.12-2.15a13.57,13.57,0,0,1,6.5,6.49,12.84,12.84,0,0,1,0,9.67c-2.54,6.79-9.18,10.62-15.68,12.93-3.41,1.21-7,2.27-10.68,2.09a13.73,13.73,0,0,1-8.7-3.69,16.83,16.83,0,0,1-4.5-16.91c1.79-6.53,6.66-11.61,12.58-14.67,5.7-3,13.21-4.92,19.56-3.12C173.36,92.31,176.32,98.61,176.85,104.92Zm-15.5,5.36A4.07,4.07,0,0,1,160,113c-1.61,1.45-4,1.33-5.94.72-.9-.28-2.92-.93-1.77-2.21a6.81,6.81,0,0,1,1.9-1.23c1.78-.94,3.91-1.82,5.89-1A3.21,3.21,0,0,1,161.35,110.28Z"/><path class="cls-1" d="M82.89,32.88c-.34-5.35-9.55-7.45-13.11-9.61C63,19.17,63.46,10.84,64.09,3.78c1.11,1.89.6,4.43,1.45,6.44,1,2.25,3.4,3.26,5.35,4.74,3.21,2.45,7.58,4.25,7.55,8.93.8-5.3-2.5-4.44-4.57-9.83-.67-1.75-.86-4.91.4-6.89-.87,1.64,1.88,4.86,3.06,6.17,1.89,2.12,3.79,2.74,4.27,5.72a64.48,64.48,0,0,1,1.08,7.87C82.78,29,83,32,82.89,32.88Z"/><path class="cls-1" d="M120.25,109c1.72-1.75,4.18-2.45,6.12-3.94,1-.79,2.42-1.42,3.34-2.29a13.68,13.68,0,0,0,1.53-2.21c-.32,1.2-1.1,2.25-1.34,3.55-.21,1.11-.12,2.26-.23,3.39a50.51,50.51,0,0,1-1.36,6.31c-1.71,7.6-9.25,11.1-16.63,9.87.1-1.15,2.16-2.73,2.56-4.16a21.31,21.31,0,0,1,1.92-4.5A35.44,35.44,0,0,1,120.25,109Z"/><path class="cls-2" d="M112.41,123.42c4.88-5.36,9.59-13.45,15.27-16.66"/><g class="cls-14"><path class="cls-15" d="M64.33,5.57a27.28,27.28,0,0,0,1.43,7,14.51,14.51,0,0,0,3.66,6,21.77,21.77,0,0,0,2.73,2.27c1,.67,2,1.27,3,1.94a30.53,30.53,0,0,1,2.9,2.14,9,9,0,0,1,2.4,2.68l0,0a5.65,5.65,0,0,0-1.2-1.29c-.45-.4-.93-.74-1.4-1.1-1-.71-2-1.36-2.94-2s-2-1.27-3-2a17.58,17.58,0,0,1-2.64-2.46,23.26,23.26,0,0,1-2.16-2.88,19.89,19.89,0,0,1-1.7-3.19,16.85,16.85,0,0,1-1.09-7.09Z"/></g><g class="cls-14"><path class="cls-15" d="M73.91,8.55c.09.89.21,1.77.38,2.65a8.49,8.49,0,0,0,.76,2.56,14.17,14.17,0,0,0,3.11,4.3v0a8.54,8.54,0,0,1-3.23-4.27c-.3-.85-.6-1.69-.84-2.57a8.69,8.69,0,0,1-.2-2.69Z"/></g><path class="cls-1" d="M135.13,49.89a4.75,4.75,0,0,1,.67,2.29,6.1,6.1,0,0,1-.34,2.35,5.54,5.54,0,0,1-1.26,2A6.34,6.34,0,0,1,132.39,58a6.5,6.5,0,0,1,.48-2.23c.28-.71.48-1.23.71-1.86A35.54,35.54,0,0,1,135.13,49.89Z"/><path class="cls-1" d="M87.57,105.21a4.75,4.75,0,0,1-2.33-.53,6.12,6.12,0,0,1-1.88-1.45,5.47,5.47,0,0,1-1.15-2.09,6.56,6.56,0,0,1-.34-2.26,6.75,6.75,0,0,1,1.72,1.51c.48.59.83,1,1.27,1.53A33.34,33.34,0,0,1,87.57,105.21Z"/></g></g></svg>