<svg xmlns="http://www.w3.org/2000/svg" viewBox="0 0 234.19 131.06"><defs><style>.cls-1{isolation:isolate;}.cls-2{fill:#85d4c7;opacity:0.2;}.cls-3{fill:#52c2b0;}.cls-3,.cls-4{opacity:0.4;}.cls-4{fill:#21b199;}.cls-5{fill:#f8ac91;}.cls-6,.cls-8{fill:#ff4f5b;}.cls-6,.cls-7{opacity:0.5;}.cls-9{fill:#b3f0ea;}.cls-10{fill:#45beaa;}.cls-11{fill:#00a68a;opacity:0.3;}.cls-11,.cls-13{mix-blend-mode:multiply;}.cls-12,.cls-13{fill:#ff747e;}</style></defs><title>cake3</title><g class="cls-1"><g id="Layer_2" data-name="Layer 2"><g id="Layer_1-2" data-name="Layer 1"><ellipse class="cls-2" cx="113.14" cy="116.43" rx="65.07" ry="4.89"/><path class="cls-2" d="M40.54,42.85C46.19,25.73,60.26,9.08,78.28,9.33c16,.22,29.31,13.53,45.25,15.16,16.94,1.72,32.85-10,49.85-9.33,15.25.63,28.79,11.73,35.19,25.58s6.5,29.92,3.39,44.86c-1.44,6.87-3.63,13.82-8.17,19.18-4.1,4.84-9.81,8-15.54,10.75C154.08,131.81,114.14,135.3,77.52,126c-18.79-4.79-29-8.62-35.86-27.43A85.72,85.72,0,0,1,40.54,42.85Z"/><path class="cls-3" d="M115.92,89.86C122,87.68,131,85.6,125,78.9a30.1,30.1,0,0,1-7.84-21.05,25.11,25.11,0,0,1,10.6-19.53c-1.31,5.4.25,11.07,2.28,16.24s4.57,10.23,5.36,15.72-.6,11.74-5.07,15l12.5-5.39a4.34,4.34,0,0,0,2.6-2.07,4.16,4.16,0,0,0-.13-2.58c-1.6-5.88-4-11.53-5.5-17.44s-2.07-12.29,0-18,7.26-10.63,13.35-10.94c-4.06,5.86-.61,13.69.94,20.64a36.49,36.49,0,0,1-4.42,26.69,137.49,137.49,0,0,0,16.11-13c1.28-1.2,2.64-2.7,2.44-4.44-.17-1.43-1.34-2.5-2.3-3.56a17.19,17.19,0,0,1-4-14.82c.82-3.9,3-7.51,3.17-11.49.1-2.44-.58-4.86-.52-7.31.2-8.31,8.58-14,16.54-16.41-5.78,7.11-4.81,17.33-3.88,26.44s1,19.63-5.77,25.79a28.06,28.06,0,0,0,12.67-18c1-4.93.74-10.26,3.14-14.68,2.11-3.9,6-6.51,8.5-10.18,1.62-2.4,2.6-5.2,4.25-7.59A16.44,16.44,0,0,1,214.73.06C210.17,1.88,207.85,7,207,11.83s-.74,9.89-2.48,14.48c-3.56,9.44-13.9,14.48-19.43,22.92C192.71,45,200.46,40.7,209,38.68s18-1.5,25.23,3.36c-4.77-.74-9.47,1.72-13.24,4.74s-7,6.7-11.24,9.1c-7.28,4.19-16.74,3.87-24.14-.11-1.65-.88-3.4-2-5.24-1.64a7.33,7.33,0,0,0-3.29,2L165.69,66c5.27-.21,10.13-3,15.38-3.6,5.66-.62,11.23,1.4,16.82,2.5s12.05,1,16.16-2.92c-4.14,6.22-9.25,12-15.82,15.55s-14.79,4.59-21.56,1.42c-4.66-2.18-8.81-6.32-14-6.12-6.23.24-10.39,6.66-16.27,8.72a27.13,27.13,0,0,1,18.1,2c3.62,1.77,6.88,4.37,10.76,5.43,2.28.62,4.71.69,6.92,1.52,5.11,1.92,8.45,7.64,13.86,8.4-5.31-1-10.58,1.91-16,2.19-4.77.25-9.37-1.58-13.78-3.39a137.76,137.76,0,0,1-15.24-7c-2.81-1.57-5.56-3.35-8.65-4.26s-6.68-.81-9.22,1.17c13,2.63,20.29,18.68,33.43,20.74a37.11,37.11,0,0,1-25.51-.47,14,14,0,0,1-6.06-4,17.62,17.62,0,0,1-2.64-5.69c-1.1-3.4-1.45-9.82-6.54-9.46-2.42.17-4.47,1.74-6.53,3s-4.59,2.35-6.85,1.46a1.21,1.21,0,0,1-.67-.52c-.31-.62.39-1.25,1-1.59A21.36,21.36,0,0,1,115.92,89.86Z"/><path class="cls-4" d="M71.88,106.15c1.76,0,3.56.14,5.35.15-2.27-5.54,5.11-7.81,8.49-11.9A35.31,35.31,0,0,0,92.51,80c1.73-7.33,1.69-14.94,1.65-22.47-1.89,6.75-7.79,11.53-11.3,17.6a53.77,53.77,0,0,0-4.45,11.43q-2.28,7.5-4.55,15c-3.74-2.63-4.23-8.17-2.67-12.48s4.64-7.84,7-11.74a39.92,39.92,0,0,0,3.56-33.49c-.58,6.12-6,10.44-9.32,15.61a36.06,36.06,0,0,0-4.6,12.13,65.26,65.26,0,0,0-1,20c-3.5-4.52-7.2-9.76-6.31-15.41a26.16,26.16,0,0,1,1.92-5.65,52.94,52.94,0,0,0,2.73-30.45c-1.78-8.52-5.7-16.76-5.27-25.45a46.25,46.25,0,0,0-7.26,41.11c2.18,7,6.12,13.91,5.11,21.18C49,68.21,51.69,53.35,46.42,42.19,40.88,30.44,27.58,24.66,19.06,14.86A37.15,37.15,0,0,0,35.49,52.29,28.1,28.1,0,0,1,41,56.09a20.46,20.46,0,0,1,2.82,4q4.28,7.23,8.54,14.46C44.68,70.71,40.43,62.4,33.9,56.85c-8-6.79-19-9.14-27-15.9A45.9,45.9,0,0,0,33.2,68.29c5.3,2.06,11,3.11,16.09,5.6s9.8,6.9,10.46,12.54c-6.83-8.23-17.48-12.34-28-14.34S10.46,69.85,0,67.64c6.45,8.29,14.1,17.25,24.56,18.23,5.45.51,10.84-1.31,16.31-1.77A33.32,33.32,0,0,1,61.8,89.44l2.27,4.48c-9-1.56-17.5-5.94-26.6-5.76-9.46.19-19.61,5.18-27.85.52,6.09,8.2,16.59,12.23,26.8,12.67s20.28-2.27,30-5.31q2.46,3.92,4.93,7.83a21.59,21.59,0,0,1-10.7,1.72c-3-.29-5.83-1.19-8.78-1.46-6.83-.64-13.49,2.06-20.3,2.83a36.36,36.36,0,0,1-15.9-1.73c4.92,3.66,9.92,7.36,15.6,9.67s12.23,3.14,18,.93c3.12-1.2,5.84-3.23,8.75-4.89a39.91,39.91,0,0,1,12.27-4.5l.92-.15A1.54,1.54,0,0,1,71.88,106.15Z"/><path class="cls-5" d="M82.89,32.88c-.34-5.35-9.55-7.45-13.11-9.61C63,19.17,63.46,10.84,64.09,3.78c1.11,1.89.6,4.43,1.45,6.44,1,2.25,3.4,3.26,5.35,4.74,3.21,2.45,7.58,4.25,7.55,8.93.8-5.3-2.5-4.44-4.57-9.83-.67-1.75-.86-4.91.4-6.89-.87,1.64,1.88,4.86,3.06,6.17,1.89,2.12,3.79,2.74,4.27,5.72a64.48,64.48,0,0,1,1.08,7.87C82.78,29,83,32,82.89,32.88Z"/><path class="cls-5" d="M183.05,75.15c1.71-1.76,4.18-2.45,6.12-4,1-.79,2.42-1.41,3.34-2.28A14.42,14.42,0,0,0,194,66.7c-.33,1.2-1.1,2.26-1.34,3.55-.21,1.12-.13,2.27-.23,3.39A52.37,52.37,0,0,1,191.11,80c-1.71,7.61-9.25,11.1-16.63,9.88.09-1.16,2.16-2.74,2.55-4.16a21.43,21.43,0,0,1,1.93-4.5A34.49,34.49,0,0,1,183.05,75.15Z"/><path class="cls-6" d="M175.21,89.52c4.87-5.35,9.59-13.44,15.27-16.66"/><g class="cls-7"><path class="cls-8" d="M64.33,5.57a27.28,27.28,0,0,0,1.43,7,14.51,14.51,0,0,0,3.66,6,21.77,21.77,0,0,0,2.73,2.27c1,.67,2,1.27,3,1.94a30.53,30.53,0,0,1,2.9,2.14,9,9,0,0,1,2.4,2.68l0,0a5.65,5.65,0,0,0-1.2-1.29c-.45-.4-.93-.74-1.4-1.1-1-.71-2-1.36-2.94-2s-2-1.27-3-2a17.58,17.58,0,0,1-2.64-2.46,23.26,23.26,0,0,1-2.16-2.88,19.89,19.89,0,0,1-1.7-3.19,16.85,16.85,0,0,1-1.09-7.09Z"/></g><g class="cls-7"><path class="cls-8" d="M73.91,8.55c.09.89.21,1.77.38,2.65a8.49,8.49,0,0,0,.76,2.56,14.17,14.17,0,0,0,3.11,4.3v0a8.54,8.54,0,0,1-3.23-4.27c-.3-.85-.6-1.69-.84-2.57a8.69,8.69,0,0,1-.2-2.69Z"/></g><path class="cls-5" d="M77.57,115.21a4.75,4.75,0,0,1-2.33-.53,6.12,6.12,0,0,1-1.88-1.45,5.47,5.47,0,0,1-1.15-2.09,6.56,6.56,0,0,1-.34-2.26,6.75,6.75,0,0,1,1.72,1.51c.48.59.83,1,1.27,1.53A33.34,33.34,0,0,1,77.57,115.21Z"/><rect class="cls-9" x="74.41" y="57.55" width="91.28" height="59.36" rx="12"/><polygon class="cls-10" points="165.69 72.93 165.69 85.93 153.76 95.84 136.9 81.84 120.03 95.84 103.19 81.84 86.34 95.84 74.41 85.93 74.41 72.93 86.34 82.84 103.19 68.84 120.03 82.84 136.9 68.84 153.76 82.84 165.69 72.93"/><path class="cls-10" d="M165.69,98.29v6.62a12,12,0,0,1-12,12H86.41a12,12,0,0,1-12-12V98.29l11.93,9.91,16.85-14,16.85,14,16.86-14,16.86,14Z"/><path class="cls-9" d="M137.68,48.37v4.5a4.73,4.73,0,0,1-4.7,4.7H109.64a3.37,3.37,0,0,1-3.35-3.09,1.32,1.32,0,0,1,0-.28V43.87a4.71,4.71,0,0,1,4.7-4.7h17.51A9.23,9.23,0,0,1,137.68,48.37Z"/><path class="cls-11" d="M165.69,69.55v35.36a12,12,0,0,1-12,12H86.41a12,12,0,0,1-12-12V78.44c8.14,19.29,24.42,30,51.85,27.11s36.64-39.32,27.43-48A12,12,0,0,1,165.69,69.55Z"/><path class="cls-12" d="M127.3,32c.07-7.7-6.37-15.63-6.37-15.63S112.79,28,112.79,31.82s3.48,7,7.77,7S127.27,35.8,127.3,32Z"/><path class="cls-13" d="M127.3,32c0,3.78-2.45,6.76-6.74,6.76a8,8,0,0,1-6.68-3.41h0c8.09,1.89,15.34-4.9,7.06-19C120.94,16.39,127.37,24.32,127.3,32Z"/><path class="cls-10" d="M136.74,55.67a4.67,4.67,0,0,1-3.76,1.9H109.64a3.37,3.37,0,0,1-3.35-3.09c1.52.43,1.82,1.88,3.85,1.88,2.38,0,2.38-2,4.77-2s2.38,2,4.76,2,2.38-2,4.76-2,2.38,2,4.77,2,2.38-2,4.77-2A4,4,0,0,1,136.74,55.67Z"/><path class="cls-11" d="M137.69,48.37v4.5a4.71,4.71,0,0,1-4.7,4.7H109.64a3.38,3.38,0,0,1-3.37-3.37V47.29c0,4.55,9.8,8,20.2,7s9.33-9.42,5.86-14.28A9.22,9.22,0,0,1,137.69,48.37Z"/><path class="cls-5" d="M89.55,41.91c-1.25-1-1.86-2.53-3-3.68-.58-.6-1.08-1.46-1.7-2a8.8,8.8,0,0,0-1.53-.83c.8.13,1.53.56,2.38.62s1.47-.07,2.2-.08a33.7,33.7,0,0,1,4.16.45c5,.58,7.79,5.21,7.5,10-.75,0-1.91-1.21-2.86-1.37a13.93,13.93,0,0,1-3-.93A22.76,22.76,0,0,1,89.55,41.91Z"/><path class="cls-6" d="M99.35,46c-3.78-2.78-9.32-5.27-11.78-8.71"/><path class="cls-5" d="M148.86,38.78a4.65,4.65,0,0,1,.68,2.29,6.1,6.1,0,0,1-.34,2.35,5.56,5.56,0,0,1-1.27,2,6.57,6.57,0,0,1-1.81,1.39,6.94,6.94,0,0,1,.48-2.23c.29-.71.49-1.23.72-1.86A36.56,36.56,0,0,1,148.86,38.78Z"/></g></g></g></svg>