<svg xmlns="http://www.w3.org/2000/svg" viewBox="0 0 242.91 159.09"><defs><style>.cls-1{fill:#fefefe;}.cls-2{fill:#f1f1f1;}.cls-3{fill:#e5e5e5;}.cls-4,.cls-6{fill:#ccc;}.cls-5{fill:none;}.cls-6{font-size:13.44px;font-family:Montserrat-Bold, Montserrat;font-weight:700;}</style></defs><title>no_method</title><g id="Layer_2" data-name="Layer 2"><g id="Layer_1-2" data-name="Layer 1"><rect class="cls-1" x="25.11" y="25.76" width="192.07" height="112.73" rx="40.93"/><path class="cls-2" d="M39.62,136.2l5.08,0a2.22,2.22,0,0,0,2.6,2.28c4.87-.08,9.74,0,14.61,0a2.3,2.3,0,0,0,2.54-2.23c1.68.08,3.39-.24,5,.3a2.06,2.06,0,0,0,2.39,1.94q7.22-.06,14.43,0c1.6,0,2.64-.61,3-2.24a16.76,16.76,0,0,0,5,0c0,1.44.71,2.26,2.25,2.25,4.93,0,9.86,0,14.78,0a2.19,2.19,0,0,0,2.5-2.24c1.75.14,3.54-.25,5.26.31.21,1.55,1.27,1.94,2.62,1.93,4.77,0,9.54,0,14.31,0,1.93,0,2.47-.57,2.6-2.55a17.62,17.62,0,0,0,5.06.65,2.8,2.8,0,0,0,2.74,1.93c4.86-.05,9.72,0,14.58,0,1.46,0,2.44-.59,2.43-2.23l5.06,0a2.52,2.52,0,0,0,2.9,2.24c2.43-.08,4.85,0,7.28,0-.1.72-.61,1-1.23,1.28A158.77,158.77,0,0,1,159,147.06c-5.63,1.82-11.3,3.52-17.09,4.82-3.41.76-6.84,1.43-10.24,2.29a103.08,103.08,0,0,1-10.26,1.72c-2.7.41-5.41.74-8.13,1.07-2.45.31-4.9.71-7.36.83-6.64.33-13.27.77-19.91,1.07-5.88.27-11.75.28-17.61.17A166.69,166.69,0,0,1,48,157.22q-5.79-.83-11.45-2.22a56.26,56.26,0,0,1-14.1-5.55c-5.94-3.35-11.31-7.5-15.29-13.2A35,35,0,0,1,.94,121.88a60.72,60.72,0,0,1-.31-19.26,74.44,74.44,0,0,1,5-17.34,107.54,107.54,0,0,1,8-15.5A120.61,120.61,0,0,1,24,55.73c.29-.33.53-.66,1-.67,0,3.7.11,7.4,0,11.09a3.18,3.18,0,0,0,2.25,3.51c0,1.61,0,3.21,0,4.81-1.62.32-2.23,1.36-2.22,3,0,4.69,0,9.39,0,14.09a2.41,2.41,0,0,0,2.24,2.71c0,1.69,0,3.37,0,5.06-1.59.36-2.2,1.15-2.21,2.91,0,4.61,0,9.21,0,13.81,0,1.7.55,2.73,2.26,3,0,1.68,0,3.36,0,5a2.27,2.27,0,0,0-2.11,2.66A13.37,13.37,0,0,0,35.8,138.34C38.05,138.79,39,138.27,39.62,136.2Z"/><path class="cls-3" d="M132.22,127q-45,0-90,.05a5.8,5.8,0,0,1-6.07-5.9c-.07-13.3,0-26.6,0-39.9,0-1.4.74-1.35,1.7-1.34h94.58a9.49,9.49,0,0,0,2.66-.3,5.9,5.9,0,0,1-.18,1.71,64.62,64.62,0,0,0-2,7.4c-1,6.43-2.17,12.85-2,19.41.08,2.69-.09,5.4.11,8.08C131.31,119.78,131.82,123.37,132.22,127ZM77,99.92h27.33c4.31,0,4.31,0,4.31-4.37,0-2.3,0-2.31-2.24-2.31H46.85c-.79,0-1.16.37-1.15,1.16a31.42,31.42,0,0,1,0,3.5c-.16,1.55.28,2.07,2,2.06C57.44,99.88,67.24,99.92,77,99.92Zm-6.76,15.27H90.79c4.21,0,4.21,0,4.21-4.21,0-2.47,0-2.46-2.52-2.18a13.65,13.65,0,0,1-1.43,0q-21.87,0-43.74,0c-1.19,0-1.77.25-1.64,1.57a16.09,16.09,0,0,1,0,3.18c-.14,1.36.4,1.68,1.7,1.67C55,115.17,62.65,115.2,70.28,115.19Z"/><path class="cls-2" d="M132.22,127c-.4-3.59-.91-7.18-1.17-10.78-.2-2.68,0-5.39-.11-8.08-.19-6.56,1-13,2-19.41a64.62,64.62,0,0,1,2-7.4,5.9,5.9,0,0,0,.18-1.71l68.21,0c2.33,0,2.44.16,2.43,2.69v39.27a5.14,5.14,0,0,1-5.44,5.44ZM178,112.64c2,1.19,4.05,2.33,6.51,2.46,2.8.14,5.49-.19,7.75-1.95a11.17,11.17,0,0,0,.31-17.32,10.76,10.76,0,0,0-12-1.2c-.82.44-1.5,1.21-2.55,1.17-3.06-2-6.19-3.08-10-2.09a11,11,0,1,0,10,18.93Z"/><path class="cls-2" d="M59.67,26.51c5.17-2.84,10.32-5.7,15.68-8.21,4.71-2.19,9.53-4.13,14.37-5.94a141.3,141.3,0,0,1,14.89-4.68c3.46-.88,6.87-2,10.4-2.53,5.19-.82,10.29-2.07,15.53-2.71q8.37-1,16.78-1.74c6.64-.57,13.32-.41,20-.33a147.4,147.4,0,0,1,19.76,2.05c2.91.43,5.69,1.31,8.55,1.88.82.16,1.57-.4,2.31.06a30,30,0,0,0-14,23.64,48.58,48.58,0,0,0-8.09-.28,2,2,0,0,0-2.22-1.94c-2.38,0-4.77,0-7.15,0A2.17,2.17,0,0,0,164,27.71h-5c-.26-1.43-1.09-2-2.56-1.95-4.86.07-9.72,0-14.58,0-1.41,0-2.35.47-2.62,1.94-1.71-.22-3.36.42-5.06.31-.17-1.68-.76-2.24-2.55-2.24-4.85,0-9.69,0-14.54,0A2.31,2.31,0,0,0,114.4,28a10.4,10.4,0,0,0-5.05,0c-.11-1.65-1-2.27-2.63-2.26-4.86,0-9.72,0-14.58,0A2.28,2.28,0,0,0,89.61,28c-1.68-.08-3.39.24-5-.3-.33-1.51-1.34-2-2.8-1.95-4.7.05-9.4.07-14.09,0A2.55,2.55,0,0,0,64.78,28H59.72C59.7,27.53,59.68,27,59.67,26.51Z"/><path class="cls-4" d="M183.94,28a30,30,0,0,1,14-23.64l0,0,.49-.3a1.29,1.29,0,0,0,.89-.5l2.92-1.35,1.23-.51,2.58-.76.6-.17a.62.62,0,0,0,.67-.14,3,3,0,0,0,1.54-.29l.69-.06,1.55-.21a3.1,3.1,0,0,0,1.6,0l4.71.27a1.35,1.35,0,0,0,1,.14l.91.19,4.15,1.18a34.5,34.5,0,0,1,9.08,5.31l4.58,4.9a.27.27,0,0,0,.15.25,32.68,32.68,0,0,1,5.41,13.93l.2,4.39a2.67,2.67,0,0,0-.1,1.58l-.09.61a48.31,48.31,0,0,1-2,7.86.4.4,0,0,0,0,.15c-.18.32-.39.61-.54.94a29.37,29.37,0,0,1-18.13,15.93,34.69,34.69,0,0,1-11.9,1.24,5.81,5.81,0,0,0-2.23-.33,35.63,35.63,0,0,1-12.21-5.37l-.78-.62c-.76-.72-1.54-1.42-2.29-2.16a31.16,31.16,0,0,1-8-14.14l-.15-.61c-.06-.43-.13-.87-.2-1.3L184,32.48l-.09-.56Zm33.61-5.73h0c.06-1.11.13-2.22.18-3.33s.12-2.33.11-3.49c0-2.56-1.62-3.92-4.51-3.91-2.72,0-4.4,1.47-4.31,4,.15,4.65.38,9.3.66,14A3.71,3.71,0,0,0,213.44,33a3.8,3.8,0,0,0,3.75-3.74C217.33,26.92,217.43,24.6,217.55,22.27Zm1.16,20a5.24,5.24,0,0,0-5.34-5.3,5.24,5.24,0,1,0,0,10.47A5.18,5.18,0,0,0,218.71,42.27Z"/><path class="cls-3" d="M149.72,51.56q-51,0-101.93,0c-3.06,0-6.11.44-9.18.31-2.33-.1-2.51-.16-2.44-2.39.08-2.69-.28-5.39.27-8.08a5.11,5.11,0,0,1,4.15-4.06,13.82,13.82,0,0,1,3.6-.44q56.21,0,112.42,0c1.64,0,3.24.52,4.89.31,0,.31,0,.64-.25.88A64.19,64.19,0,0,0,154,45.94C152.49,47.76,150.67,49.34,149.72,51.56Z"/><path class="cls-2" d="M210.16,58.87a34.69,34.69,0,0,0,11.9-1.24A29.37,29.37,0,0,0,240.19,41.7c.15-.33.36-.62.54-.94.1,2.87,1,5.62,1.24,8.47.16,1.84.31,3.67.35,5.52a56.13,56.13,0,0,1-1.76,15.5,82,82,0,0,1-7.23,18.34,85.35,85.35,0,0,1-7.23,11.64,122,122,0,0,1-7.67,9.62,1.48,1.48,0,0,1-1.22.58,2.63,2.63,0,0,0-2.27-1.91c0-1.68,0-3.36,0-5,1.56,0,2.27-.8,2.26-2.38q0-7.38,0-14.75c0-1.58-.71-2.35-2.26-2.38,0-1.69,0-3.37,0-5,1.73-.4,2.32-1.53,2.25-3.25-.09-2.1,0-4.21,0-6.31a2.28,2.28,0,0,0-2.23-2.51c0-1.85-.05-3.7,0-5.55,0-1.06-.24-1.53-1.4-1.49a18,18,0,0,1-2.81-.3A.63.63,0,0,1,210.16,58.87Z"/><path class="cls-2" d="M193.88,51.56H149.72c.95-2.22,2.77-3.8,4.24-5.62a64.19,64.19,0,0,1,7.29-7.82c.27-.24.23-.57.25-.88a3,3,0,0,1,1.68-.31c4.57,0,9.14,0,13.7,0h8a30.74,30.74,0,0,0,7.81,13.46Z"/><path class="cls-2" d="M190.76,51.56l-.29,0c-4.81,0-9.62,0-14.43,0h14.72Z"/><path class="cls-4" d="M25,40a13.48,13.48,0,0,1,6.19-12.28,2.71,2.71,0,0,1,3.13-.2,2,2,0,0,1,.81,2.11,2.09,2.09,0,0,1-1.07,1.66c-3.48,2.05-4.67,5.28-4.61,9.13a14.94,14.94,0,0,1,0,2.22,2.12,2.12,0,0,1-2.15,2.12,2.16,2.16,0,0,1-2.25-2.21C25,41.7,25,40.85,25,40Z"/><path class="cls-4" d="M200.35,138.4c-1.53,0-3.07,0-4.6,0a2.41,2.41,0,0,1-2.41-2.22,2.38,2.38,0,0,1,2.4-2.22c2.43,0,4.86-.06,7.29,0a9.93,9.93,0,0,0,6.12-1.77c1.23-.85,2.15-.33,2.94.47a2,2,0,0,1,0,3c-1.1,1.25-2.7,1.59-4.18,2.12C205.43,138.66,202.87,138.35,200.35,138.4Z"/><path class="cls-4" d="M39.62,136.2c-.65,2.07-1.57,2.59-3.82,2.14a13.37,13.37,0,0,1-10.66-11.59,2.27,2.27,0,0,1,2.11-2.66c1.46.17,2.07,1,2.38,2.46.93,4.22,3.5,6.83,7.9,7.43C38.85,134.16,39.26,135.14,39.62,136.2Z"/><path class="cls-4" d="M214.94,108.52a2.63,2.63,0,0,1,2.27,1.91l0,15.26c0,1.61-1,2.81-2.16,2.78-1.4,0-2.29-1.1-2.29-2.82,0-4.61.05-9.22,0-13.83C212.68,110.1,213.2,109,214.94,108.52Z"/><path class="cls-4" d="M59.67,26.51c0,.51,0,1,0,1.52,0,1.58-.91,2.18-2.31,2.19-5,0-10.06,0-15.09,0A2.38,2.38,0,0,1,40,28.07a2.39,2.39,0,0,1,2.37-2.27c5.08,0,10.16,0,15.25,0C58.45,25.77,59,26.32,59.67,26.51Z"/><path class="cls-4" d="M178.68,138.45c-2.43,0-4.85-.1-7.28,0a2.32,2.32,0,1,1,0-4.49c4.7.07,9.39,0,14.09,0,2,0,2.74.64,2.74,2.22s-.76,2.21-2.73,2.22Z"/><path class="cls-4" d="M27.23,69.66A3.18,3.18,0,0,1,25,66.15c.14-3.69,0-7.39,0-11.09,0-1,0-2,0-3A2.37,2.37,0,0,1,27.3,49.7,2.38,2.38,0,0,1,29.47,52c0,5,0,10,0,15C29.5,68.61,28.58,69.31,27.23,69.66Z"/><path class="cls-4" d="M64.45,136.19a2.3,2.3,0,0,1-2.54,2.23c-4.87,0-9.74,0-14.61,0a2.22,2.22,0,0,1-2.6-2.28c.15-1.65,1.13-2.22,2.69-2.2q7.05,0,14.11,0C63.09,134,64.14,134.55,64.45,136.19Z"/><path class="cls-4" d="M114.4,28a2.31,2.31,0,0,1,2.65-2.26c4.85,0,9.69,0,14.54,0,1.79,0,2.38.56,2.55,2.24a2.23,2.23,0,0,1-2.44,2.17c-5,.06-10,0-15,0C115.25,30.22,114.72,29.22,114.4,28Z"/><path class="cls-4" d="M89.26,136.19c-.31,1.63-1.35,2.25-3,2.24q-7.22-.06-14.43,0a2.06,2.06,0,0,1-2.39-1.94c.19-1.92.8-2.5,2.7-2.51,4.7,0,9.41,0,14.12,0C87.91,134,89,134.56,89.26,136.19Z"/><path class="cls-4" d="M163.44,136.17c0,1.64-1,2.23-2.43,2.23-4.86,0-9.72,0-14.58,0a2.8,2.8,0,0,1-2.74-1.93c.34-1.89,1-2.53,2.8-2.53,4.83,0,9.65,0,14.47,0C162.41,134,163.44,134.51,163.44,136.17Z"/><path class="cls-4" d="M27.26,94.23A2.41,2.41,0,0,1,25,91.52c0-4.7,0-9.4,0-14.09,0-1.6.6-2.64,2.22-3a2.56,2.56,0,0,1,2.27,2.9c-.07,4.75,0,9.5,0,14.25C29.47,93.42,29,94,27.26,94.23Z"/><path class="cls-4" d="M27.26,119.05c-1.71-.31-2.29-1.34-2.26-3,.08-4.6,0-9.2,0-13.81,0-1.76.62-2.55,2.21-2.91,1.81.42,2.33,1.55,2.29,3.37-.12,4.59,0,9.18-.05,13.77C29.48,118.22,28.94,118.81,27.26,119.05Z"/><path class="cls-4" d="M214.92,84c1.55,0,2.27.8,2.26,2.38q0,7.38,0,14.75c0,1.58-.7,2.35-2.26,2.38s-2.17-.93-2.18-2.35c0-4.93,0-9.85,0-14.78A2.14,2.14,0,0,1,214.92,84Z"/><path class="cls-4" d="M89.61,28a2.28,2.28,0,0,1,2.53-2.23c4.86,0,9.72,0,14.58,0,1.59,0,2.52.61,2.63,2.26a2.68,2.68,0,0,1-3.09,2.22c-4.58-.09-9.16-.05-13.74,0A2.59,2.59,0,0,1,89.61,28Z"/><path class="cls-4" d="M64.78,28a2.55,2.55,0,0,1,2.9-2.25c4.69.07,9.39.05,14.09,0,1.46,0,2.47.44,2.8,1.95-.55,2.26-.85,2.51-3.08,2.51-4.59,0-9.17,0-13.76,0A2.6,2.6,0,0,1,64.78,28Z"/><path class="cls-4" d="M113.84,136.17a2.19,2.19,0,0,1-2.5,2.24c-4.92,0-9.85,0-14.78,0-1.54,0-2.2-.81-2.25-2.25s.88-2.22,2.44-2.21c4.8,0,9.61,0,14.41,0C112.68,134,113.71,134.51,113.84,136.17Z"/><path class="cls-4" d="M138.63,135.85c-.13,2-.67,2.55-2.6,2.55-4.77,0-9.54,0-14.31,0-1.35,0-2.41-.38-2.62-1.93.19-2,.72-2.5,2.66-2.5q7.12,0,14.25,0C137.32,134,138.44,134.27,138.63,135.85Z"/><path class="cls-4" d="M139.2,27.72c.27-1.47,1.21-1.95,2.62-1.94,4.86,0,9.72,0,14.58,0,1.47,0,2.3.52,2.56,1.95-.39,1.95-1.24,2.39-3.19,2.33-4.66-.13-9.32-.11-14-.05C140.12,30,139.34,29.3,139.2,27.72Z"/><path class="cls-4" d="M214.94,66.84a2.28,2.28,0,0,1,2.23,2.51c0,2.1-.07,4.21,0,6.31.07,1.72-.52,2.85-2.25,3.25a2.52,2.52,0,0,1-2.22-2.8c0-2.22,0-4.45,0-6.67C212.78,68,213.36,67,214.94,66.84Z"/><path class="cls-4" d="M164,27.71a2.17,2.17,0,0,1,2.47-1.93c2.38,0,4.77,0,7.15,0a2,2,0,0,1,2.22,1.94c0,1.57-.83,2.24-2.4,2.25-2.16,0-4.31.22-6.47.23C165,30.21,164.23,29.48,164,27.71Z"/><path class="cls-2" d="M183.94,31.92l.09.56A.4.4,0,0,1,183.94,31.92Z"/><path class="cls-4" d="M77,99.92c-9.8,0-19.6,0-29.4,0-1.69,0-2.13-.51-2-2.06a31.42,31.42,0,0,0,0-3.5c0-.79.36-1.18,1.15-1.16h59.59c2.23,0,2.23,0,2.24,2.31,0,4.37,0,4.37-4.31,4.37Z"/><path class="cls-4" d="M70.28,115.19c-7.63,0-15.27,0-22.9,0-1.3,0-1.84-.31-1.7-1.67a16.09,16.09,0,0,0,0-3.18c-.13-1.32.45-1.58,1.64-1.57q21.87,0,43.74,0a13.65,13.65,0,0,0,1.43,0C95,108.52,95,108.51,95,111c0,4.21,0,4.21-4.21,4.21Z"/><path class="cls-3" d="M178,95.8c1.05,0,1.73-.73,2.55-1.17a10.76,10.76,0,0,1,12,1.2,11.17,11.17,0,0,1-.31,17.32c-2.26,1.76-4.95,2.09-7.75,1.95-2.46-.13-4.48-1.27-6.51-2.46-.24-1.33-1.52-2-2-3.14a11.36,11.36,0,0,1,1.37-12.35C177.67,96.75,178.18,96.43,178,95.8Z"/><path class="cls-4" d="M178,95.8c.17.63-.34,1-.65,1.35A11.36,11.36,0,0,0,176,109.5c.52,1.15,1.8,1.81,2,3.14a11,11,0,1,1-10-18.93C171.82,92.72,175,93.8,178,95.8Z"/><path class="cls-2" d="M217.55,22.27c-.12,2.33-.22,4.65-.36,7A3.8,3.8,0,0,1,213.44,33a3.71,3.71,0,0,1-3.78-3.54c-.28-4.65-.51-9.3-.66-13.95-.09-2.49,1.59-3.94,4.31-4,2.89,0,4.49,1.35,4.51,3.91,0,1.16-.06,2.33-.11,3.49s-.12,2.22-.18,3.33Z"/><path class="cls-2" d="M218.71,42.27a5.18,5.18,0,0,1-5.29,5.17,5.24,5.24,0,1,1,0-10.47A5.24,5.24,0,0,1,218.71,42.27Z"/><polyline class="cls-3" points="67.19 36.93 163.18 36.93 143.99 51.23 63.41 43.46"/><path class="cls-2" d="M190.76,51.56l-.29,0c-4.81,0-9.62,0-14.43,0h14.72Z"/><line class="cls-5" x1="176.88" y1="36.93" x2="163.18" y2="36.93"/><text class="cls-6" transform="translate(55.65 69.95)">No method added</text></g></g></svg>