<svg xmlns="http://www.w3.org/2000/svg" viewBox="0 0 141.83 216.19"><defs><style>.cls-1{fill:#30b9b0;opacity:0.5;}.cls-2{font-size:12px;font-family:Montserrat-Regular, Montserrat;}.cls-3{fill:#fff;}.cls-4{fill:#ff4f5b;}.cls-5{fill:#1a2e35;}</style></defs><title>request</title><g id="Layer_2" data-name="Layer 2"><g id="Layer_1-2" data-name="Layer 1"><path class="cls-1" d="M141.28,14.15v187.9a14.19,14.19,0,0,1-14.14,14.14h-113A14.18,14.18,0,0,1,0,202.05V14.15A14.19,14.19,0,0,1,14.14,0h113A14.19,14.19,0,0,1,141.28,14.15Z"/><text class="cls-2" transform="translate(8.57 23.77)">Make a Request</text><path class="cls-3" d="M124.6,201.33a2.41,2.41,0,0,1-1.63.9,2.87,2.87,0,0,1-1.22-.1,1.09,1.09,0,0,0-.67,0,3.66,3.66,0,0,1-2.1,0,1.2,1.2,0,0,0-.33,0,1.41,1.41,0,0,0-.35,0,2.78,2.78,0,0,1-1.21.1,2.41,2.41,0,0,1-1.62-.9A4.19,4.19,0,0,1,115,198a18.57,18.57,0,0,1,.7-2.76,9.21,9.21,0,0,0-.11-3.55,10.08,10.08,0,0,1-.11-4,2.17,2.17,0,0,1,1.64-1.5,2.15,2.15,0,0,1,2.09.43.77.77,0,0,1-1,1.13l-.12-.11h-.17a1.14,1.14,0,0,0-.83.29l-.09.09,0,.12a9.78,9.78,0,0,0,.17,3.28,9.81,9.81,0,0,1,0,4.24,17.18,17.18,0,0,0-.64,2.53c-.2,1.3,0,1.88.21,2.15a.88.88,0,0,0,.61.32,1.42,1.42,0,0,0,.57-.05,2.69,2.69,0,0,1,1.59,0,2.18,2.18,0,0,0,1.16,0,2.62,2.62,0,0,1,1.59,0,1.52,1.52,0,0,0,.56.05.85.85,0,0,0,.63-.33c.2-.26.4-.84.2-2.14a17.18,17.18,0,0,0-.64-2.53,10,10,0,0,1,.06-4.24,9.24,9.24,0,0,0,.14-3.34l-.06-.25-.24-.09a1.61,1.61,0,0,0-.8-.06l-.12,0-.09.09a.69.69,0,0,1-1-.07.68.68,0,0,1-.18-.54.9.9,0,0,1,.27-.6,2.25,2.25,0,0,1,2.13-.38,2.15,2.15,0,0,1,1.59,1.47,10.27,10.27,0,0,1-.11,4,8.78,8.78,0,0,0-.11,3.54,19.33,19.33,0,0,1,.69,2.77A4.19,4.19,0,0,1,124.6,201.33Z"/><path class="cls-3" d="M122.89,181.78v1.59a.77.77,0,0,1-1.54,0v-1.56h-2.64v1.56a.77.77,0,1,1-1.54,0v-1.59a1.6,1.6,0,0,1,1.67-1.51h2.38A1.6,1.6,0,0,1,122.89,181.78Z"/><path class="cls-4" d="M141.6,125l0,0-.3.75v62.88c-4.31,10.87-11,20.5-21.07,27.53H81.51c-1.14-.35-2.29-.74-3.44-1.14-14.36-5-27-14.46-36.93-26.14-2.83-3.35-5.49-7-6.79-11.17s-1.06-9.1,1.56-12.61c4-5.34,12-5.74,18.18-3.38,3.3,1.26,6.41,3.15,9.88,3.81s7.62-.34,9.25-3.52,0-7.23-2.64-9.57-6.15-3.41-9.47-4.64A86,86,0,0,1,35.65,133c-3.16-2.65-6.37-6.49-6.23-10.36a6.53,6.53,0,0,1,.47-2.26c1.34-3.32,5.16-4.85,8.68-5.26s7.16,0,10.52-1.14c3-1,5.83-4,4.86-7-.53-1.67-2.07-2.76-3.49-3.78a100.47,100.47,0,0,1-20.88-20c-4-5.16-7.71-11.62-6-18s8.55-10.29,15-9.9S50.82,59.66,55,64.64s7,11,10,16.8,6.07,11.72,10.71,16.29c1.34,1.32,3.14,2.61,4.94,2.09s2.66-2.59,2.79-4.46-.23-3.78.15-5.61c.92-4.41,6.24-6.87,10.52-5.65s7.37,5.2,8.76,9.49,1.36,8.88,1.31,13.39l-.24,25.21c0,4.51.4,9.92,4.3,12.09,2.84,1.58,6.42.67,9.31-.81a26.57,26.57,0,0,0,10.67-10.12c1.89-3.23,3.37-7.14,6.74-8.72a7.41,7.41,0,0,1,6.32.21l.17.07Z"/><path class="cls-5" d="M117.63,216.19H117c-.76-4.38-1.88-7.42-4.6-16.72-.13-.45-.26-.89-.4-1.34a.83.83,0,0,0,0-.15A423.13,423.13,0,0,0,96.44,156l-4.74-11.2c-1.57-3.68-3.11-7.29-4.83-10.75-.09-.19-.18-.37-.28-.55s-.07-.16-.12-.24a206.48,206.48,0,0,0-10.66-18.52c-3.82-6-7.65-11.52-11.28-16.69S57.43,88.17,54.09,84A169.53,169.53,0,0,0,36.93,65.33c-2.18-2-3.91-3.59-5.09-4.64l-1.34-1.2a3.47,3.47,0,0,1-.43-.43,4.46,4.46,0,0,1,.49.36c.34.29.8.66,1.39,1.14,1.21,1,3,2.52,5.2,4.53A159.79,159.79,0,0,1,54.54,83.61c3.38,4.18,6.89,8.91,10.55,14.06s7.52,10.7,11.36,16.68a204.13,204.13,0,0,1,10.89,18.87,1.51,1.51,0,0,1,.11.22l.14.27c1.74,3.47,3.3,7.12,4.86,10.79s3.15,7.42,4.76,11.2a415.17,415.17,0,0,1,15.37,41.84.83.83,0,0,1,.06.21c.16.5.31,1,.45,1.51C115.82,208.66,116.9,211.72,117.63,216.19Z"/><path class="cls-5" d="M87.36,133.68a9.39,9.39,0,0,0,.44-1.92c.24-1.25.53-3.06.86-5.3.65-4.49,1.34-10.72,2.08-17.58S92.25,95.8,93,91.34c.35-2.23.66-4,.88-5.28a8.79,8.79,0,0,0,.26-2A9.2,9.2,0,0,0,93.54,86c-.33,1.22-.72,3-1.15,5.24-.87,4.46-1.74,10.67-2.48,17.55s-1.35,12.92-1.83,17.6c-.24,2.12-.44,3.9-.6,5.33A8.84,8.84,0,0,0,87.36,133.68Z"/><path class="cls-5" d="M29.42,122.65a14.2,14.2,0,0,0,2.32.28c1.48.14,3.63.33,6.29.64,5.3.59,12.61,1.67,20.61,3.21S73.83,130,79,131.43c2.59.68,4.67,1.28,6.1,1.69a12.13,12.13,0,0,0,2.27.56,13.89,13.89,0,0,0-2.17-.87c-1.41-.51-3.47-1.2-6-1.95C74,129.32,66.83,127.51,58.8,126a204.55,204.55,0,0,0-20.72-3c-2.66-.24-4.83-.34-6.33-.38A12.5,12.5,0,0,0,29.42,122.65Z"/><path class="cls-5" d="M141.83,124.25a3.64,3.64,0,0,1-.23.74l0,0-.3.75c-.16.41-.35.88-.56,1.4l-3.19,7.91c-2.68,6.68-6.2,16-10,26.28S120,181,117.22,187.58c-1.41,3.32-2.58,6-3.44,7.81l-1,2.09-.14.27c-.15.29-.23.44-.26.44h0a4.07,4.07,0,0,1,.21-.64s0-.08,0-.13c.23-.58.51-1.29.86-2.15l3.19-7.91c2.68-6.68,6.19-16,10-26.28s7.45-19.58,10.27-26.21c1.4-3.32,2.58-6,3.44-7.81l.85-1.78.15-.31s0,0,0,0A2.41,2.41,0,0,1,141.83,124.25Z"/><path class="cls-5" d="M35.44,173.09a2.73,2.73,0,0,0,.76.32l2.23.76,8.24,2.7c7,2.28,16.53,5.55,27.11,9.17S94,192.84,101,195c3.5,1.07,6.34,1.91,8.32,2.44l2.28.61a3,3,0,0,0,.81.16,2.73,2.73,0,0,0-.76-.32l-2.24-.76-8.24-2.7c-7-2.28-16.53-5.55-27.1-9.17s-20.18-6.8-27.19-8.94c-3.5-1.07-6.35-1.91-8.32-2.45l-2.28-.6A3.08,3.08,0,0,0,35.44,173.09Z"/></g></g></svg>