<svg xmlns="http://www.w3.org/2000/svg" viewBox="0 0 263.85 191.97"><defs><style>.cls-1{fill:#f5f5f5;}.cls-2{fill:#00dfbf;}.cls-12,.cls-3{fill:#fff;}.cls-4{fill:#ececec;}.cls-5{fill:#e1e1e1;}.cls-6{fill:#f0f0f0;}.cls-7{fill:#375a64;}.cls-8{fill:#1a2e35;}.cls-9{fill:#2b454e;}.cls-10,.cls-15{opacity:0.1;}.cls-11,.cls-16{opacity:0.2;}.cls-12{opacity:0.3;}.cls-13{fill:#ffaaa8;}.cls-14{fill:#ff9090;}</style></defs><title>rider</title><g id="Layer_2" data-name="Layer 2"><g id="Layer_1-2" data-name="Layer 1"><path class="cls-1" d="M39.05,171.82c51.43,26.87,134.81,26.87,186.23,0s51.43-70.42,0-97.29-134.8-26.86-186.23,0S-12.38,145,39.05,171.82Z"/><path class="cls-2" d="M19.85,126.76a51.79,51.79,0,0,0,2.6-12.24c.48-6.38-2.61-16.16-8.28-19.43s-8.73.78-6.83,4.26,8.31,13.29,8.39,21.76Z"/><path class="cls-3" d="M17.88,126.62h-.05a.29.29,0,0,1-.25-.34v-.08a44,44,0,0,0,.27-14c-1-8.11-3.61-11.86-6.07-14.46a.3.3,0,0,1,0-.43.31.31,0,0,1,.43,0c2.53,2.67,5.25,6.52,6.23,14.81a44.76,44.76,0,0,1-.27,14.2l0,.08A.3.3,0,0,1,17.88,126.62Z"/><path class="cls-2" d="M16.63,130.39a12.07,12.07,0,0,0-7.08-8.33c-4.25-2-8.62-3.13-9.41-5.68s1.9-5.49,7.43-4.26,11.48,9.47,11.16,15Z"/><path class="cls-3" d="M17.87,128.76a.3.3,0,0,1-.29-.26c-1.14-7.5-7.5-13.23-12.51-13.68a.3.3,0,0,1-.27-.33.3.3,0,0,1,.33-.27c5.22.47,11.87,6.41,13,14.19a.3.3,0,0,1-.25.35Z"/><path class="cls-2" d="M224,72.91s-2.82-6.25-2.36-11.6,2.43-10.6,7.07-14.2,8.24-2,9-.65.78,3.91-2.68,6.74-7.23,10.54-6.16,18.25L227.33,76Z"/><path class="cls-3" d="M225.75,73.5a.32.32,0,0,1-.27-.16c-1.18-2.17-1.36-11.16.54-16.2,2.31-6.12,6.48-9.58,9.61-10.78a.31.31,0,0,1,.39.17.31.31,0,0,1-.18.4c-3,1.15-7,4.49-9.25,10.43-1.81,4.8-1.68,13.66-.58,15.69a.3.3,0,0,1-.12.41A.23.23,0,0,1,225.75,73.5Z"/><path class="cls-2" d="M237.39,85.93c.48-3.11.55-5,3.45-6.93s5.48-3.25,5.69-6-1.59-5.78-1.49-8.15,1.54-3.49,4.6-5.57,6.21-5.65,3.2-8.18-7.5-.18-9.54,1.59-3.7,2.42-6.84,1.59-6.2,1.33-5.45,5.33.36,5.82-2.16,5.68-6.23,2.48-3.26,8.51Z"/><path class="cls-3" d="M231,79.69h0a.3.3,0,0,1-.26-.34c1.44-12.07,13.42-25,18.87-26.92a.3.3,0,0,1,.38.19.29.29,0,0,1-.19.38c-5.32,1.85-17.05,14.56-18.46,26.42A.3.3,0,0,1,231,79.69Z"/><path class="cls-3" d="M236.2,66.36a.31.31,0,0,1-.29-.22,51.48,51.48,0,0,1-1.73-8.31.32.32,0,0,1,.27-.33.29.29,0,0,1,.33.27A51.28,51.28,0,0,0,236.49,66a.32.32,0,0,1-.2.38Z"/><path class="cls-3" d="M232.81,72.89a.3.3,0,0,1-.12-.58,15.81,15.81,0,0,1,10.71-.63.31.31,0,0,1,.19.39.31.31,0,0,1-.39.18,15.56,15.56,0,0,0-10.26.61A.28.28,0,0,1,232.81,72.89Z"/><polygon class="cls-1" points="151.83 12.77 137.08 4.26 122.34 12.77 137.08 21.29 151.83 12.77"/><polygon class="cls-4" points="137.08 38.32 151.83 29.8 151.83 12.77 137.08 21.29 137.08 38.32"/><path class="cls-3" d="M139.92,32.67a.43.43,0,0,1-.22-.06.67.67,0,0,1-.27-.61V30.2h0v-.13l.09,0,1.41-.84v2a1.64,1.64,0,0,1-.69,1.32A.68.68,0,0,1,139.92,32.67Zm-.27-2.34V32a.46.46,0,0,0,.17.42.29.29,0,0,0,.3,0,1.41,1.41,0,0,0,.59-1.12v-.15h-.53l-.1-.7Zm.73.56h.33V29.64l-.85.5.42.07Z"/><path class="cls-3" d="M140.18,34.11a.11.11,0,0,1-.11-.11V32.48a.11.11,0,0,1,.22,0V34A.11.11,0,0,1,140.18,34.11Z"/><path class="cls-3" d="M139.52,34.49a.11.11,0,0,1-.1-.06.11.11,0,0,1,0-.15l1.32-.76a.12.12,0,0,1,.16,0,.11.11,0,0,1-.05.15l-1.31.76Z"/><path class="cls-3" d="M144.21,31.88a.27.27,0,0,1-.12,0,.3.3,0,0,1-.14-.28v-.31a.12.12,0,0,1,.12-.11.11.11,0,0,1,.11.11v.31c0,.05,0,.08,0,.08s0,0,.08,0a.66.66,0,0,0,.21-.51v-2a.11.11,0,0,1,.11-.11.12.12,0,0,1,.12.11v2a.87.87,0,0,1-.33.71A.41.41,0,0,1,144.21,31.88Z"/><path class="cls-3" d="M143,30.12v-.2a3.21,3.21,0,0,1,1.45-2.51,1,1,0,0,1,1.57.9v.07Zm2.13-2.69a1.26,1.26,0,0,0-.57.17,3,3,0,0,0-1.32,2.12l2.55-1.48a.88.88,0,0,0-.35-.74A.64.64,0,0,0,145.15,27.43Z"/><path class="cls-3" d="M148.29,29.56a.11.11,0,0,1-.11-.12V25.58a.11.11,0,1,1,.22,0v3.86A.11.11,0,0,1,148.29,29.56Z"/><path class="cls-3" d="M148,26.46h-.05a.11.11,0,0,1-.06-.15l.41-.93.45.52a.12.12,0,0,1,0,.16.11.11,0,0,1-.16,0l-.22-.25-.26.6A.1.1,0,0,1,148,26.46Z"/><path class="cls-3" d="M149.34,29a.11.11,0,0,1-.11-.12V25a.11.11,0,0,1,.22,0v3.86A.11.11,0,0,1,149.34,29Z"/><path class="cls-3" d="M149,25.86h0a.11.11,0,0,1-.06-.14l.41-.94.45.52a.12.12,0,0,1,0,.16.11.11,0,0,1-.16,0l-.22-.25-.26.61A.11.11,0,0,1,149,25.86Z"/><polygon class="cls-5" points="137.08 38.32 122.33 29.8 122.34 12.77 137.08 21.29 137.08 38.32"/><polygon class="cls-3" points="130.51 17.49 145.25 8.97 143.58 8.01 128.84 16.53 130.51 17.49"/><path class="cls-2" d="M124.57,22.54l5.28,3.05a2.3,2.3,0,0,1,1.05,1.81v3.26c0,.67-.47.94-1.05.6l-5.28-3a2.35,2.35,0,0,1-1-1.82V23.14C123.53,22.47,124,22.2,124.57,22.54Z"/><polygon class="cls-2" points="124.17 23.35 124.37 23.47 124.37 27.09 124.17 26.97 124.17 23.35"/><polygon class="cls-2" points="124.98 23.82 125.33 24.03 125.33 27.64 124.98 27.44 124.98 23.82"/><polygon class="cls-2" points="125.8 24.3 126 24.41 126 28.03 125.8 27.91 125.8 24.3"/><polygon class="cls-2" points="126.41 24.64 126.82 24.88 126.81 28.5 126.41 28.26 126.41 24.64"/><polygon class="cls-2" points="127.43 25.24 127.63 25.35 127.63 28.97 127.43 28.85 127.43 25.24"/><polygon class="cls-2" points="128.02 25.57 128.45 25.82 128.45 29.44 128.02 29.19 128.02 25.57"/><polygon class="cls-2" points="129.06 26.18 129.26 26.3 129.26 29.91 129.06 29.8 129.06 26.18"/><polygon class="cls-2" points="129.53 26.44 129.63 26.5 129.63 30.12 129.53 30.06 129.53 26.44"/><polygon class="cls-2" points="128.69 25.98 128.79 26.04 128.79 29.66 128.69 29.6 128.69 25.98"/><polygon class="cls-2" points="127.05 25.02 127.15 25.08 127.15 28.69 127.05 28.64 127.05 25.02"/><polygon class="cls-2" points="126.15 24.5 126.25 24.56 126.25 28.18 126.15 28.12 126.15 24.5"/><polygon class="cls-2" points="125.5 24.14 125.6 24.2 125.6 27.82 125.5 27.76 125.5 24.14"/><polygon class="cls-2" points="124.62 23.61 124.72 23.67 124.72 27.29 124.62 27.23 124.62 23.61"/><polygon class="cls-2" points="129.88 26.65 130.08 26.77 130.08 30.38 129.88 30.27 129.88 26.65"/><polygon class="cls-1" points="132.16 9.94 114.96 0 97.75 9.94 114.96 19.87 132.16 9.94"/><polygon class="cls-3" points="107.58 15.61 124.79 5.68 123.12 4.71 105.91 14.65 107.58 15.61"/><polygon class="cls-4" points="114.96 51.09 132.16 41.16 132.16 9.94 114.96 19.87 114.96 51.09"/><path class="cls-3" d="M117.8,45.44a.4.4,0,0,1-.22,0,.68.68,0,0,1-.28-.62V43h0v-.14l.09,0,1.42-.83v2a1.62,1.62,0,0,1-.7,1.31A.64.64,0,0,1,117.8,45.44Zm-.27-2.34v1.67a.47.47,0,0,0,.16.42.34.34,0,0,0,.31,0,1.46,1.46,0,0,0,.58-1.12v-.15h-.52l-.11-.71Zm.72.56h.33V42.41l-.84.5.41.08Z"/><path class="cls-3" d="M118.05,46.88a.11.11,0,0,1-.11-.11V45.25a.11.11,0,0,1,.11-.11.11.11,0,0,1,.12.11v1.52A.11.11,0,0,1,118.05,46.88Z"/><path class="cls-3" d="M117.4,47.26a.12.12,0,0,1-.1,0,.11.11,0,0,1,0-.16l1.32-.76a.11.11,0,0,1,.15,0,.12.12,0,0,1,0,.16l-1.32.76Z"/><path class="cls-3" d="M122.09,44.65a.24.24,0,0,1-.12,0,.3.3,0,0,1-.14-.27V44a.11.11,0,0,1,.11-.12.12.12,0,0,1,.12.12v.31s0,.07,0,.07,0,0,.07,0a.64.64,0,0,0,.21-.51v-2a.12.12,0,0,1,.12-.12.11.11,0,0,1,.11.12v2a.87.87,0,0,1-.32.71A.31.31,0,0,1,122.09,44.65Z"/><path class="cls-3" d="M120.89,42.89v-.2a3.22,3.22,0,0,1,1.46-2.51,1.09,1.09,0,0,1,1.1-.1,1.11,1.11,0,0,1,.46,1v.07ZM123,40.2a1.11,1.11,0,0,0-.57.18,3,3,0,0,0-1.33,2.11L123.68,41a.81.81,0,0,0-.35-.74A.61.61,0,0,0,123,40.2Z"/><path class="cls-3" d="M126.16,42.33a.11.11,0,0,1-.11-.11V38.36a.11.11,0,0,1,.11-.12.12.12,0,0,1,.12.12v3.86A.11.11,0,0,1,126.16,42.33Z"/><path class="cls-3" d="M125.83,39.24h0a.11.11,0,0,1-.06-.15l.4-.94.45.53a.1.1,0,0,1,0,.15.1.1,0,0,1-.16,0l-.21-.24-.26.6A.12.12,0,0,1,125.83,39.24Z"/><path class="cls-3" d="M127.21,41.73a.11.11,0,0,1-.11-.11V37.76a.11.11,0,0,1,.11-.12.12.12,0,0,1,.12.12v3.86A.11.11,0,0,1,127.21,41.73Z"/><path class="cls-3" d="M126.88,38.64h0a.11.11,0,0,1-.06-.15l.4-.93.45.52a.11.11,0,1,1-.17.14l-.21-.24-.26.6A.12.12,0,0,1,126.88,38.64Z"/><polygon class="cls-5" points="114.96 51.09 97.75 41.16 97.75 9.94 114.96 19.87 114.96 51.09"/><path class="cls-1" d="M101.25,34.67l5.28,3a2.33,2.33,0,0,1,1,1.82v3.26c0,.66-.47.94-1,.6l-5.28-3a2.3,2.3,0,0,1-1-1.81V35.27C100.2,34.6,100.67,34.33,101.25,34.67Z"/><polygon class="cls-5" points="100.84 35.48 101.04 35.6 101.04 39.21 100.84 39.1 100.84 35.48"/><polygon class="cls-5" points="101.66 35.95 102 36.16 102 39.77 101.66 39.57 101.66 35.95"/><polygon class="cls-5" points="102.47 36.42 102.67 36.54 102.67 40.16 102.47 40.04 102.47 36.42"/><polygon class="cls-5" points="103.09 36.77 103.49 37.01 103.49 40.63 103.09 40.39 103.09 36.77"/><polygon class="cls-5" points="104.11 37.37 104.31 37.48 104.31 41.1 104.11 40.98 104.11 37.37"/><polygon class="cls-5" points="104.69 37.7 105.12 37.95 105.12 41.57 104.69 41.31 104.69 37.7"/><polygon class="cls-5" points="105.74 38.31 105.94 38.42 105.94 42.04 105.74 41.92 105.74 38.31"/><polygon class="cls-5" points="106.2 38.57 106.31 38.63 106.31 42.25 106.2 42.19 106.2 38.57"/><polygon class="cls-5" points="105.37 38.11 105.47 38.17 105.47 41.78 105.37 41.73 105.37 38.11"/><polygon class="cls-5" points="103.72 37.15 103.82 37.2 103.82 40.82 103.72 40.76 103.72 37.15"/><polygon class="cls-5" points="102.82 36.63 102.92 36.69 102.92 40.3 102.82 40.25 102.82 36.63"/><polygon class="cls-5" points="102.17 36.27 102.28 36.33 102.28 39.95 102.17 39.89 102.17 36.27"/><polygon class="cls-5" points="101.3 35.74 101.4 35.8 101.4 39.41 101.3 39.36 101.3 35.74"/><polygon class="cls-5" points="106.56 38.78 106.76 38.89 106.76 42.51 106.56 42.4 106.56 38.78"/><polygon class="cls-6" points="105.91 18.68 107.58 19.64 107.58 15.61 105.91 14.65 105.91 18.68"/><polygon class="cls-1" points="80.54 42.58 68.25 35.48 51.04 45.42 63.33 52.51 80.54 42.58"/><polygon class="cls-4" points="63.33 80.9 80.54 70.96 80.54 42.58 63.33 52.51 63.33 80.9"/><path class="cls-3" d="M66.17,75.25a.46.46,0,0,1-.22-.06.67.67,0,0,1-.27-.61v-1.8h0v-.13h.09l1.41-.83v2a1.64,1.64,0,0,1-.69,1.32A.68.68,0,0,1,66.17,75.25Zm-.27-2.34v1.67a.44.44,0,0,0,.17.41.29.29,0,0,0,.3,0A1.41,1.41,0,0,0,67,73.84v-.15h-.53l-.1-.71Zm.73.56H67V72.22l-.85.5.42.07Z"/><path class="cls-3" d="M66.43,76.69a.11.11,0,0,1-.11-.12V75.06a.11.11,0,0,1,.22,0v1.51A.11.11,0,0,1,66.43,76.69Z"/><path class="cls-3" d="M65.77,77.07a.11.11,0,0,1-.1-.06.11.11,0,0,1,0-.15L67,76.1a.11.11,0,1,1,.12.19l-1.32.76Z"/><path class="cls-3" d="M70.47,74.46a.28.28,0,0,1-.13,0,.32.32,0,0,1-.13-.28v-.31a.11.11,0,1,1,.22,0v.31a.1.1,0,0,0,0,.08l.07,0a.66.66,0,0,0,.21-.51v-2a.11.11,0,0,1,.11-.11.11.11,0,0,1,.12.11v2a.87.87,0,0,1-.33.71A.41.41,0,0,1,70.47,74.46Z"/><path class="cls-3" d="M69.27,72.69V72.5A3.23,3.23,0,0,1,70.72,70a1,1,0,0,1,1.57.91V71ZM71.4,70a1.09,1.09,0,0,0-.56.17,3,3,0,0,0-1.33,2.12l2.55-1.48a.86.86,0,0,0-.35-.74A.64.64,0,0,0,71.4,70Z"/><path class="cls-3" d="M74.54,72.14a.12.12,0,0,1-.11-.12V68.16a.11.11,0,1,1,.22,0V72A.12.12,0,0,1,74.54,72.14Z"/><path class="cls-3" d="M74.21,69h0a.11.11,0,0,1,0-.15l.4-.93.45.52a.11.11,0,0,1-.17.15l-.22-.25-.26.6A.1.1,0,0,1,74.21,69Z"/><path class="cls-3" d="M75.59,71.54a.11.11,0,0,1-.11-.12V67.56a.11.11,0,0,1,.22,0v3.86A.11.11,0,0,1,75.59,71.54Z"/><path class="cls-3" d="M75.26,68.44h-.05a.12.12,0,0,1-.06-.15l.41-.93.45.52A.12.12,0,0,1,76,68a.11.11,0,0,1-.16,0l-.22-.25-.26.6A.1.1,0,0,1,75.26,68.44Z"/><polygon class="cls-5" points="63.33 80.9 51.04 73.8 51.04 45.42 63.33 52.51 63.33 80.9"/><polygon class="cls-1" points="56.75 52.74 58.42 53.7 58.42 49.67 56.75 48.71 56.75 52.74"/><polygon class="cls-3" points="58.42 49.68 75.62 39.74 73.96 38.78 56.75 48.71 58.42 49.68"/><polygon class="cls-1" points="58.42 66.71 36.29 53.93 14.17 66.71 36.29 79.48 58.42 66.71"/><polygon class="cls-4" points="36.29 96.51 58.42 83.74 58.42 66.71 36.29 79.48 36.29 96.51"/><path class="cls-3" d="M39.13,90.86a.43.43,0,0,1-.22-.06.67.67,0,0,1-.27-.61v-1.8h0v-.13l.09,0,1.41-.83v2a1.63,1.63,0,0,1-.69,1.32A.68.68,0,0,1,39.13,90.86Zm-.27-2.34v1.67a.45.45,0,0,0,.17.42.29.29,0,0,0,.3,0,1.41,1.41,0,0,0,.59-1.12V89.3h-.53l-.1-.7Zm.73.56h.33V87.83l-.85.5.42.07Z"/><path class="cls-3" d="M39.39,92.3a.11.11,0,0,1-.11-.11V90.67a.11.11,0,0,1,.22,0v1.52A.11.11,0,0,1,39.39,92.3Z"/><path class="cls-3" d="M38.73,92.68a.11.11,0,0,1-.1-.06.11.11,0,0,1,0-.15L40,91.71a.12.12,0,0,1,.16,0,.11.11,0,0,1,0,.15l-1.31.77Z"/><path class="cls-3" d="M43.43,90.07a.28.28,0,0,1-.13,0,.29.29,0,0,1-.13-.27v-.32a.11.11,0,0,1,.22,0v.32a.14.14,0,0,0,0,.07s0,0,.08,0a.66.66,0,0,0,.21-.51v-2a.11.11,0,0,1,.11-.11.12.12,0,0,1,.12.11v2a.87.87,0,0,1-.33.71A.41.41,0,0,1,43.43,90.07Z"/><path class="cls-3" d="M42.23,88.31v-.2a3.21,3.21,0,0,1,1.45-2.51,1,1,0,0,1,1.57.9v.07Zm2.13-2.69a1.26,1.26,0,0,0-.57.17,3,3,0,0,0-1.32,2.12L45,86.44a.85.85,0,0,0-.35-.74A.55.55,0,0,0,44.36,85.62Z"/><path class="cls-3" d="M47.5,87.75a.11.11,0,0,1-.11-.12V83.77a.11.11,0,0,1,.22,0v3.86A.11.11,0,0,1,47.5,87.75Z"/><path class="cls-3" d="M47.17,84.65h-.05a.12.12,0,0,1-.06-.15l.41-.93.45.52a.12.12,0,0,1,0,.16.11.11,0,0,1-.16,0L47.53,84l-.26.61A.11.11,0,0,1,47.17,84.65Z"/><path class="cls-3" d="M48.55,87.15a.11.11,0,0,1-.11-.11V83.17a.11.11,0,0,1,.22,0V87A.11.11,0,0,1,48.55,87.15Z"/><path class="cls-3" d="M48.22,84.05h0a.12.12,0,0,1-.06-.15l.41-.94.45.52a.12.12,0,0,1,0,.16.11.11,0,0,1-.16,0l-.22-.25-.26.61A.11.11,0,0,1,48.22,84.05Z"/><polygon class="cls-5" points="36.29 96.51 14.17 83.74 14.17 66.71 36.29 79.48 36.29 96.51"/><polygon class="cls-1" points="24.4 76.64 26.06 77.6 26.06 73.58 24.4 72.61 24.4 76.64"/><polygon class="cls-3" points="26.06 73.58 48.19 60.8 46.52 59.84 24.4 72.61 26.06 73.58"/><path class="cls-1" d="M17.67,77.25l5.28,3A2.33,2.33,0,0,1,24,82.11v3.26c0,.66-.47.94-1.05.6l-5.28-3a2.29,2.29,0,0,1-1-1.81V77.85C16.63,77.18,17.1,76.91,17.67,77.25Z"/><polygon class="cls-5" points="17.27 78.06 17.47 78.18 17.47 81.79 17.27 81.68 17.27 78.06"/><polygon class="cls-5" points="18.08 78.53 18.43 78.73 18.43 82.35 18.08 82.15 18.08 78.53"/><polygon class="cls-5" points="18.9 79 19.1 79.12 19.1 82.74 18.9 82.62 18.9 79"/><polygon class="cls-5" points="19.51 79.35 19.91 79.59 19.91 83.21 19.51 82.97 19.51 79.35"/><polygon class="cls-5" points="20.53 79.94 20.73 80.06 20.73 83.68 20.53 83.56 20.53 79.94"/><polygon class="cls-5" points="21.12 80.28 21.55 80.53 21.55 84.15 21.12 83.89 21.12 80.28"/><polygon class="cls-5" points="22.16 80.89 22.36 81 22.36 84.62 22.16 84.5 22.16 80.89"/><polygon class="cls-5" points="22.63 81.15 22.73 81.21 22.73 84.83 22.63 84.77 22.63 81.15"/><polygon class="cls-5" points="21.79 80.69 21.89 80.75 21.89 84.37 21.79 84.31 21.79 80.69"/><polygon class="cls-5" points="20.15 79.73 20.25 79.78 20.25 83.4 20.15 83.34 20.15 79.73"/><polygon class="cls-5" points="19.25 79.21 19.35 79.27 19.35 82.89 19.25 82.83 19.25 79.21"/><polygon class="cls-5" points="18.6 78.85 18.7 78.91 18.7 82.53 18.6 82.47 18.6 78.85"/><polygon class="cls-5" points="17.72 78.32 17.82 78.38 17.82 82 17.72 81.94 17.72 78.32"/><polygon class="cls-5" points="22.98 81.36 23.18 81.47 23.18 85.09 22.98 84.98 22.98 81.36"/><polygon class="cls-1" points="53.5 32.64 36.29 22.71 19.08 32.64 36.29 42.58 53.5 32.64"/><polygon class="cls-4" points="36.29 76.64 53.5 66.71 53.5 32.64 36.29 42.58 36.29 76.64"/><path class="cls-3" d="M39.13,71a.43.43,0,0,1-.22-.06.67.67,0,0,1-.27-.61v-1.8h0v-.13l.09,0,1.41-.83v2a1.63,1.63,0,0,1-.69,1.32A.68.68,0,0,1,39.13,71Zm-.27-2.34v1.67a.45.45,0,0,0,.17.42.29.29,0,0,0,.3,0,1.41,1.41,0,0,0,.59-1.12v-.15h-.53l-.1-.7Zm.73.56h.33V68l-.85.5.42.07Z"/><path class="cls-3" d="M39.39,72.43a.11.11,0,0,1-.11-.11V70.8a.11.11,0,0,1,.22,0v1.52A.11.11,0,0,1,39.39,72.43Z"/><path class="cls-3" d="M38.73,72.81a.11.11,0,0,1-.1-.06.11.11,0,0,1,0-.15L40,71.84a.13.13,0,0,1,.16,0,.12.12,0,0,1,0,.16l-1.31.76Z"/><path class="cls-3" d="M43.43,70.2a.28.28,0,0,1-.13,0,.29.29,0,0,1-.13-.27v-.32a.11.11,0,0,1,.22,0v.32a.14.14,0,0,0,0,.07s0,0,.08,0a.66.66,0,0,0,.21-.51v-2a.11.11,0,0,1,.11-.11.12.12,0,0,1,.12.11v2a.87.87,0,0,1-.33.71A.41.41,0,0,1,43.43,70.2Z"/><path class="cls-3" d="M42.23,68.44v-.2a3.21,3.21,0,0,1,1.45-2.51,1,1,0,0,1,1.57.9v.07Zm2.13-2.69a1.26,1.26,0,0,0-.57.17A3,3,0,0,0,42.47,68L45,66.57a.85.85,0,0,0-.35-.74A.55.55,0,0,0,44.36,65.75Z"/><path class="cls-3" d="M47.5,67.88a.11.11,0,0,1-.11-.12V63.9a.11.11,0,0,1,.22,0v3.86A.11.11,0,0,1,47.5,67.88Z"/><path class="cls-3" d="M47.17,64.78h-.05a.12.12,0,0,1-.06-.15l.41-.93.45.52a.12.12,0,0,1,0,.16.11.11,0,0,1-.16,0l-.22-.25-.26.61A.11.11,0,0,1,47.17,64.78Z"/><path class="cls-3" d="M48.55,67.28a.11.11,0,0,1-.11-.11V63.3a.11.11,0,0,1,.22,0v3.87A.11.11,0,0,1,48.55,67.28Z"/><path class="cls-3" d="M48.22,64.18h0a.12.12,0,0,1-.06-.15l.41-.94.45.52a.12.12,0,0,1,0,.16.11.11,0,0,1-.16,0l-.22-.24-.26.6A.11.11,0,0,1,48.22,64.18Z"/><polygon class="cls-5" points="36.29 76.64 19.09 66.71 19.08 32.64 36.29 42.58 36.29 76.64"/><polygon class="cls-1" points="27.25 41.39 28.92 42.35 28.92 38.32 27.25 37.36 27.25 41.39"/><polygon class="cls-3" points="28.92 38.32 46.13 28.39 44.46 27.42 27.25 37.36 28.92 38.32"/><path class="cls-1" d="M22.59,60.21l5.27,3a2.33,2.33,0,0,1,1.05,1.82v3.25c0,.67-.47.94-1.05.61l-5.27-3a2.31,2.31,0,0,1-1.05-1.81V60.82C21.54,60.15,22,59.88,22.59,60.21Z"/><polygon class="cls-5" points="22.18 61.03 22.38 61.14 22.38 64.76 22.18 64.64 22.18 61.03"/><polygon class="cls-5" points="22.99 61.5 23.34 61.7 23.34 65.32 22.99 65.11 22.99 61.5"/><polygon class="cls-5" points="23.81 61.97 24.01 62.09 24.01 65.7 23.81 65.59 23.81 61.97"/><polygon class="cls-5" points="24.43 62.32 24.83 62.56 24.83 66.17 24.43 65.94 24.43 62.32"/><polygon class="cls-5" points="25.44 62.91 25.64 63.03 25.64 66.64 25.44 66.53 25.44 62.91"/><polygon class="cls-5" points="26.03 63.24 26.46 63.5 26.46 67.12 26.03 66.86 26.03 63.24"/><polygon class="cls-5" points="27.07 63.85 27.28 63.97 27.28 67.59 27.07 67.47 27.07 63.85"/><polygon class="cls-5" points="27.54 64.12 27.64 64.18 27.64 67.79 27.54 67.74 27.54 64.12"/><polygon class="cls-5" points="26.7 63.66 26.8 63.72 26.8 67.33 26.7 67.27 26.7 63.66"/><polygon class="cls-5" points="25.06 62.69 25.16 62.75 25.16 66.37 25.06 66.31 25.06 62.69"/><polygon class="cls-5" points="24.16 62.18 24.26 62.23 24.26 65.85 24.16 65.79 24.16 62.18"/><polygon class="cls-5" points="23.51 61.82 23.61 61.88 23.61 65.5 23.51 65.44 23.51 61.82"/><polygon class="cls-5" points="22.63 61.29 22.73 61.34 22.73 64.96 22.63 64.9 22.63 61.29"/><polygon class="cls-5" points="27.89 64.33 28.09 64.44 28.09 68.06 27.89 67.94 27.89 64.33"/><path class="cls-7" d="M19.25,126.41l66,38.13a5.76,5.76,0,0,0,5.24,0L235.25,81c1.45-.83,1.45-2.19,0-3L169.2,39.84a5.76,5.76,0,0,0-5.24,0L19.25,123.38C17.8,124.22,17.8,125.58,19.25,126.41Z"/><path class="cls-8" d="M54.94,144.12a8,8,0,0,0,7.28,0c2-1.16,2-3,0-4.2a8,8,0,0,0-7.28,0C52.93,141.08,52.93,143,54.94,144.12Z"/><path class="cls-9" d="M86.5,164.54l-66-38.13c-1.3-.75-1.43-1.91-.41-2.74a5.85,5.85,0,0,0-2.21,4.25v2.47a5.8,5.8,0,0,0,2.62,4.54l66,38.13a5.48,5.48,0,0,0,2.62.62v-8.51A5.37,5.37,0,0,1,86.5,164.54Z"/><path class="cls-8" d="M235.25,89.51A5.8,5.8,0,0,0,237.87,85V82.51a5.87,5.87,0,0,0-2.21-4.26c1,.83.89,2-.41,2.74L90.53,164.54a5.32,5.32,0,0,1-2.62.63v8.51a5.42,5.42,0,0,0,2.62-.62Z"/><path class="cls-3" d="M96.18,156.64,33,120.12a1,1,0,0,1,0-1.81l122.2-70.57a3.47,3.47,0,0,1,3.14,0l63.24,36.51a1,1,0,0,1,0,1.82L99.32,156.64A3.47,3.47,0,0,1,96.18,156.64Z"/><polygon class="cls-2" points="70.71 136.25 78.08 131.99 75.63 130.57 68.25 134.83 70.71 136.25"/><polygon class="cls-2" points="159.21 85.16 166.58 80.9 164.12 79.48 156.75 83.74 159.21 85.16"/><polygon class="cls-2" points="173.96 76.64 181.33 72.38 178.87 70.97 171.5 75.22 173.96 76.64"/><path class="cls-8" d="M197.63,61.72a2,2,0,0,0,1.84,0,.56.56,0,0,0,0-1.06,2,2,0,0,0-1.84,0A.56.56,0,0,0,197.63,61.72Z"/><path class="cls-8" d="M200.58,70.08a4,4,0,0,0,3.68,0,1.12,1.12,0,0,0,0-2.13,4.11,4.11,0,0,0-3.68,0A1.12,1.12,0,0,0,200.58,70.08Z"/><path class="cls-8" d="M198,66.38c.68-.39.64-1-.08-1.47l-12.13-7a2.81,2.81,0,0,0-2.54,0c-.68.39-.65,1,.08,1.47l12.13,7A2.81,2.81,0,0,0,198,66.38Z"/><path class="cls-2" d="M177.34,38l.41-.24a11.39,11.39,0,0,0-.41,3.17v1.48c0,5.3,6.36,18.84,8.7,23.64.24.5-3,3.92-3,3.92l3.82-2.21s9.54-7.84,9.54-14.33V51.94c0-6.49-4.27-14.22-9.54-17.27-2.66-1.53-5.07-1.58-6.8-.42h0l-3.62,2.08Zm4.77,5c0-3,2.14-4.28,4.78-2.75-.22,2,3.35,8,4.77,8.26,0,3-2.14,4.28-4.77,2.76A10.54,10.54,0,0,1,182.11,42.94Z"/><path class="cls-2" d="M173.39,44.75c.1,6.49,10,25.2,10,25.2s9.42-8,9.31-14.49l0-1.48c-.1-6.49-4.5-14.14-9.82-17.1s-9.55-.09-9.45,6.4Zm4.78.48c0-3,2.07-4.32,4.73-2.84a10.56,10.56,0,0,1,4.9,8.19c0,3-2.06,4.31-4.72,2.83A10.55,10.55,0,0,1,178.17,45.23Z"/><path class="cls-10" d="M173.39,44.75c.1,6.49,10,25.2,10,25.2s9.42-8,9.31-14.49l0-1.48c-.1-6.49-4.5-14.14-9.82-17.1s-9.55-.09-9.45,6.4Zm4.78.48c0-3,2.07-4.32,4.73-2.84a10.56,10.56,0,0,1,4.9,8.19c0,3-2.06,4.31-4.72,2.83A10.55,10.55,0,0,1,178.17,45.23Z"/><path class="cls-6" d="M81.1,131.28c6.11,3.52,20.46,1,32-5.73l31.8-18.35c11.58-6.69,16-15,9.86-18.47s-20.48-1-32.06,5.74L91,112.79C79.41,119.48,75,127.75,81.1,131.28Z"/><polygon class="cls-2" points="85.46 127.74 92.83 123.48 90.38 122.06 83 126.32 85.46 127.74"/><polygon class="cls-2" points="100.21 119.22 107.58 114.96 105.13 113.54 97.75 117.8 100.21 119.22"/><path class="cls-8" d="M97.18,117.5a12.29,12.29,0,0,1-5.58,9.66c-1.64,1-3.11,1-4.13.27h0a3.64,3.64,0,0,1-1.4-2.68c.2-.09.41-.2.62-.32a12.3,12.3,0,0,0,5.57-9.66,6.63,6.63,0,0,0,0-.79,3.74,3.74,0,0,1,3-.22C96.44,114.25,97.18,115.56,97.18,117.5Z"/><path class="cls-9" d="M97.68,110.18l-.1-.06c-1.55-.83-3.66-.67-6,.67-4.75,2.74-8.6,9.41-8.6,14.9,0,2.76,1,4.69,2.55,5.59s3.69.74,6-.62c4.76-2.74,8.6-9.42,8.6-14.91C100.2,113,99.24,111.07,97.68,110.18Zm-6.08,17c-1.64,1-3.12,1-4.13.26A4,4,0,0,1,86,123.94a12.33,12.33,0,0,1,5.57-9.66,4.13,4.13,0,0,1,3.67-.53c1.17.5,1.91,1.81,1.91,3.75A12.29,12.29,0,0,1,91.6,127.16Z"/><path class="cls-2" d="M95.54,113.89l-.06,0a4,4,0,0,0-3.88.43A12.32,12.32,0,0,0,86,123.94c0,1.79.63,3,1.65,3.62a3.93,3.93,0,0,0,3.92-.4,12.33,12.33,0,0,0,5.58-9.66A3.91,3.91,0,0,0,95.54,113.89Zm-3.94,12a3,3,0,0,1-3.32.21,3.27,3.27,0,0,1-1.16-2.8,9.93,9.93,0,0,1,4.48-7.77,3.35,3.35,0,0,1,3-.43,3,3,0,0,1,1.54,3A9.91,9.91,0,0,1,91.6,125.9Z"/><polygon class="cls-2" points="114.96 110.7 122.33 106.45 119.87 105.03 112.5 109.28 114.96 110.7"/><polygon class="cls-2" points="129.71 102.19 137.08 97.93 134.62 96.51 127.25 100.77 129.71 102.19"/><polygon class="cls-2" points="144.46 93.67 151.83 89.42 149.37 88 142 92.25 144.46 93.67"/><path class="cls-2" d="M107.76,54.08c.48-.42,1-.25,1.09.38a2.23,2.23,0,0,1-.67,1.89c-.48.41-1,.24-1.09-.39A2.18,2.18,0,0,1,107.76,54.08Z"/><polygon class="cls-2" points="113.43 56.75 108.5 53.9 107.42 56.51 112.36 59.36 113.43 56.75"/><path class="cls-2" d="M112.67,56.91c.49-.41,1-.24,1.09.39a2.22,2.22,0,0,1-.66,1.89c-.49.41-1,.24-1.09-.39A2.23,2.23,0,0,1,112.67,56.91Z"/><path class="cls-7" d="M150.58,80.78c0,.12,0,.23,0,.35s0,.49,0,.74a4.11,4.11,0,0,0-3.66.53,12.34,12.34,0,0,0-5.58,9.66,4,4,0,0,0,1.44,3.48c-.26.18-.52.35-.78.5l-.29.14-.85,3.22-4.94-2.76c-1.56-.9-2.52-2.82-2.52-5.57,0-5.49,3.85-12.16,8.6-14.91,2.34-1.35,4.47-1.49,6-.63h0l4.87,2.71.1.06Z"/><path class="cls-9" d="M153,78.3l-.1-.06c-1.55-.82-3.66-.67-6,.67-4.75,2.74-8.61,9.41-8.61,14.9,0,2.76,1,4.69,2.55,5.59s3.7.74,6.06-.62c4.75-2.74,8.6-9.42,8.6-14.91C155.52,81.13,154.55,79.2,153,78.3Zm-6.07,17c-1.65,1-3.13,1-4.14.26a4,4,0,0,1-1.44-3.48,12.34,12.34,0,0,1,5.58-9.66,4.11,4.11,0,0,1,3.66-.53c1.17.5,1.91,1.82,1.91,3.75A12.3,12.3,0,0,1,146.92,95.28Z"/><path class="cls-8" d="M152.49,85.62a12.3,12.3,0,0,1-5.57,9.66c-1.64,1-3.12,1-4.14.27h0a3.64,3.64,0,0,1-1.4-2.68c.2-.09.41-.2.62-.32a12.31,12.31,0,0,0,5.58-9.66,6.56,6.56,0,0,0-.05-.79,3.74,3.74,0,0,1,3.05-.22C151.75,82.37,152.49,83.69,152.49,85.62Z"/><path class="cls-2" d="M150.85,82l-.06,0a4,4,0,0,0-3.88.44,12.33,12.33,0,0,0-5.57,9.65,3.4,3.4,0,0,0,5.57,3.23,12.35,12.35,0,0,0,5.58-9.67C152.49,83.84,151.87,82.59,150.85,82Zm-3.93,12a3,3,0,0,1-3.33.21,3.26,3.26,0,0,1-1.16-2.8,9.91,9.91,0,0,1,4.49-7.76,3.26,3.26,0,0,1,2.94-.43,3,3,0,0,1,1.54,3A9.91,9.91,0,0,1,146.92,94Z"/><path class="cls-2" d="M142,87.43l13.92-8c1.62-.93-3.66-6.41-7.54-6.78a15.06,15.06,0,0,0-6.38.63s3,3.81,2.46,6S142,87.43,142,87.43Z"/><path class="cls-2" d="M122.33,64.72s20.18,10.18,21,10.79,0,7.71-1.38,11.92-3.52,10.68-4.37,12.52-2,2.5-4,3.68L119.08,112,99.43,114.4l-7.81-4.26,2-12.77s20.9-11.12,23.76-12.78S128.74,75.21,122.33,64.72Z"/><path class="cls-11" d="M122.33,64.72s20.18,10.18,21,10.79,0,7.71-1.38,11.92-3.52,10.68-4.37,12.52-2,2.5-4,3.68L119.08,112,99.43,114.4l-7.81-4.26,2-12.77s20.9-11.12,23.76-12.78S128.74,75.21,122.33,64.72Z"/><path class="cls-2" d="M143.77,85c1.8-4.88,3.17-8.93,2.94-11.65-.28-3.24-1.49-5.89-6.83-7.22a64,64,0,0,0-12.82-1.31l-2.27,1.31S140.14,75,141.88,76c1.06.59,2.2,3.27.12,11.42l.35.21C142.55,87.75,143.19,86.58,143.77,85Z"/><path class="cls-12" d="M143.77,85c1.8-4.88,3.17-8.93,2.94-11.65-.28-3.24-1.49-5.89-6.83-7.22a64,64,0,0,0-12.82-1.31l-2.27,1.31S140.14,75,141.88,76c1.06.59,2.2,3.27.12,11.42l.35.21C142.55,87.75,143.19,86.58,143.77,85Z"/><path class="cls-2" d="M132.14,70.4,134.62,69s-.14-8.6-3.76-10.69-15.9-.66-15.9-.66l-2.46,1.42Z"/><path class="cls-6" d="M124.09,60.26a1.31,1.31,0,0,0,0,2.47,4.72,4.72,0,0,0,4.27,0,1.3,1.3,0,0,0,0-2.47A4.72,4.72,0,0,0,124.09,60.26Z"/><path class="cls-6" d="M127.87,64.37a.92.92,0,0,0,0,1.74,3.35,3.35,0,0,0,3,0,.92.92,0,0,0,0-1.74A3.35,3.35,0,0,0,127.87,64.37Z"/><path class="cls-6" d="M118.36,59.16a.92.92,0,0,0,0,1.74,3.29,3.29,0,0,0,3,0,.92.92,0,0,0,0-1.74A3.35,3.35,0,0,0,118.36,59.16Z"/><path class="cls-2" d="M132.5,67.9c.48-.41,1-.24,1.09.39a2.18,2.18,0,0,1-.67,1.88c-.48.42-1,.25-1.09-.38A2.23,2.23,0,0,1,132.5,67.9Z"/><polygon class="cls-2" points="138.17 70.58 133.24 67.73 132.16 70.33 137.11 73.19 138.17 70.58"/><path class="cls-2" d="M137.41,70.74c.49-.41,1-.24,1.09.38a2.21,2.21,0,0,1-.66,1.89c-.48.42-1,.25-1.09-.38A2.22,2.22,0,0,1,137.41,70.74Z"/><path d="M137.41,70.74c.49-.41,1-.24,1.09.38a2.21,2.21,0,0,1-.66,1.89c-.48.42-1,.25-1.09-.38A2.22,2.22,0,0,1,137.41,70.74Z"/><path class="cls-7" d="M95.27,112.66c0,.12,0,.23,0,.35s0,.49,0,.74a4.13,4.13,0,0,0-3.67.53A12.33,12.33,0,0,0,86,123.94a4,4,0,0,0,1.44,3.48c-.26.18-.52.35-.79.5l-.28.14-.85,3.22-4.94-2.76c-1.56-.9-2.52-2.82-2.52-5.57,0-5.49,3.84-12.16,8.59-14.91,2.35-1.35,4.48-1.49,6-.63h0l4.87,2.71.1.06Z"/><polygon class="cls-2" points="80.54 103.04 76.85 115.82 84.23 120.08 88.05 107.38 80.54 103.04"/><polygon class="cls-11" points="80.54 103.04 76.85 115.82 84.23 120.08 88.05 107.38 80.54 103.04"/><path class="cls-2" d="M80.54,103s4.18,3.53,7.51,4.34c4.37,1.06,11.31,1.17,13.78,1.34,3.77.26,6.61.26,7.94-.22a78.67,78.67,0,0,0,7.64-4c2.46-1.42,3.51-7-3.27-8.51a67.77,67.77,0,0,0-13.93-1.42Z"/><path class="cls-9" d="M122.22,101.41a6.66,6.66,0,0,0-.42,1.63,3.72,3.72,0,0,0-.13,1.81,3.62,3.62,0,0,0,2,1.59,4.57,4.57,0,0,0,3.59-.7,15,15,0,0,1,4-2.16,9,9,0,0,0,3.51-1.59c1-.8,2.31-3,.42-3.49s-6,1.28-9.73,1.44Z"/><path class="cls-13" d="M122.22,99.07v2.8a1.81,1.81,0,0,0,1.49,1.18,1.84,1.84,0,0,0,.9-.1,2.51,2.51,0,0,0,1.6-2.22l.11-1.66Z"/><path class="cls-9" d="M127.57,81.77c0,3.49-1,18.53-1,18.53s-1.43,1.8-4.52,0l-1-16.8Z"/><path class="cls-2" d="M111.35,96.61,121,91a2.84,2.84,0,0,0,1.31-2.18A2.8,2.8,0,0,0,121,86.68l-7.21-4.17a2.88,2.88,0,0,0-2.62,0l-9.68,5.59a2.47,2.47,0,0,0,0,4.35l7.21,4.16A2.88,2.88,0,0,0,111.35,96.61Z"/><path class="cls-3" d="M111.35,96.61,121,91a2.84,2.84,0,0,0,1.31-2.18A2.8,2.8,0,0,0,121,86.68l-7.21-4.17a2.88,2.88,0,0,0-2.62,0l-9.68,5.59a2.47,2.47,0,0,0,0,4.35l7.21,4.16A2.88,2.88,0,0,0,111.35,96.61Z"/><path class="cls-2" d="M101.52,89.61l7.21,4.16a2.88,2.88,0,0,0,2.62,0L121,88.19a.8.8,0,0,0,0-1.51l-7.21-4.17a2.88,2.88,0,0,0-2.62,0l-9.68,5.59C100.79,88.51,100.79,89.19,101.52,89.61Z"/><polygon class="cls-13" points="107.41 52.57 106.19 57.63 100.91 57.95 102.05 50.94 107.41 52.57"/><path class="cls-14" d="M112.53,48.75s.57,2.15.36,2.27a3.62,3.62,0,0,1-1.15,0Z"/><path class="cls-13" d="M111.55,41.92c.85,1,1.62,2.64,1,6.64-.65,4.4-1.46,4.9-2.12,5.33-.85.55-4.26.26-5.23-.44a11,11,0,0,1-3.36-6.15c-.5-3.09.54-6.52,2.81-7.11A7.68,7.68,0,0,1,111.55,41.92Z"/><path class="cls-7" d="M101.52,52.36c.81.84,2.49,1.08,3.54,1.27s4.29.4,5.25-1.9.3-4,1.48-4.52A19.63,19.63,0,0,0,114.44,46c.31-.31.32-4.08-2.84-6s-8-2.44-11.16,1.57C98,44.59,99,49.76,101.52,52.36Z"/><path class="cls-9" d="M104.68,53.66c.82.07,3.4-.34,4.18-1.4a9.13,9.13,0,0,0,1.19-4,1.72,1.72,0,0,1,1.4-1.65c.77-.25,2.5-1.1,2.5-1.1v-.47a14.58,14.58,0,0,1,1.67,0c.37.07.17.6-.75,1.08s-3.44,1.37-3.83,1.67-.57,1.61-.88,3S109,54.27,104.68,53.66Z"/><path class="cls-14" d="M112,59.36l3-1.73c.28-.88-.18-1.32-1-1.27s-.56-.74-1.06-1c-.67-.3-1-.13-1.33-.27s-.43-.49-.81-.53c-1.73-.16-2.92,2.3-2.92,2.3Z"/><path class="cls-9" d="M91.41,81.61S104.78,75,107.12,73.9s6-2.63,7.92-2.62a3.16,3.16,0,0,1,2.9,3,22.56,22.56,0,0,1-.2,3.49,84,84,0,0,1-11.21,2.87A124.86,124.86,0,0,1,91.41,81.61Z"/><path class="cls-7" d="M92.87,77.78c0,2.75-.26,5.6.88,7.61s7.34,6.67,13.18,5.69c3.81-.65,15.13-5.86,15.13-5.86s5.48-2,5.51-3.45c0-2.11-.11-5.08-4.9-5-4.36.12-17.23,2.8-17.23,2.8Z"/><path class="cls-7" d="M96.6,56c2.07-2.16,3.47-2.34,4.46-2.08a35.56,35.56,0,0,1,6.59,2.64h0s-.8,7.74,3,10v12a4.17,4.17,0,0,1-1.76,2.61c-1.45,1.14-4.73,2.3-8.66,2-4.66-.38-7.34-5.39-7.34-5.39s-.12-9.86.54-13.77C94.18,59.44,95.89,56.76,96.6,56Z"/><path class="cls-9" d="M110.63,67.12a9.68,9.68,0,0,1-3-4.17s.27,3.7,3,5.58Z"/><path class="cls-13" d="M131.81,72.81a4.73,4.73,0,0,0,3-.93s1.06-2,2.35-1.88c0,0,.23-.87-.31-1.15s-.76-.21-1-.51-.25-.87-1.19-.87c-.4,0-.34-.28-1.31-.4s-1.93,2.12-2.64,2.12Z"/><path class="cls-7" d="M107.65,56.57a9.2,9.2,0,0,1,5.74,2.63c1.26,1.17,8.62,8.55,8.62,8.55L131,69a3,3,0,0,1,1,1.47,2.68,2.68,0,0,1-.31,2.48s-8.9.53-10.64.2S110.6,67.1,110.6,67.1a7.74,7.74,0,0,1-3-5.22C107,58.23,107.65,56.57,107.65,56.57Z"/><path class="cls-2" d="M99.68,88.54,85.92,105.32l-.46,0a3.31,3.31,0,0,1-1.57-.37L72.28,98.27l-.79-.45a3,3,0,0,1-.78-2.27V92.73A16.54,16.54,0,0,1,79,78.4l13.86-8,14.75,8.51Z"/><g class="cls-15"><path d="M99.68,88.54,85.92,105.32l-.46,0a3.31,3.31,0,0,1-1.57-.37L72.28,98.27l-.79-.45a3,3,0,0,1-.78-2.27V92.73A16.54,16.54,0,0,1,79,78.4l13.86-8,14.75,8.51Z"/></g><path class="cls-2" d="M94.94,94.33l12.64-15.41L92.83,70.4,79,78.4a16.58,16.58,0,0,0-4.66,4Z"/><path class="cls-2" d="M107.58,91.29a3,3,0,0,1-.78,2.27L106,94,87,105a3,3,0,0,1-1.11.35l-.46,0v-4.11a16.52,16.52,0,0,1,8.27-14.32L95.3,86l12.28-7.1Z"/><g class="cls-16"><path d="M107.58,91.29a3,3,0,0,1-.78,2.27L106,94,87,105a3,3,0,0,1-1.11.35l-.46,0v-4.11a16.52,16.52,0,0,1,8.27-14.32L95.3,86l12.28-7.1Z"/></g><polygon class="cls-5" points="111.65 112.05 119.08 112.02 129.71 105.88 129.71 105.88 119.29 113.41 111.46 113.52 111.65 112.05"/><path class="cls-5" d="M93.62,122.61s13.39-5,14.51-5.64a28.85,28.85,0,0,0,3.79-2.76,1.6,1.6,0,0,0-.19-2.16s-5.46-.25-6.85.17L91.5,116.5Z"/><path class="cls-7" d="M93,117c-1.1-1-2.22-.56-2.49.88a5,5,0,0,0,1.52,4.31c1.11,1,2.22.56,2.49-.88A5,5,0,0,0,93,117Z"/></g></g></svg>