<svg xmlns="http://www.w3.org/2000/svg" viewBox="0 0 145.92 127.61"><defs><style>.cls-1{fill:#f1f1f1;}.cls-2{fill:#ccc;}</style></defs><title>scan_id2</title><g id="Layer_2" data-name="Layer 2"><g id="Layer_1-2" data-name="Layer 1"><path class="cls-1" d="M98.78,107.6C58,125.45,10.31,120.42,1.47,99.89S25.29,44,53.14,30.37c19.36-9.46,60.06-21.71,84.63-7C157.76,35.26,139.52,89.75,98.78,107.6Z"/><path class="cls-2" d="M10,19.71c.23-3.87.39-7.75.69-11.61C11,4,14.24,1,18.53.53A125.61,125.61,0,0,1,38.78.32c2.49.15,5,.44,7.46.75A3.94,3.94,0,0,1,50,4.69a25.26,25.26,0,0,1,0,5.83,4.18,4.18,0,0,1-4,3.57c-4.57.32-9.15.58-13.73.85-1.29.08-2.59.12-3.88.21a3.62,3.62,0,0,0-3.2,3.32c-.27,5-.52,10-.79,15a16.8,16.8,0,0,1-.32,2.85c-.49,2-1.68,3.55-3.86,3.75A22.18,22.18,0,0,1,14.92,40c-2.34-.35-3.44-1.58-3.76-3.9s-.65-4.8-.75-7.21c-.13-3,0-6.09,0-9.14Z"/><path class="cls-2" d="M138,108.23c-.31,4.11-.43,8.25-1,12.32a7.75,7.75,0,0,1-7.47,6.59c-5.17.23-10.34.53-15.51.46-4,0-8.06-.53-12.08-1-2.52-.26-3.79-1.45-4.11-4a22.17,22.17,0,0,1,.06-5.58,4.2,4.2,0,0,1,3.93-3.47c4.41-.33,8.82-.58,13.24-.85,1.45-.09,2.91-.12,4.37-.22a3.64,3.64,0,0,0,3.22-3.31c.27-5,.51-10.08.79-15.12a20.73,20.73,0,0,1,.31-2.73,4.37,4.37,0,0,1,4-3.77,25.43,25.43,0,0,1,5.23.1c2.29.22,3.47,1.76,3.75,3.9.37,2.77.65,5.55.78,8.34s0,5.5,0,8.25Z"/><path class="cls-2" d="M138,19.68c-.42,5.4-.81,10.8-1.28,16.19A4,4,0,0,1,133,40a20.76,20.76,0,0,1-5.34.13,4.32,4.32,0,0,1-4-4.17c-.35-3.53-.58-7.07-.81-10.6-.13-2.21-.15-4.42-.25-6.63a3.59,3.59,0,0,0-3.52-3.54c-4.91-.26-9.83-.5-14.74-.77a22.74,22.74,0,0,1-2.86-.31,4.41,4.41,0,0,1-3.82-4.2A23.81,23.81,0,0,1,98,4.27a3.77,3.77,0,0,1,3.59-3.18A117,117,0,0,1,124.38.23a53.85,53.85,0,0,1,6,.53,8.16,8.16,0,0,1,6.92,8c.08,1.83.3,3.66.37,5.49s0,3.58,0,5.38Z"/><path class="cls-2" d="M9.92,107.05c.36-4.53.74-9.89,1.22-15.24a4,4,0,0,1,3.73-4.06,20.28,20.28,0,0,1,5.22-.15,4.43,4.43,0,0,1,4.08,4.23c.24,1.94.42,3.9.53,5.85.21,3.67.36,7.34.51,11a3.65,3.65,0,0,0,3.8,3.89c5.62.31,11.24.66,16.86,1a4.56,4.56,0,0,1,4.34,4.4,19.23,19.23,0,0,1-.14,4.61c-.39,2.58-1.61,3.77-4.2,4-4.1.42-8.22.9-12.34.95-5.08.07-10.17-.22-15.25-.46a8.12,8.12,0,0,1-7.64-7.62C10.35,115.66,10.19,111.78,9.92,107.05Z"/><path class="cls-2" d="M101.14,71.73a54.32,54.32,0,0,1-25.79,7.65c-.47,0-.93.1-1.39.1s-.92-.09-1.38-.1a54.32,54.32,0,0,1-25.8-7.65,5.31,5.31,0,0,0-5.33,9.19.89.89,0,0,0,.17.08l0,.08a64.58,64.58,0,0,0,32.31,9H74a64.55,64.55,0,0,0,32.31-9l0-.08.16-.08a5.31,5.31,0,1,0-5.33-9.19Z"/><path class="cls-2" d="M103.8,39.2a5.31,5.31,0,0,0-5.31,5.31v11a5.32,5.32,0,0,0,10.63,0v-11A5.32,5.32,0,0,0,103.8,39.2Z"/><path class="cls-2" d="M44.11,60.86a5.31,5.31,0,0,0,5.31-5.31v-11a5.31,5.31,0,0,0-10.62,0v11A5.31,5.31,0,0,0,44.11,60.86Z"/></g></g></svg>