<svg xmlns="http://www.w3.org/2000/svg" viewBox="0 0 158.82 158.82"><defs><style>.cls-1{fill:#e1e1e1;}.cls-2{fill:#fff;}</style></defs><title>smile3</title><g id="Layer_2" data-name="Layer 2"><g id="Layer_1-2" data-name="Layer 1"><rect class="cls-1" width="158.82" height="158.82" rx="41.79"/><path class="cls-2" d="M106.7,89.51a54.35,54.35,0,0,1-25.8,7.65c-.46,0-.92.1-1.38.1s-.93-.09-1.39-.1a54.32,54.32,0,0,1-25.8-7.65A5.31,5.31,0,1,0,47,98.7a.8.8,0,0,0,.16.08l0,.08a64.55,64.55,0,0,0,32.31,9h.15a64.58,64.58,0,0,0,32.31-9l0-.08s.11,0,.17-.08a5.31,5.31,0,1,0-5.33-9.19Z"/><path class="cls-2" d="M109.36,57a5.31,5.31,0,0,0-5.31,5.31v11a5.31,5.31,0,0,0,10.62,0v-11A5.31,5.31,0,0,0,109.36,57Z"/><path class="cls-2" d="M49.67,78.64A5.31,5.31,0,0,0,55,73.33v-11a5.31,5.31,0,1,0-10.62,0v11A5.31,5.31,0,0,0,49.67,78.64Z"/></g></g></svg>