<svg xmlns="http://www.w3.org/2000/svg" viewBox="0 0 111.02 101.63"><defs><style>.cls-1,.cls-4{fill:#29abe2;}.cls-1{opacity:0.5;}.cls-2{fill:#fff;}.cls-3{font-size:12px;font-family:Montserrat-Regular, Montserrat;}</style></defs><title>stats</title><g id="Layer_2" data-name="Layer 2"><g id="Layer_1-2" data-name="Layer 1"><path class="cls-1" d="M111,14.14V87.49c0,7.77-7,14.14-15.45,14.14H15.46C7,101.63,0,95.26,0,87.49V14.14C0,6.36,7,0,15.46,0H95.57C104.07,0,111,6.36,111,14.14Z"/><path class="cls-2" d="M81.74,85.9a.84.84,0,0,0-.84-.83h0a.83.83,0,0,0-.83.83.84.84,0,0,0,.83.84h0A.85.85,0,0,0,81.74,85.9Z"/><path class="cls-2" d="M81.74,88.69a.85.85,0,0,0-.84-.84h0a.84.84,0,0,0-.83.84.83.83,0,0,0,.83.83h0A.84.84,0,0,0,81.74,88.69Z"/><path class="cls-2" d="M81.74,91.47a.84.84,0,0,0-.84-.83h0a.83.83,0,0,0-.83.83.84.84,0,0,0,.83.84h0A.85.85,0,0,0,81.74,91.47Z"/><path class="cls-2" d="M90.37,85.9a.84.84,0,0,0-.84-.83H83.72a.83.83,0,0,0-.83.83.84.84,0,0,0,.83.84h5.81A.85.85,0,0,0,90.37,85.9Z"/><path class="cls-2" d="M90.37,88.69a.85.85,0,0,0-.84-.84H83.72a.84.84,0,0,0-.83.84.83.83,0,0,0,.83.83h5.81A.84.84,0,0,0,90.37,88.69Z"/><path class="cls-2" d="M90.37,91.47a.84.84,0,0,0-.84-.83H83.72a.83.83,0,0,0-.83.83.84.84,0,0,0,.83.84h5.81A.85.85,0,0,0,90.37,91.47Z"/><text class="cls-3" transform="translate(14.48 24.93)">Stats</text><path class="cls-1" d="M43.87,85.05A53.32,53.32,0,0,0,33,76.61,4.34,4.34,0,0,1,31.11,75c-.68-1.34.35-2.8,1.58-3.34,1.4-.62,3.05-.58,4.57-.88s3.1-1.13,3.42-2.69a3.09,3.09,0,0,0,0-1c-.25-1.77-2-3.41-3.61-4.51a44.14,44.14,0,0,0-4-2.42,42.19,42.19,0,0,0-8.51-3.48A14.27,14.27,0,0,1,20,54.84c-1.38-1-2.42-2.77-2-4.27s2.22-2.1,3.81-1.92a28.93,28.93,0,0,1,4.69,1.41,9.6,9.6,0,0,0,1.06.25c2.68.47,5.56-.14,6.73-2.41A6.63,6.63,0,0,0,34,42.1a17.67,17.67,0,0,0-3.92-4.87A27.84,27.84,0,0,0,25.87,34c-4.59-2.88-9.81-4.7-14.32-7.48A44.35,44.35,0,0,1,5.29,22c-.65-.58-1.22-1.14-1.72-1.67a4.13,4.13,0,0,1-.39-3.13c.46-1.51,4.88-2.42,6.47-2.57a28.87,28.87,0,0,1,4.88.41c3.06.23,6.41-.94,7.17-3.73a6.61,6.61,0,0,0-1.54-5.6,10.77,10.77,0,0,0-4.71-3.4c-1.9-.78-3.18-.86-4.78-1.83A14.19,14.19,0,0,0,0,14.14V60.49a4.21,4.21,0,0,1,4-.64c1.9.86,2.55,3.31,2.89,5.37q1,5.75,2,11.5a20.86,20.86,0,0,0,1.68,6.07,7.36,7.36,0,0,0,4.66,4c2,.41,4.15-.89,4.2-2.93A21,21,0,0,0,19,81.32a2,2,0,0,1,.87-2.13c.75-.29,1.66.23,2.36.79a32,32,0,0,1,6.08,7.07,44.3,44.3,0,0,0,5.81,7.32c2.27,2.13,5.18,3.74,8.07,3.69A5.76,5.76,0,0,0,48,93C48.24,90.09,46.08,87.27,43.87,85.05Z"/><path class="cls-4" d="M45.62,96.06l-.23-.14-.71-.47c-.62-.42-1.53-1-2.68-1.89a83.82,83.82,0,0,1-9.23-7.86c-1.84-1.79-3.78-3.83-5.83-6s-4.21-4.63-6.4-7.22-4.33-5.27-6.38-8.24a.36.36,0,0,1-.07-.1L14,64c-1.06-1.52-2-3.13-3-4.75l-3-4.95C5,49.5,2.35,44.83,0,40.33v-.74c2.42,4.67,5.23,9.53,8.25,14.5l3,4.95c1,1.63,2,3.22,3,4.74l.17.24.07.11c2,2.9,4.15,5.58,6.24,8.08s4.34,5,6.38,7.23,4,4.28,5.78,6.08a88.79,88.79,0,0,0,9.14,7.92c1.13.87,2,1.51,2.64,2l.69.5Z"/><path class="cls-4" d="M14.11,64a5.61,5.61,0,0,0,0,.89c0,.58,0,1.41.06,2.45.08,2.07.28,4.93.52,8.09s.4,6,.45,8.07c0,1,0,1.86,0,2.44a4.18,4.18,0,0,0,0,.9,3.71,3.71,0,0,0,.1-.88c0-.57.07-1.4.08-2.43,0-2.07-.11-4.93-.35-8.09s-.46-5.93-.63-8.09c-.07-1-.12-1.79-.17-2.45A3.52,3.52,0,0,0,14.11,64Z"/><path class="cls-4" d="M40.7,67.05a6.81,6.81,0,0,0-1.05,0c-.67,0-1.64,0-2.84-.08-2.4-.09-5.73-.33-9.4-.76s-7-1-9.4-1.44c-1.21-.22-2.18-.42-2.85-.56A5.22,5.22,0,0,0,14.11,64a7,7,0,0,0,1,.32c.67.19,1.64.43,2.84.69,2.41.53,5.74,1.11,9.43,1.55a91.68,91.68,0,0,0,9.42.65c1.21,0,2.17,0,2.84,0A5,5,0,0,0,40.7,67.05Z"/><path class="cls-4" d="M33.89,44.25s-.13,0-.37,0L32.46,44c-.92-.18-2.25-.47-3.89-.84-3.28-.73-7.8-1.86-12.79-3.15S6.29,37.56,3,36.75L0,36v-.18c.82.16,1.85.39,3.05.66,3.28.74,7.8,1.86,12.78,3.16s9.5,2.45,12.77,3.26l3.88,1,1.05.27Z"/></g></g></svg>