<svg xmlns="http://www.w3.org/2000/svg" viewBox="0 0 158.94 114.38"><defs><style>.cls-1{fill:#f1f1f1;}.cls-2{font-size:22.42px;font-family:Montserrat-Regular, Montserrat;}.cls-2,.cls-5{fill:#fff;}.cls-3{fill:#30b9b0;}.cls-4{fill:none;stroke:#30b9b0;stroke-miterlimit:10;}</style></defs><title>tick3</title><g id="Layer_2" data-name="Layer 2"><g id="Layer_1-2" data-name="Layer 1"><path class="cls-1" d="M107.6,100.84c-44.38,19.44-96.37,14-106-8.41s26-60.92,56.28-75.72C79,6.41,123.31-6.93,150.06,9,171.84,22,152,81.4,107.6,100.84Z"/><text class="cls-2" transform="translate(53.4 79.68)">Next</text><circle class="cls-3" cx="79.47" cy="57.19" r="49.83"/><path class="cls-4" d="M79.47,113.88A56.69,56.69,0,0,1,79.47.5"/><path class="cls-4" d="M79.47.5a56.69,56.69,0,0,1,0,113.38"/><path class="cls-5" d="M51.48,62.28a2.63,2.63,0,0,1-.12-2.41,2,2,0,0,1,2.1-1.18,8.39,8.39,0,0,1,2.22.59c3.47,1.26,7.63,6.41,11.06,7.76a2.43,2.43,0,0,0,3-.54c9.92-9.2,19.21-22.25,29.17-31.4A10.7,10.7,0,0,1,100.25,34a2.37,2.37,0,0,1,2.82.23,2.34,2.34,0,0,1,.59,2.76,6,6,0,0,1-.77,1.19L71,78.76c-.18.23-.36.47-.55.7-1.43,1.72-2.86,1.78-4.33.12s-2.71-3.16-4.07-4.75c-3.33-3.89-6.68-7.77-10-11.68A5.27,5.27,0,0,1,51.48,62.28Z"/></g></g></svg>