<svg xmlns="http://www.w3.org/2000/svg" viewBox="0 0 111.17 101.63"><defs><style>.cls-1{fill:#f8ac91;}.cls-2{font-size:12px;font-family:Montserrat-Regular, Montserrat;}.cls-3{fill:#fff;}.cls-4{fill:#23c0a9;}.cls-5{fill:#00dfbf;}</style></defs><title>wallet</title><g id="Layer_2" data-name="Layer 2"><g id="Layer_1-2" data-name="Layer 1"><path class="cls-1" d="M111.17,14.15V87.49c0,7.78-7,14.14-15.44,14.14H15.61a16.47,16.47,0,0,1-3.73-.42,10,10,0,0,1-1.07-.29A15.58,15.58,0,0,1,4.4,97.2,14,14,0,0,1,.77,91.44a13,13,0,0,1-.62-4V14.15C.15,6.37,7.11,0,15.61,0H95.73C104.22,0,111.17,6.37,111.17,14.15Z"/><text class="cls-2" transform="translate(14.63 23.77)">Wallet</text><path class="cls-3" d="M89.14,89.12a8.6,8.6,0,0,1-4,1.2h-.43a8.57,8.57,0,0,1-4-1.2.83.83,0,0,0-.84,1.44h0A10.1,10.1,0,0,0,84.86,92h0A10.15,10.15,0,0,0,90,90.58h0a.83.83,0,0,0,.3-1.14A.82.82,0,0,0,89.14,89.12Z"/><path class="cls-3" d="M89.56,84a.83.83,0,0,0-.83.83v1.73a.83.83,0,1,0,1.66,0V84.84A.83.83,0,0,0,89.56,84Z"/><path class="cls-3" d="M80.19,87.41a.83.83,0,0,0,.83-.84V84.84a.83.83,0,0,0-.83-.83.84.84,0,0,0-.84.83v1.73A.84.84,0,0,0,80.19,87.41Z"/><path class="cls-4" d="M16.82,59.62a16.44,16.44,0,0,0-1.91,1.85,31.79,31.79,0,0,0-5.16,8.07A41,41,0,0,0,6.49,80.27a35.26,35.26,0,0,0-.16,10.42L4,97.2A14.15,14.15,0,0,1,.72,91.44a13.92,13.92,0,0,1-.57-4v-.28C.06,86,0,84.78,0,83.46H0c0-1.55,0-3.19.15-4.84V55.37A29.51,29.51,0,0,1,6,49.26c7.89-6.13,14-3.35,15.33-1.11S22.71,54.81,16.82,59.62Z"/><path class="cls-3" d="M18.12,49C13,50.91,6.18,56.6,2.36,66.7A43.76,43.76,0,0,0,.15,78.61V70.75A29.88,29.88,0,0,1,1.4,66.34C5.33,55.92,12.42,50,17.75,48a.51.51,0,0,1,.37,1Z"/><path class="cls-3" d="M.15,87.21a29.38,29.38,0,0,0,.57,4.23,13.92,13.92,0,0,1-.57-4Z"/><path class="cls-5" d="M41.61,70c-5.22,3.55-7.69,5.45-7.85,9.48s2.89,9.25,2.54,13.88c-.28,3.67-3.09,5.88-6.71,8.25H14.3a13.79,13.79,0,0,1-3.41-.42,8.46,8.46,0,0,1-1-.29A14.21,14.21,0,0,1,.72,91.44a13.92,13.92,0,0,1-.57-4v-.28C.06,86,0,84.78,0,83.46H0l.15-.2a7.12,7.12,0,0,1,6.06-3h.28c4,.08,4.64-3,3.4-9.68a10.11,10.11,0,0,1-.14-1c-.41-4.34,1.95-7.23,5.16-8.07a8.32,8.32,0,0,1,4.26,0c5.34,1.42,8.16.31,11.64-2.7s11.11-7,16.23-2.71S46.82,66.47,41.61,70Z"/><path class="cls-3" d="M41.83,59.29c-5.63,2-15.46,11-22.67,22.47l-.05.07a68.62,68.62,0,0,0-5.19,9.85c-.2.45-.38.89-.56,1.34a48.52,48.52,0,0,0-2.47,8.19,8.46,8.46,0,0,1-1-.29,49.32,49.32,0,0,1,2.54-8.35h0c0-.09.07-.18.11-.26a69.06,69.06,0,0,1,5.61-10.83c.23-.39.48-.77.73-1.15,7.31-11.22,17-20.06,22.59-22a.51.51,0,0,1,.65.32A.51.51,0,0,1,41.83,59.29Z"/><path class="cls-3" d="M18.72,82a.5.5,0,0,1-.49-.37,86.35,86.35,0,0,1-2.94-14.13.52.52,0,0,1,.46-.57.51.51,0,0,1,.56.46,86.62,86.62,0,0,0,2.9,13.94.53.53,0,0,1-.34.65Z"/><path class="cls-3" d="M13,93.14a.5.5,0,0,1-.47-.31.51.51,0,0,1,.26-.68A27,27,0,0,1,31,91.08a.52.52,0,1,1-.34,1,26.33,26.33,0,0,0-17.47,1A.52.52,0,0,1,13,93.14Z"/></g></g></svg>