<svg xmlns="http://www.w3.org/2000/svg" viewBox="0 0 37.13 14.78"><defs><style>.cls-1{fill:#161c2c;}.cls-2{fill:#e84335;}.cls-3{fill:#34a752;}.cls-4{fill:#4184f2;}.cls-5{fill:#f9bb04;}</style></defs><title>gpay_light</title><g id="Layer_2" data-name="Layer 2"><g id="Layer_1-2" data-name="Layer 1"><path class="cls-1" d="M37.13,4.34c-.08,0-.07.07-.09.11Q35,9.18,32.92,13.89c-.11.26-.23.51-.33.78a.17.17,0,0,1-.18.11H31.28c-.13,0-.12,0-.08-.14l1.59-3.38a.34.34,0,0,0,0-.31c-1-2.17-1.92-4.33-2.87-6.5-.08-.17-.08-.17.11-.17h1.13a.21.21,0,0,1,.23.15l2,4.95s0,.07.05.1.07,0,.09,0,.07-.17.11-.26C34.33,7.62,35,6,35.62,4.44a.24.24,0,0,1,.26-.17h1.25Z"/><path class="cls-1" d="M16.13,6.17V1c0-.14,0-.19.18-.19,1.18,0,2.36,0,3.54,0a3.24,3.24,0,0,1,2.8,1.55A3.15,3.15,0,0,1,21.08,7a3.37,3.37,0,0,1-1.37.25l-2,0c-.14,0-.18,0-.18.17,0,1.33,0,2.65,0,4,0,.14,0,.17-.17.17h-1c-.21,0-.21,0-.21-.2ZM17.53,4V5.72c0,.1,0,.14.12.14h2.28a1.88,1.88,0,0,0,1.81-2.12A2,2,0,0,0,20,2.14c-.77,0-1.55,0-2.33,0-.12,0-.15,0-.15.15C17.53,2.86,17.53,3.42,17.53,4Z"/><path class="cls-1" d="M28.31,10.5a.3.3,0,0,0-.14.13,2.68,2.68,0,0,1-2.66,1.1,2.81,2.81,0,0,1-1.48-.6,2.36,2.36,0,0,1-.89-2.33A2.2,2.2,0,0,1,24.7,7a4.88,4.88,0,0,1,2.93,0l.29.11.27.14a1.59,1.59,0,0,0-.72-1.66,2.1,2.1,0,0,0-2.87.48c-.09.11-.15.11-.26,0-.3-.2-.62-.39-.93-.58-.1,0-.11-.1,0-.18A3.41,3.41,0,0,1,25.73,4a4.15,4.15,0,0,1,2.12.25A2.71,2.71,0,0,1,29.58,6.6a5.44,5.44,0,0,1,0,.57v4.19c0,.13,0,.17-.17.17h-1c-.1,0-.13,0-.13-.14C28.31,11.1,28.31,10.81,28.31,10.5Zm-2.15,0A2.3,2.3,0,0,0,28.3,8.62a.3.3,0,0,0-.16-.33,3.11,3.11,0,0,0-1.31-.38A2.58,2.58,0,0,0,25,8.39a1.1,1.1,0,0,0-.08,1.7A1.76,1.76,0,0,0,26.16,10.54Z"/><path class="cls-2" d="M2.66,5,1.6,4.12.77,3.48s-.1-.06-.1-.13a6.2,6.2,0,0,1,1.18-1.6A6.11,6.11,0,0,1,6,0a5.93,5.93,0,0,1,4.08,1.47c.11.09.11.13,0,.23-.53.51-1,1-1.56,1.56-.07.07-.11.07-.19,0A3.52,3.52,0,0,0,2.75,4.83S2.75,5,2.66,5Z"/><path class="cls-3" d="M.62,8.87,2.5,7.42l.15-.11a3.91,3.91,0,0,0,.87,1.43,3.67,3.67,0,0,0,4.55.58l.12-.07.12.1,1.86,1.43A5.24,5.24,0,0,1,8,12,6.19,6.19,0,0,1,.66,9,.36.36,0,0,1,.62,8.87Z"/><path class="cls-4" d="M10.17,10.78,8.31,9.35l-.12-.1a2.83,2.83,0,0,0,1.17-1.7c0-.14,0-.16-.12-.16h-3c-.12,0-.16,0-.16-.15,0-.69,0-1.39,0-2.09,0-.1,0-.13.14-.13h5.54c.09,0,.14,0,.15.11a8.46,8.46,0,0,1,0,2.41,5.65,5.65,0,0,1-1.63,3.17Z"/><path class="cls-5" d="M2.61,7.16a.83.83,0,0,1,0,.15l-.15.11c-.62.48-1.24,1-1.87,1.43,0,0-.05-.1-.07-.16A6.06,6.06,0,0,1,0,6.14a6.19,6.19,0,0,1,.48-2.4c.06-.13.12-.26.19-.39h0c0,.07.06.1.1.13l.83.64L2.66,5A3.35,3.35,0,0,0,2.61,7.16Z"/></g></g></svg>