<svg xmlns="http://www.w3.org/2000/svg" viewBox="0 0 38.21 28.92"><defs><style>.cls-1{fill:#e8021c;}.cls-2{fill:#fd5f03;}.cls-3{fill:#f59f1b;}</style></defs><title>mastercard2</title><g id="Layer_2" data-name="Layer 2"><g id="Layer_1-2" data-name="Layer 1"><path d="M1.3,25.41h.86v.39a1.48,1.48,0,0,1,.48-.36,1.45,1.45,0,0,1,.59-.12,1,1,0,0,1,.58.16,1.15,1.15,0,0,1,.42.45,1.27,1.27,0,0,1,.5-.45,1.31,1.31,0,0,1,.65-.16,1.14,1.14,0,0,1,.64.17.94.94,0,0,1,.4.44,2.39,2.39,0,0,1,.12.89v2H5.67V27.09a1.47,1.47,0,0,0-.14-.79.51.51,0,0,0-.43-.2.7.7,0,0,0-.4.12.85.85,0,0,0-.26.35,2.42,2.42,0,0,0-.08.71v1.55H3.49V27.17a2.07,2.07,0,0,0-.07-.66.58.58,0,0,0-.2-.31.52.52,0,0,0-.33-.1.63.63,0,0,0-.39.13.79.79,0,0,0-.26.35,2.25,2.25,0,0,0-.08.73v1.52H1.3Z"/><path d="M9.88,25.41h.86v3.42H9.88v-.36a1.53,1.53,0,0,1-.5.34,1.42,1.42,0,0,1-.55.11,1.53,1.53,0,0,1-1.15-.52,1.8,1.8,0,0,1-.48-1.28,1.87,1.87,0,0,1,.47-1.3,1.51,1.51,0,0,1,1.14-.5,1.56,1.56,0,0,1,.57.11,1.68,1.68,0,0,1,.5.35Zm-.9.7a.85.85,0,0,0-.66.28,1,1,0,0,0-.26.72,1.05,1.05,0,0,0,.26.73.88.88,0,0,0,.66.29.86.86,0,0,0,.67-.28,1,1,0,0,0,.27-.74,1,1,0,0,0-.27-.72A.86.86,0,0,0,9,26.11Z"/><path d="M13.71,25.88l-.54.54a.88.88,0,0,0-.58-.33.37.37,0,0,0-.23.07.19.19,0,0,0,0,.28.9.9,0,0,0,.26.16l.31.15a1.89,1.89,0,0,1,.68.5,1,1,0,0,1,.19.6,1,1,0,0,1-.34.76,1.28,1.28,0,0,1-.89.31,1.44,1.44,0,0,1-1.2-.59l.53-.57a1.35,1.35,0,0,0,.35.28.85.85,0,0,0,.36.11.47.47,0,0,0,.28-.08.24.24,0,0,0,.1-.19c0-.13-.13-.26-.37-.39l-.29-.14c-.56-.28-.83-.63-.83-1.05a.89.89,0,0,1,.31-.69,1.1,1.1,0,0,1,.8-.29,1.52,1.52,0,0,1,.63.14A1.54,1.54,0,0,1,13.71,25.88Z"/><path d="M14.55,24.14h.86v1.27h.51v.74h-.51v2.68h-.86V26.15h-.44v-.74h.44Z"/><path d="M19.8,27.37H17.05a1,1,0,0,0,.31.58,1.05,1.05,0,0,0,.67.21,1.11,1.11,0,0,0,.82-.34l.73.34a1.67,1.67,0,0,1-.65.57,1.93,1.93,0,0,1-.9.19,1.78,1.78,0,0,1-1.31-.51,1.71,1.71,0,0,1-.5-1.27,1.75,1.75,0,0,1,.5-1.3A1.69,1.69,0,0,1,18,25.32a1.73,1.73,0,0,1,1.31.52,1.85,1.85,0,0,1,.51,1.36ZM19,26.69a.89.89,0,0,0-.34-.47A1,1,0,0,0,18,26a1,1,0,0,0-.63.21,1.16,1.16,0,0,0-.32.44Z"/><path d="M20.3,25.41H21v.43a1,1,0,0,1,.32-.39.75.75,0,0,1,.78,0l-.26.74a.51.51,0,0,0-.25-.08c-.13,0-.24.08-.34.25a2.26,2.26,0,0,0-.13,1v1.55H20.3Z"/><path d="M25.91,26.1l-.72.39a1.1,1.1,0,0,0-.39-.29,1.13,1.13,0,0,0-.47-.08,1,1,0,0,0-.77.28,1,1,0,0,0-.3.74.93.93,0,0,0,.28.71,1.05,1.05,0,0,0,.76.28,1.08,1.08,0,0,0,.89-.39l.68.46a1.84,1.84,0,0,1-1.55.72,1.87,1.87,0,0,1-1.42-.54,1.74,1.74,0,0,1-.51-1.25,1.74,1.74,0,0,1,.95-1.57,2,2,0,0,1,1-.24,2.11,2.11,0,0,1,.92.2A1.76,1.76,0,0,1,25.91,26.1Z"/><path d="M29.21,25.41h.86v3.42h-.86v-.36a1.68,1.68,0,0,1-.51.34,1.37,1.37,0,0,1-.54.11A1.5,1.5,0,0,1,27,28.4a1.8,1.8,0,0,1-.48-1.28,1.86,1.86,0,0,1,.46-1.3,1.54,1.54,0,0,1,1.14-.5,1.58,1.58,0,0,1,.58.11,1.68,1.68,0,0,1,.5.35Zm-.9.7a.88.88,0,0,0-.67.28,1,1,0,0,0-.26.72,1,1,0,0,0,.27.73.92.92,0,0,0,1.33,0,1,1,0,0,0,.27-.74,1,1,0,0,0-.27-.72A.88.88,0,0,0,28.31,26.11Z"/><path d="M30.73,25.41h.74v.43a1,1,0,0,1,.32-.39.75.75,0,0,1,.43-.13.79.79,0,0,1,.35.09l-.27.74a.48.48,0,0,0-.24-.08.38.38,0,0,0-.34.25,2.22,2.22,0,0,0-.14,1v1.55h-.86Z"/><path d="M35.52,24.09h.86v4.74h-.86v-.36a1.65,1.65,0,0,1-.5.34,1.42,1.42,0,0,1-.55.11,1.53,1.53,0,0,1-1.15-.52,1.8,1.8,0,0,1-.48-1.28,1.87,1.87,0,0,1,.47-1.3,1.5,1.5,0,0,1,1.13-.5,1.58,1.58,0,0,1,.58.11,1.68,1.68,0,0,1,.5.35Zm-.9,2a.84.84,0,0,0-.66.28,1.11,1.11,0,0,0,0,1.45.88.88,0,0,0,.66.29.86.86,0,0,0,.67-.28,1,1,0,0,0,.27-.74,1,1,0,0,0-.27-.72A.86.86,0,0,0,34.62,26.11Z"/><path d="M37.72,27.93a.48.48,0,0,1,.49.49.5.5,0,0,1-.49.5.51.51,0,0,1-.5-.5.5.5,0,0,1,.5-.49Z"/><path class="cls-1" d="M18.6,20.62a11.53,11.53,0,1,1,0-18.19,11.54,11.54,0,0,0,0,18.19Z"/><ellipse class="cls-2" cx="18.6" cy="11.52" rx="4.44" ry="9.09"/><path class="cls-3" d="M37.2,11.52a11.52,11.52,0,0,1-18.6,9.1,11.52,11.52,0,0,0,0-18.19,11.52,11.52,0,0,1,18.6,9.09Z"/></g></g></svg>