<svg xmlns="http://www.w3.org/2000/svg" viewBox="0 0 46.11 11.21"><defs><style>.cls-1{fill:#0d3b85;}.cls-2{fill:#103d87;}.cls-3{fill:#059fe3;}.cls-4{fill:#152d70;}</style></defs><title>paypal1</title><g id="Layer_2" data-name="Layer 2"><g id="Layer_1-2" data-name="Layer 1"><path class="cls-1" d="M2.37,9.85a8.38,8.38,0,0,1-2.12.06C-.09,9.9,0,9.57,0,9.36c.11-.74.24-1.48.36-2.23C.72,5,1.06,2.91,1.39.8,1.5.09,1.6,0,2.32,0H5.69A5,5,0,0,1,6.84.14,2.1,2.1,0,0,1,8.48,2.82a5.15,5.15,0,0,0-.87-.17H4c-.3,0-.48.09-.53.41-.12.85-.28,1.7-.41,2.54,0,.24-.21.49,0,.73a4.45,4.45,0,0,0-.35,1.48A15.59,15.59,0,0,1,2.37,9.85Z"/><path class="cls-2" d="M16.48,2.49c.44,0,.88,0,1.32,0a1.75,1.75,0,0,1,1.84,2.16,3.39,3.39,0,0,1-.5,1.48,2.23,2.23,0,0,1-1.9,1c-.4,0-.8,0-1.19,0a.4.4,0,0,0-.49.4c-.07.49-.18,1-.23,1.47a.49.49,0,0,1-.6.5,3.53,3.53,0,0,0-.46,0c-.76,0-.76,0-.65-.73.31-1.92.62-3.84.9-5.77.07-.43.25-.59.68-.56S16.05,2.49,16.48,2.49Zm0,3.32a3.53,3.53,0,0,0,.46,0,1.11,1.11,0,0,0,.91-1.25c0-.49-.33-.71-1-.71a3.08,3.08,0,0,1-.43,0c-.21,0-.3.06-.33.28,0,.37-.11.73-.16,1.09C15.83,5.82,15.83,5.82,16.44,5.81Z"/><path class="cls-3" d="M32.49,9.55c-.86,0-.86,0-.73-.84.3-1.88.6-3.77.88-5.65.07-.41.22-.59.66-.58.85,0,1.71,0,2.56,0a1.76,1.76,0,0,1,1.89,2.22,3.31,3.31,0,0,1-.59,1.58,2.21,2.21,0,0,1-1.77.88c-.42,0-.83,0-1.24,0a.38.38,0,0,0-.46.38c-.08.46-.15.93-.23,1.39s-.12.59-.71.6Zm2.08-3.74a3.53,3.53,0,0,0,.46,0,1.1,1.1,0,0,0,.9-1.25c0-.49-.32-.71-1-.71h-.42c-.21,0-.31.07-.33.28,0,.37-.12.73-.17,1.1C34,5.82,34,5.82,34.57,5.81Z"/><path class="cls-3" d="M2.37,9.85a15.59,15.59,0,0,0,.38-2A4.45,4.45,0,0,1,3.1,6.33a.74.74,0,0,1,.49-.1c.48,0,1,0,1.44,0A3.3,3.3,0,0,0,7.76,4.81,5,5,0,0,0,8.5,2.88a1.58,1.58,0,0,1,.93,1.47,4.16,4.16,0,0,1-.22,1.56A2.93,2.93,0,0,1,6.26,8C5.17,8,5.17,7.77,5,9.15c-.08.56-.17,1.12-.25,1.69,0,.25-.15.37-.42.36H2.63c-.33,0-.38-.15-.35-.42A2.91,2.91,0,0,0,2.37,9.85Z"/><path class="cls-2" d="M23,9a2.52,2.52,0,0,1-1.64.71A1.92,1.92,0,0,1,19.3,7.85a2.89,2.89,0,0,1,2.94-3.16,1.4,1.4,0,0,1,1.36.8c0-.78.49-.63.87-.63.73,0,.78-.17.64.74-.18,1.15-.39,2.3-.55,3.45,0,.4-.22.56-.61.51a1.21,1.21,0,0,0-.38,0C23.16,9.6,22.87,9.53,23,9Zm-.67-3a1.47,1.47,0,0,0-1.44,1.4A1.06,1.06,0,0,0,22,8.44,1.51,1.51,0,0,0,23.42,7,1,1,0,0,0,22.32,6Z"/><path class="cls-3" d="M41.67,5.38c.18-.15,0-.48.29-.5a10.08,10.08,0,0,1,1.23,0c.13,0,.12.17.11.29-.22,1.35-.43,2.7-.65,4.05,0,.14-.07.3-.24.31a6.86,6.86,0,0,1-1.11,0c-.32,0-.09-.36-.21-.57a2.43,2.43,0,0,1-1.51.71,2,2,0,0,1-2.16-2.2,2.86,2.86,0,0,1,2.93-2.79A1.37,1.37,0,0,1,41.67,5.38ZM40.08,8.44a1.5,1.5,0,0,0,1.46-1.38A1,1,0,0,0,40.47,6,1.5,1.5,0,0,0,39,7.35,1.07,1.07,0,0,0,40.08,8.44Z"/><path class="cls-2" d="M28.33,7.51c.55-.8,1.06-1.5,1.53-2.23a.8.8,0,0,1,.84-.44c.22,0,.45,0,.68,0s.42.12.22.44c0,.08-.1.14-.14.21C30.23,7.27,29,9,27.78,10.8a.76.76,0,0,1-.77.4c-.21,0-.43,0-.64,0s-.34.08-.43-.09.08-.31.17-.44c.31-.45.61-.89.94-1.33a.55.55,0,0,0,.08-.58C26.74,7.63,26.36,6.51,26,5.4c-.16-.47-.11-.56.4-.55,1.36,0,1-.19,1.43,1C28,6.4,28.14,6.92,28.33,7.51Z"/><path class="cls-4" d="M8.5,2.88a5,5,0,0,1-.74,1.93A3.3,3.3,0,0,1,5,6.22c-.48,0-1,0-1.44,0a.74.74,0,0,0-.49.1c-.22-.24,0-.49,0-.73.13-.84.29-1.69.41-2.54,0-.32.23-.42.53-.41H7.61a5.15,5.15,0,0,1,.87.17A.07.07,0,0,1,8.5,2.88Z"/><path class="cls-3" d="M44.31,9.56c-.92,0-.8.07-.67-.77.3-1.94.62-3.88.91-5.82.05-.35.17-.48.54-.48,1.11,0,1.11,0,.93,1.1l-.81,5.19C45.08,9.56,45.08,9.56,44.31,9.56Z"/></g></g></svg>