<svg xmlns="http://www.w3.org/2000/svg" viewBox="0 0 35.3 11.43"><defs><style>.cls-1{fill:#0156a3;}.cls-2{fill:#fea701;}</style></defs><title>visa1</title><g id="Layer_2" data-name="Layer 2"><g id="Layer_1-2" data-name="Layer 1"><path class="cls-1" d="M25,11.26l.15-.37c.31-.74.63-1.49.94-2.24l1.15-2.74,1.11-2.64.91-2.19a1.6,1.6,0,0,1,.32-.49,1.3,1.3,0,0,1,.67-.34,2.21,2.21,0,0,1,.51,0h2.09C33,.2,33,.2,33,.32c.1.47.19.94.29,1.4s.19.89.28,1.33l.3,1.44c.14.68.28,1.36.43,2s.27,1.33.41,2,.29,1.36.43,2c0,.2.08.41.13.61s0,.08-.06.08H32.7a.05.05,0,0,1-.06-.06l-.15-.71c-.06-.28-.11-.55-.17-.82,0-.05,0-.06-.07-.06H28.71c-.05,0-.07,0-.09.06l-.13.39c-.14.38-.28.75-.41,1.13,0,.07,0,.07-.12.07H25Zm6.8-3.94L31,3.24c-.5,1.35-1,2.69-1.49,4a.09.09,0,0,1,0,0h2.34Z"/><path class="cls-1" d="M17.48,8.35a1.28,1.28,0,0,1,.27.11,6.8,6.8,0,0,0,1.3.49,6.68,6.68,0,0,0,.78.13,7.58,7.58,0,0,0,.83,0,2.36,2.36,0,0,0,1.12-.31.93.93,0,0,0,.39-.42.78.78,0,0,0-.07-.82,2,2,0,0,0-.51-.44,8.6,8.6,0,0,0-.84-.47,8.17,8.17,0,0,1-1-.54,5.39,5.39,0,0,1-.6-.47,2.83,2.83,0,0,1-.62-.76,2.35,2.35,0,0,1-.29-.94,3.21,3.21,0,0,1,.24-1.53,3,3,0,0,1,.54-.86A3.9,3.9,0,0,1,20.13.69a5.41,5.41,0,0,1,1.79-.6c.25,0,.5-.06.75-.08h.76a6.4,6.4,0,0,1,.87.08,7.69,7.69,0,0,1,1.31.35c.06,0,.06,0,.05.11-.07.44-.14.88-.22,1.33l-.15.92c0,.07,0,.07-.08,0l-.34-.14a4.19,4.19,0,0,0-1.15-.32,3.81,3.81,0,0,0-.59,0,3.85,3.85,0,0,0-.48,0,2,2,0,0,0-1,.31.88.88,0,0,0-.34.44.63.63,0,0,0,.07.53,1.37,1.37,0,0,0,.36.36,6.92,6.92,0,0,0,.78.46c.36.19.73.35,1.07.57a5.28,5.28,0,0,1,.77.57,3.07,3.07,0,0,1,.67.88,2.35,2.35,0,0,1,.24.86,2.53,2.53,0,0,1,0,.55,3.26,3.26,0,0,1-.39,1.4,3.61,3.61,0,0,1-.51.72,4.09,4.09,0,0,1-1.12.82,5.9,5.9,0,0,1-1.22.43,8.31,8.31,0,0,1-1,.15,7.09,7.09,0,0,1-1,0,9.81,9.81,0,0,1-1.09-.1A8.61,8.61,0,0,1,17.47,11l-.33-.12c-.06,0-.06,0-.05-.1.06-.4.13-.8.19-1.2l.18-1.1A.5.5,0,0,1,17.48,8.35Z"/><path class="cls-1" d="M6.93,6.18a3.34,3.34,0,0,1,.1.43c.07.36.14.71.23,1.07l.1-.27L8.2,5.15c.31-.82.61-1.64.91-2.45S9.7,1.11,10,.32v0c0-.08,0-.08.12-.08h2.94a.59.59,0,0,1-.07.2l-.72,1.77c-.28.7-.57,1.39-.85,2.08-.21.52-.42,1-.64,1.57L10,7.9l-.83,2-.51,1.26a.09.09,0,0,1-.1.07H5.63c-.08,0-.08,0-.1-.07L5,9.23c-.19-.7-.38-1.41-.56-2.12l-.6-2.26L3.28,2.73C3.19,2.37,3.09,2,3,1.65l.06,0A10.41,10.41,0,0,1,4.71,2.9a8.11,8.11,0,0,1,.85.91,8,8,0,0,1,1.21,2,3.52,3.52,0,0,0,.18.4h0Z"/><path class="cls-1" d="M15.66.2H17c.11,0,.12,0,.1.11-.06.38-.12.75-.19,1.13s-.09.58-.14.87-.12.74-.17,1.11-.09.55-.14.83l-.15.9c-.07.48-.15,1-.23,1.44s-.13.81-.2,1.22-.14.9-.22,1.35-.11.74-.17,1.11l-.15.93a.07.07,0,0,1-.07.06h-2.7c-.12,0-.12,0-.1-.12.05-.33.11-.66.16-1s.12-.73.17-1.09.15-.92.23-1.38.13-.8.19-1.21.13-.8.2-1.2l.18-1.12c.08-.48.16-1,.23-1.44l.24-1.46L14.2.3c0-.1,0-.1.12-.1Z"/><path class="cls-2" d="M6.93,6.18H7a3.52,3.52,0,0,1-.18-.4,8,8,0,0,0-1.21-2,8.11,8.11,0,0,0-.85-.91A10.41,10.41,0,0,0,3.06,1.67L3,1.65a1.78,1.78,0,0,0-.3-.17A10.65,10.65,0,0,0,.76.66C.53.58.3.52.07.45S0,.43,0,.35,0,.2.19.2H4.67a1.71,1.71,0,0,1,.74.17,1,1,0,0,1,.48.57A3.13,3.13,0,0,1,6,1.47c.09.43.17.86.26,1.29.13.65.25,1.3.38,2,.09.46.19.93.28,1.39Z"/></g></g></svg>