<svg xmlns="http://www.w3.org/2000/svg" viewBox="0 0 13.02 12.34"><defs><style>.cls-1{fill:#30b9b0;}.cls-2,.cls-4{fill:none;stroke:#fff;stroke-miterlimit:10;}.cls-3{fill:#fff;}.cls-4{stroke-linecap:round;}</style></defs><title>area</title><g id="Layer_2" data-name="Layer 2"><g id="Layer_1-2" data-name="Layer 1"><path class="cls-1" d="M8.84,0H4.18C1.88,0,0,2.18,0,4.85V7.49c0,2.67,1.88,4.85,4.18,4.85H8.84c2.3,0,4.18-2.18,4.18-4.85V4.85C13,2.18,11.14,0,8.84,0Z"/><path class="cls-2" d="M9.12,4.18c0,1.44-1.56,4.55-2.46,4.55S4.2,5.62,4.2,4.18a2.53,2.53,0,0,1,2.46-2.6A2.53,2.53,0,0,1,9.12,4.18Z"/><ellipse class="cls-3" cx="6.66" cy="4.15" rx="0.95" ry="1"/><path class="cls-4" d="M9.92,7.27c.76.3,1.23.73,1.23,1.18,0,1-2,1.72-4.48,1.72S2.2,9.4,2.2,8.45c0-.45.46-.88,1.22-1.18"/></g></g></svg>