<svg xmlns="http://www.w3.org/2000/svg" viewBox="0 0 13.87 22"><defs><style>.cls-1{fill:#e1e1e1;}</style></defs><title>bottle2</title><g id="Layer_2" data-name="Layer 2"><g id="Layer_1-2" data-name="Layer 1"><path class="cls-1" d="M6.94,22a3,3,0,0,1-1.61-.51l-.11-.07a1,1,0,0,0-.54,0l-.12.09A2.17,2.17,0,0,1,3.15,22a3.69,3.69,0,0,1-3-4.84,15.08,15.08,0,0,1,.94-2.74A6,6,0,0,0,.9,11.43c-.06-.28-.14-.52-.21-.75A4.17,4.17,0,0,1,.82,7.23a3,3,0,0,1,2-1.59,2.84,2.84,0,0,1,2.41.41A1.23,1.23,0,0,1,3.77,8a.8.8,0,0,0-.71.24A1.82,1.82,0,0,0,3,9.93a9.63,9.63,0,0,1,.28,1c.29,1.42.63,3,0,4.41a12.52,12.52,0,0,0-.79,2.26c-.09.42-.19,1.16.1,1.43a2,2,0,0,0,.58.42l0,0A2.9,2.9,0,0,1,4.15,19a3.34,3.34,0,0,1,1.69,0,2.36,2.36,0,0,1,.73.32,1.05,1.05,0,0,0,.37.17c.08,0,.14,0,.34-.16A2.44,2.44,0,0,1,8,19.05a3.38,3.38,0,0,1,1.7,0,2.9,2.9,0,0,1,.88.39l0,0a1.88,1.88,0,0,0,.58-.42c.29-.27.19-1,.1-1.43a12.25,12.25,0,0,0-.79-2.26,7.53,7.53,0,0,1,0-4.41c.07-.34.16-.65.25-1,.25-.89.32-1.21.08-1.59a.65.65,0,0,0-.54-.34,1.23,1.23,0,0,1-1.43-2,2.5,2.5,0,0,1,2-.41A3.17,3.17,0,0,1,13,7.09a4,4,0,0,1,.19,3.56c-.07.25-.14.51-.2.78a6,6,0,0,0-.18,2.94,14.34,14.34,0,0,1,.94,2.74,3.69,3.69,0,0,1-3,4.84,2.19,2.19,0,0,1-1.41-.42l-.18-.11a.84.84,0,0,0-.47,0l-.07,0A3,3,0,0,1,6.94,22ZM3.78,8Zm0,0h0Z"/><path class="cls-1" d="M9.64,4.66A1.23,1.23,0,0,1,8.41,3.43v-1H5.46v1A1.23,1.23,0,1,1,3,3.43V1.93A2.15,2.15,0,0,1,5.4,0H8.47a2.15,2.15,0,0,1,2.4,1.93v1.5A1.23,1.23,0,0,1,9.64,4.66Z"/></g></g></svg>