<svg xmlns="http://www.w3.org/2000/svg" viewBox="0 0 13.02 12.34"><defs><style>.cls-1{fill:#30b9b0;}</style></defs><title>bottle</title><g id="Layer_2" data-name="Layer 2"><g id="Layer_1-2" data-name="Layer 1"><path class="cls-1" d="M8.84,0H4.18C1.88,0,0,2.18,0,4.85V7.49c0,2.67,1.88,4.85,4.18,4.85H8.84c2.3,0,4.18-2.18,4.18-4.85V4.85C13,2.18,11.14,0,8.84,0ZM5,2.3a.86.86,0,0,1,.93-.79H7.08A.86.86,0,0,1,8,2.3v.62a.5.5,0,0,1-.5.5.5.5,0,0,1-.5-.5V2.51H6v.41a.5.5,0,0,1-.5.5.5.5,0,0,1-.5-.5Zm3.76,7.86a1.33,1.33,0,0,1-.84.39,1.51,1.51,0,0,1-.6,0,.76.76,0,0,0-.3,0,2.18,2.18,0,0,1-.52.07A2.09,2.09,0,0,1,6,10.51a.76.76,0,0,0-.3,0,1.77,1.77,0,0,1-.6.05,1.39,1.39,0,0,1-.84-.4A1.61,1.61,0,0,1,4,8.65,6.31,6.31,0,0,1,4.3,7.52a3,3,0,0,0-.06-1.27,3.43,3.43,0,0,1,0-1.68A1.08,1.08,0,0,1,5,3.89a1.35,1.35,0,0,1,1.18.16.51.51,0,0,1,0,.71.5.5,0,0,1-.68.07.54.54,0,0,0-.4.08,2.92,2.92,0,0,0,.09,1.16,3.37,3.37,0,0,1,0,1.81,6.16,6.16,0,0,0-.29,1,.86.86,0,0,0,0,.64.42.42,0,0,0,.24.09.67.67,0,0,0,.24,0,1.62,1.62,0,0,1,.79,0,1.06,1.06,0,0,0,.53,0,1.71,1.71,0,0,1,.78,0,.74.74,0,0,0,.25,0A.39.39,0,0,0,8,9.47c.09-.09.11-.32.05-.64a5.12,5.12,0,0,0-.3-1,3.38,3.38,0,0,1,0-1.81,3,3,0,0,0,.07-1.19.65.65,0,0,0-.4,0,.48.48,0,0,1-.69-.08A.52.52,0,0,1,6.88,4a1.4,1.4,0,0,1,1.2-.14,1.08,1.08,0,0,1,.76.67,3.69,3.69,0,0,1-.05,1.68,2.68,2.68,0,0,0-.06,1.27,7.27,7.27,0,0,1,.34,1.13A1.64,1.64,0,0,1,8.77,10.16Z"/></g></g></svg>