<svg xmlns="http://www.w3.org/2000/svg" viewBox="0 0 13.02 12.34"><defs><style>.cls-1{fill:#30b9b0;}.cls-2{fill:none;stroke:#fff;stroke-linecap:round;stroke-miterlimit:10;}</style></defs><title>bottle2_1</title><g id="Layer_2" data-name="Layer 2"><g id="Layer_1-2" data-name="Layer 1"><path class="cls-1" d="M8.84,0H4.18C1.88,0,0,2.18,0,4.85V7.49c0,2.67,1.88,4.85,4.18,4.85H8.84c2.3,0,4.18-2.18,4.18-4.85V4.85C13,2.18,11.14,0,8.84,0Z"/><path class="cls-2" d="M6,4.44a.65.65,0,0,0-1,.29A3.75,3.75,0,0,0,5,6.17a3.62,3.62,0,0,1,0,1.53,7.38,7.38,0,0,0-.26,1A1.4,1.4,0,0,0,5,9.82a.62.62,0,0,0,.44.24.7.7,0,0,0,.35,0,.86.86,0,0,1,.45,0,1,1,0,0,0,.64,0,.86.86,0,0,1,.45,0,.7.7,0,0,0,.35,0,.62.62,0,0,0,.44-.24,1.4,1.4,0,0,0,.14-1.08A7.38,7.38,0,0,0,8,7.7,3.62,3.62,0,0,1,8,6.17,3.75,3.75,0,0,0,8,4.73a.66.66,0,0,0-1-.29"/><path class="cls-2" d="M7.33,2.93V2.3A.33.33,0,0,0,7,2H6a.33.33,0,0,0-.35.29v.63"/></g></g></svg>