<svg xmlns="http://www.w3.org/2000/svg" viewBox="0 0 12.43 12.25"><defs><style>.cls-1{fill:#30b9b0;}</style></defs><title>cake</title><g id="Layer_2" data-name="Layer 2"><g id="Layer_1-2" data-name="Layer 1"><path class="cls-1" d="M12.35,9.6a3.88,3.88,0,0,1-3.91,2.65H4C1.8,12.25,0,10.78,0,9V7.61c.31,0,.48.23.81.76A2,2,0,0,0,2.48,9.61,2,2,0,0,0,4.15,8.37c.33-.53.5-.76.81-.76s.49.23.82.76A2,2,0,0,0,7.45,9.61,2,2,0,0,0,9.12,8.37c.33-.53.51-.76.82-.76s.49.23.82.76A2,2,0,0,0,12.35,9.6Z"/><path class="cls-1" d="M12.43,7.18V8.61c-.32,0-.49-.23-.82-.77A2,2,0,0,0,9.94,6.61,2,2,0,0,0,8.27,7.84c-.33.54-.51.77-.82.77S7,8.38,6.63,7.84A2,2,0,0,0,5,6.61,2,2,0,0,0,3.3,7.84c-.33.54-.51.77-.82.77S2,8.38,1.66,7.84A2,2,0,0,0,.06,6.62,3.86,3.86,0,0,1,4,3.9H8.44C10.63,3.9,12.43,5.37,12.43,7.18Z"/><path class="cls-1" d="M8.59,3.5c-.5,0-.5-.08-.5-.47V1.91a.48.48,0,0,1,.5-.46.48.48,0,0,1,.5.46V3C9.09,3.45,9.09,3.5,8.59,3.5Z"/><path class="cls-1" d="M8.59,0a1.2,1.2,0,0,0-.38.67c0,.34.17.39.38.39S9,1,9,.67A1.14,1.14,0,0,0,8.59,0Z"/><path class="cls-1" d="M6.2,3.5c-.5,0-.5-.08-.5-.47V1.91a.5.5,0,0,1,1,0V3C6.7,3.45,6.7,3.5,6.2,3.5Z"/><path class="cls-1" d="M6.2,0a1.2,1.2,0,0,0-.39.67c0,.34.18.39.39.39S6.59,1,6.59.67A1.2,1.2,0,0,0,6.2,0Z"/><path class="cls-1" d="M3.81,3.5c-.5,0-.5-.08-.5-.47V1.91a.48.48,0,0,1,.5-.46.48.48,0,0,1,.5.46V3C4.31,3.45,4.31,3.5,3.81,3.5Z"/><path class="cls-1" d="M3.81,0a1.14,1.14,0,0,0-.39.67c0,.34.17.39.39.39S4.19,1,4.19.67A1.2,1.2,0,0,0,3.81,0Z"/></g></g></svg>