<svg xmlns="http://www.w3.org/2000/svg" viewBox="0 0 13.02 12.34"><defs><style>.cls-1{fill:#30b9b0;}</style></defs><title>calender</title><g id="Layer_2" data-name="Layer 2"><g id="Layer_1-2" data-name="Layer 1"><path class="cls-1" d="M8.84,0H4.18C1.88,0,0,2.18,0,4.85V7.49c0,2.67,1.88,4.85,4.18,4.85H8.84c2.3,0,4.18-2.18,4.18-4.85V4.85C13,2.18,11.14,0,8.84,0ZM4.29,9.18a.9.9,0,0,1-.91.9H3a.9.9,0,0,1-.91-.9V8.83A.91.91,0,0,1,3,7.92h.35a.91.91,0,0,1,.91.91Zm0-3a.91.91,0,0,1-.91.9H3a.91.91,0,0,1-.91-.9V5.85A.91.91,0,0,1,3,5h.35a.91.91,0,0,1,.91.9Zm3.24,3a.9.9,0,0,1-.9.9H6.28a.9.9,0,0,1-.91-.9V8.83a.91.91,0,0,1,.91-.91h.35a.9.9,0,0,1,.9.91Zm0-3a.9.9,0,0,1-.9.9H6.28a.91.91,0,0,1-.91-.9V5.85A.91.91,0,0,1,6.28,5h.35a.9.9,0,0,1,.9.9Zm3.25,3a.9.9,0,0,1-.91.9H9.52a.9.9,0,0,1-.9-.9V8.83a.9.9,0,0,1,.9-.91h.35a.91.91,0,0,1,.91.91Zm0-3a.91.91,0,0,1-.91.9H9.52a.9.9,0,0,1-.9-.9V5.85a.9.9,0,0,1,.9-.9h.35a.91.91,0,0,1,.91.9ZM11,4.14H2a.75.75,0,0,1,0-1.5h9a.75.75,0,0,1,0,1.5Z"/></g></g></svg>