<svg xmlns="http://www.w3.org/2000/svg" viewBox="0 0 11.39 12.43"><defs><style>.cls-1{fill:#080808;}</style></defs><title>calender2</title><g id="Layer_2" data-name="Layer 2"><g id="Layer_1-2" data-name="Layer 1"><path class="cls-1" d="M9.39,1.45V.5a.5.5,0,0,0-.5-.5.5.5,0,0,0-.5.5v.61A3.59,3.59,0,0,0,7.74,1H3.66A3.5,3.5,0,0,0,3,1.11V.5a.5.5,0,0,0-.5-.5A.5.5,0,0,0,2,.5v1A3.65,3.65,0,0,0,0,4.7V8.78a3.66,3.66,0,0,0,3.66,3.65H7.74a3.66,3.66,0,0,0,3.65-3.65V4.7A3.66,3.66,0,0,0,9.39,1.45Zm1,7.33a2.65,2.65,0,0,1-2.65,2.65H3.66A2.66,2.66,0,0,1,1,8.78V4.7A2.66,2.66,0,0,1,3.66,2H7.74A2.66,2.66,0,0,1,10.39,4.7Z"/><path class="cls-1" d="M3.15,5a.64.64,0,0,0-.64.64A.64.64,0,1,0,3.15,5Z"/><path class="cls-1" d="M5.7,5a.64.64,0,1,0,0,1.28.64.64,0,0,0,.64-.64A.64.64,0,0,0,5.7,5Z"/><path class="cls-1" d="M8.24,5a.64.64,0,0,0-.64.64.65.65,0,0,0,1.29,0A.65.65,0,0,0,8.24,5Z"/><circle class="cls-1" cx="3.15" cy="7.66" r="0.64"/><circle class="cls-1" cx="5.7" cy="7.66" r="0.64"/><circle class="cls-1" cx="8.24" cy="7.66" r="0.64"/></g></g></svg>