<svg xmlns="http://www.w3.org/2000/svg" viewBox="0 0 31.06 25.36"><defs><style>.cls-1{fill:#30b9b0;}</style></defs><title>camera1</title><g id="Layer_2" data-name="Layer 2"><g id="Layer_1-2" data-name="Layer 1"><path class="cls-1" d="M19.75,13.68a4.23,4.23,0,1,1-4.22-4.22A4.22,4.22,0,0,1,19.75,13.68Z"/><path class="cls-1" d="M21.08,0H10A10,10,0,0,0,0,10v5.42a10,10,0,0,0,10,10H21.08a10,10,0,0,0,10-10V10A10,10,0,0,0,21.08,0ZM15.53,19.9a6.22,6.22,0,1,1,6.22-6.22A6.24,6.24,0,0,1,15.53,19.9ZM24.69,5.53H20.75a1,1,0,1,1,0-2h3.94a1,1,0,0,1,0,2Z"/></g></g></svg>