<svg xmlns="http://www.w3.org/2000/svg" viewBox="0 0 12.42 10.14"><defs><style>.cls-1{fill:#30b9b0;}</style></defs><title>cnic</title><g id="Layer_2" data-name="Layer 2"><g id="Layer_1-2" data-name="Layer 1"><path class="cls-1" d="M8.43,0H4A4,4,0,0,0,0,4V6.15a4,4,0,0,0,4,4H8.43a4,4,0,0,0,4-4V4A4,4,0,0,0,8.43,0ZM5,5.84a1,1,0,0,1-1,1H2.81a1,1,0,0,1-1-1V4.74A1,1,0,0,1,2.81,3.69h1.1A1,1,0,0,1,5,4.74Zm5.5,1H6.91a.5.5,0,0,1-.5-.5.5.5,0,0,1,.5-.5h3.55a.5.5,0,0,1,.5.5A.51.51,0,0,1,10.46,6.82Zm0-2.1H6.91a.5.5,0,0,1-.5-.5.5.5,0,0,1,.5-.5h3.55a.5.5,0,0,1,.5.5A.51.51,0,0,1,10.46,4.72Z"/></g></g></svg>