<svg xmlns="http://www.w3.org/2000/svg" viewBox="0 0 13.02 12.34"><defs><style>.cls-1{fill:#30b9b0;}.cls-2{fill:none;stroke:#fff;stroke-linecap:round;stroke-linejoin:round;}.cls-3{fill:#fff;}</style></defs><title>distance</title><g id="Layer_2" data-name="Layer 2"><g id="Layer_1-2" data-name="Layer 1"><path class="cls-1" d="M8.84,0H4.18C1.88,0,0,2.18,0,4.85V7.49c0,2.67,1.88,4.85,4.18,4.85H8.84c2.3,0,4.18-2.18,4.18-4.85V4.85C13,2.18,11.14,0,8.84,0Z"/><path class="cls-2" d="M2.08,4H9.64a1.24,1.24,0,0,1,1.3,1.18h0A1.24,1.24,0,0,1,9.64,6.4H5.3A1.24,1.24,0,0,0,4,7.58H4A1.24,1.24,0,0,0,5.3,8.76H7.5"/><circle class="cls-3" cx="9.66" cy="8.63" r="0.64"/></g></g></svg>