<svg xmlns="http://www.w3.org/2000/svg" viewBox="0 0 12 9.8"><defs><style>.cls-1{fill:#30b9b0;}</style></defs><title>email</title><g id="Layer_2" data-name="Layer 2"><g id="Layer_1-2" data-name="Layer 1"><path class="cls-1" d="M8.15,0H3.85A3.86,3.86,0,0,0,0,3.85V6A3.86,3.86,0,0,0,3.85,9.8h4.3A3.86,3.86,0,0,0,12,6V3.85A3.86,3.86,0,0,0,8.15,0ZM10.1,3.43C9,4.87,7.85,6.28,6,6.28S3.16,4.94,2.18,3.75l-.25-.29A.68.68,0,0,1,2,2.52.67.67,0,0,1,3,2.61l.25.29C4.08,4,4.9,5,6,5s2.1-1.09,3-2.31A.66.66,0,0,1,10,2.5.67.67,0,0,1,10.1,3.43Z"/></g></g></svg>