<svg xmlns="http://www.w3.org/2000/svg" viewBox="0 0 13.02 12.34"><defs><style>.cls-1{fill:#30b9b0;}</style></defs><title>home</title><g id="Layer_2" data-name="Layer 2"><g id="Layer_1-2" data-name="Layer 1"><path class="cls-1" d="M8.84,0H4.18C1.88,0,0,2.18,0,4.85V7.49c0,2.67,1.88,4.85,4.18,4.85H8.84c2.3,0,4.18-2.18,4.18-4.85V4.85C13,2.18,11.14,0,8.84,0Zm1.39,9.18c0,.42-.12.9-.91.9H7.87a.81.81,0,0,1-.93-.92V8a.44.44,0,0,0-.44-.43c-.13,0-.44,0-.45.53,0,.22,0,.45,0,.67v.46a.88.88,0,0,1-.26.68.79.79,0,0,1-.57.2H5.07c-.27,0-.57,0-.9,0H3.71a.84.84,0,0,1-1-1V7.25a.53.53,0,1,1,1.06,0V9H5V8.79c0-.24,0-.49,0-.73A1.51,1.51,0,0,1,8,8V9H9.16c0-.5,0-.75,0-1.09V7.16a.53.53,0,0,1,1.06,0ZM9.84,6a.52.52,0,0,1-.52-.47c-.57-.5-1-.92-1.46-1.33l-.53-.5L7.1,3.5,7,3.35,6.5,2.93l-.14.13L5,4.3,3.67,5.55a.54.54,0,0,1-.53.54.52.52,0,0,1-.53-.53A1,1,0,0,1,3,4.77L4.32,3.52l.62-.59.69-.64.22-.21A.89.89,0,0,1,7.08,2l.64.59.34.32.51.49c.4.37.82.74,1.32,1.18l.2.19a.89.89,0,0,1,.29.68A.54.54,0,0,1,9.84,6Z"/></g></g></svg>