<svg xmlns="http://www.w3.org/2000/svg" viewBox="0 0 18.07 19.33"><defs><style>.cls-1{fill:#e1e1e1;}</style></defs><title>home2</title><g id="Layer_2" data-name="Layer 2"><g id="Layer_1-2" data-name="Layer 1"><path class="cls-1" d="M17.72,14.25v-1.8a1.23,1.23,0,0,0-2.46,0v1.8c0,.79,0,1.37,0,2.54H12.56V14.38a3.51,3.51,0,1,0-7,.18c0,.56,0,1.12,0,1.69v.57c-.5,0-1,0-1.47,0H2.81V12.66a1.25,1.25,0,0,0-1.25-1.24A1.25,1.25,0,0,0,.35,12.66V17a2,2,0,0,0,2.22,2.24c.36,0,.71,0,1.07,0,.75,0,1.46,0,2.09,0a1.08,1.08,0,0,0,.35,0,1.8,1.8,0,0,0,1.31-.47A2,2,0,0,0,8,17.27V16.21q0-.8,0-1.56c0-1.11.74-1.23,1.06-1.23a1,1,0,0,1,1,1v2.7a1.91,1.91,0,0,0,2.17,2.15h3.38c1.81,0,2.08-1.12,2.1-2.1h0c0-1,0-1.57,0-2.13C17.72,14.77,17.72,14.52,17.72,14.25Z"/><path class="cls-1" d="M1.24,10A1.28,1.28,0,0,0,2.47,8.72c1.09-1,2.17-2,3.18-2.91S7.7,3.9,8.72,2.92L9,2.62l1.05,1,.36.35c.17.16.35.33.52.47.4.39.82.79,1.24,1.16,1,.95,2.08,1.93,3.4,3.1a1.23,1.23,0,0,0,1.22,1.1,1.25,1.25,0,0,0,1.24-1.24,2.07,2.07,0,0,0-.68-1.59l-.47-.42c-1.14-1-2.12-1.9-3.05-2.75-.41-.39-.8-.76-1.2-1.16-.25-.22-.52-.48-.78-.74L10.39.52A2.06,2.06,0,0,0,7.53.64L7,1.13l-1.6,1.5L4,4c-1,1-2.12,2-3.19,2.9A2.39,2.39,0,0,0,0,8.74,1.23,1.23,0,0,0,1.24,10Z"/></g></g></svg>