<svg xmlns="http://www.w3.org/2000/svg" viewBox="0 0 13.02 12.34"><defs><style>.cls-1{fill:#30b9b0;}</style></defs><title>location</title><g id="Layer_2" data-name="Layer 2"><g id="Layer_1-2" data-name="Layer 1"><path class="cls-1" d="M6.51,2.87A2.27,2.27,0,0,0,4.25,5.14C4.25,6.63,6,9.45,6.51,9.47S8.78,6.63,8.78,5.14A2.27,2.27,0,0,0,6.51,2.87Zm0,3.3A1.09,1.09,0,1,1,7.6,5.09,1.08,1.08,0,0,1,6.51,6.17Z"/><path class="cls-1" d="M8.84,0H4.18C1.88,0,0,2.18,0,4.85V7.49c0,2.67,1.88,4.85,4.18,4.85H8.84c2.3,0,4.18-2.18,4.18-4.85V4.85C13,2.18,11.14,0,8.84,0ZM6.51,10.47C5,10.47,3.25,6.68,3.25,5.14a3.27,3.27,0,1,1,6.53,0C9.78,6.64,8,10.47,6.51,10.47Z"/></g></g></svg>