<svg xmlns="http://www.w3.org/2000/svg" viewBox="0 0 10.63 12.75"><defs><style>.cls-1{fill:#30b9b0;}</style></defs><title>lock</title><g id="Layer_2" data-name="Layer 2"><g id="Layer_1-2" data-name="Layer 1"><path class="cls-1" d="M9.32,1.86,6.55.32a2.53,2.53,0,0,0-2.47,0L1.3,1.86A2.55,2.55,0,0,0,0,4.08V8.25a2.52,2.52,0,0,0,1.07,2.07l2.78,2a2.54,2.54,0,0,0,2.93,0l2.78-2a2.52,2.52,0,0,0,1.07-2.07V4.08A2.54,2.54,0,0,0,9.32,1.86ZM6.07,6.75v1.9a.76.76,0,0,1-1.51,0V6.75a1.69,1.69,0,1,1,1.51,0Z"/></g></g></svg>