<svg xmlns="http://www.w3.org/2000/svg" viewBox="0 0 14.19 16.87"><defs><style>.cls-1{fill:#30b9b0;}</style></defs><title>lock2</title><g id="Layer_2" data-name="Layer 2"><g id="Layer_1-2" data-name="Layer 1"><path class="cls-1" d="M11.11,3.93,8.32,2.38a2.49,2.49,0,0,0-2.45,0L3.08,3.93a2.54,2.54,0,0,0-1.3,2.21v4.18a2.52,2.52,0,0,0,1.07,2.06l2.78,2a2.54,2.54,0,0,0,2.93,0l2.78-2a2.52,2.52,0,0,0,1.07-2.06V6.14A2.54,2.54,0,0,0,11.11,3.93Zm-4,7.54a.75.75,0,0,1-.75-.75V8.82A1.7,1.7,0,0,1,5.41,7.3,1.68,1.68,0,0,1,7.1,5.62a1.55,1.55,0,0,1,.31,0h0A1.69,1.69,0,0,1,8.79,7.3a1.72,1.72,0,0,1-.94,1.52v1.9a.75.75,0,0,1-.42.67A.73.73,0,0,1,7.1,11.47Z"/><path class="cls-1" d="M7.1,16.87A3.65,3.65,0,0,1,5,16.22L1.51,13.73A3.56,3.56,0,0,1,0,10.82V5.53A3.57,3.57,0,0,1,1.84,2.41l3.52-2a3.57,3.57,0,0,1,3.47,0l3.53,2a3.58,3.58,0,0,1,1.83,3.12v5.29a3.54,3.54,0,0,1-1.51,2.91L9.17,16.22A3.65,3.65,0,0,1,7.1,16.87ZM7.1.75a2.75,2.75,0,0,0-1.37.36l-3.53,2A2.85,2.85,0,0,0,.75,5.53v5.29A2.83,2.83,0,0,0,2,13.12L5.46,15.6a2.86,2.86,0,0,0,3.28,0l3.51-2.48a2.82,2.82,0,0,0,1.19-2.3V5.53A2.83,2.83,0,0,0,12,3.06L8.47,1.11A2.81,2.81,0,0,0,7.1.75Z"/></g></g></svg>