<svg xmlns="http://www.w3.org/2000/svg" viewBox="0 0 11.95 12.16"><defs><style>.cls-1{fill:#30b9b0;}</style></defs><title>logout</title><g id="Layer_2" data-name="Layer 2"><g id="Layer_1-2" data-name="Layer 1"><path class="cls-1" d="M7.25,0H4.69C2.11,0,0,1.76,0,3.9V8.25c0,2.15,2.11,3.91,4.69,3.91H7.25c2.58,0,4.7-1.76,4.7-3.91V3.9C12,1.76,9.83,0,7.25,0ZM3.48,6.53l.75.75a.5.5,0,0,1-.7.71L1.94,6.4a.51.51,0,0,1,0-.72L3.53,4.09a.5.5,0,0,1,.7,0,.5.5,0,0,1,0,.71l-.73.73H6.43a.5.5,0,0,1,.5.5.5.5,0,0,1-.5.5ZM8.7,9a.5.5,0,0,1-.5.5H7a.5.5,0,0,1-.5-.5.5.5,0,0,1,.5-.5H7.7V3.62H7a.5.5,0,0,1,0-1H8.2a.5.5,0,0,1,.5.5Z"/></g></g></svg>