<svg xmlns="http://www.w3.org/2000/svg" viewBox="0 0 13.02 14.4"><defs><style>.cls-1{fill:#30b9b0;}</style></defs><title>note</title><g id="Layer_2" data-name="Layer 2"><g id="Layer_1-2" data-name="Layer 1"><path class="cls-1" d="M8.84,0H4.18C1.88,0,0,2.18,0,4.85V7.49c0,2.67,1.88,4.85,4.18,4.85H8.84c2.3,0,4.18-2.18,4.18-4.85V4.85C13,2.18,11.14,0,8.84,0ZM3.5,4.14a.5.5,0,0,1,1,0v1a.5.5,0,0,1-1,0ZM9.88,7.57a6.09,6.09,0,0,1-3.06.86,6.17,6.17,0,0,1-3.05-.85.51.51,0,0,1-.19-.69.49.49,0,0,1,.67-.19h0a4.87,4.87,0,0,0,5.11,0,.51.51,0,0,1,.69.18A.52.52,0,0,1,9.88,7.57Zm.25-2.39a.5.5,0,0,1-.5.5.51.51,0,0,1-.5-.5v-1a.5.5,0,0,1,.5-.5.5.5,0,0,1,.5.5Z"/><path class="cls-1" d="M0,5.81V14a.4.4,0,0,0,.68.29L2.51,12.6a1.09,1.09,0,0,1,.73-.28H6"/></g></g></svg>