<svg xmlns="http://www.w3.org/2000/svg" viewBox="0 0 13.02 12.34"><defs><style>.cls-1{fill:#30b9b0;}.cls-2{fill:#fff;}</style></defs><title>number</title><g id="Layer_2" data-name="Layer 2"><g id="Layer_1-2" data-name="Layer 1"><path class="cls-1" d="M8.84,0H4.18C1.88,0,0,2.18,0,4.85V7.49c0,2.67,1.88,4.85,4.18,4.85H8.84c2.3,0,4.18-2.18,4.18-4.85V4.85C13,2.18,11.14,0,8.84,0Z"/><path class="cls-2" d="M4.36,10.08l-.12,0a.5.5,0,0,1-.37-.6L5.52,2.65a.51.51,0,0,1,.61-.37.5.5,0,0,1,.37.6L4.84,9.69A.5.5,0,0,1,4.36,10.08Z"/><path class="cls-2" d="M7,10.08l-.12,0a.49.49,0,0,1-.37-.6L8.17,2.65a.51.51,0,0,1,.61-.37.48.48,0,0,1,.36.6L7.49,9.69A.5.5,0,0,1,7,10.08Z"/><path class="cls-2" d="M9.19,7.91h-6a.5.5,0,0,1-.5-.5.5.5,0,0,1,.5-.5h6a.5.5,0,0,1,.5.5A.51.51,0,0,1,9.19,7.91Z"/><path class="cls-2" d="M9.79,5.42h-6a.51.51,0,0,1-.5-.5.5.5,0,0,1,.5-.5h6a.5.5,0,0,1,.5.5A.5.5,0,0,1,9.79,5.42Z"/></g></g></svg>