<svg xmlns="http://www.w3.org/2000/svg" viewBox="0 0 13.02 12.34"><defs><style>.cls-1{fill:#30b9b0;}</style></defs><title>payment_method</title><g id="Layer_2" data-name="Layer 2"><g id="Layer_1-2" data-name="Layer 1"><path class="cls-1" d="M8.84,0H4.18C1.88,0,0,2.18,0,4.85V7.49c0,2.67,1.88,4.85,4.18,4.85H8.84c2.3,0,4.18-2.18,4.18-4.85V4.85C13,2.18,11.14,0,8.84,0ZM4.28,5.71a.5.5,0,1,1,0-1H9.49a1.18,1.18,0,0,0-.25-.5,1.2,1.2,0,0,0-.91-.32H4.21a1.08,1.08,0,0,0-.86.31,1.28,1.28,0,0,0-.22.93V7.66a1.4,1.4,0,0,0,.22,1A1.08,1.08,0,0,0,4.21,9H8.29c1.23,0,1.24-.52,1.24-1.17V7.64c0-.29,0-.76,0-.76l1,0s0,.5,0,.82v.14c0,.65,0,2.16-2.24,2.16H4.21a2,2,0,0,1-1.62-.66,2.26,2.26,0,0,1-.45-1.74V5.21a2.21,2.21,0,0,1,.46-1.66,2,2,0,0,1,1.62-.66H8.33A2.13,2.13,0,0,1,10,3.54a2.4,2.4,0,0,1,.55,1.71.5.5,0,0,1-.5.46ZM9,7.9a.5.5,0,0,1-.5.5h-.4a.51.51,0,0,1-.5-.5.5.5,0,0,1,.5-.5h.4A.5.5,0,0,1,9,7.9Z"/></g></g></svg>