<svg xmlns="http://www.w3.org/2000/svg" viewBox="0 0 19.14 16.04"><defs><style>.cls-1{fill:#30b9b0;}</style></defs><title>teamclock_logo_paymentMethod2</title><g id="Layer_2" data-name="Layer 2"><g id="Layer_1-2" data-name="Layer 1"><path class="cls-1" d="M14.57,12.4h-.92a1,1,0,0,1,0-2h.92a1,1,0,0,1,0,2Z"/><path class="cls-1" d="M14.11,16H4.69a4.55,4.55,0,0,1-3.64-1.45,5.25,5.25,0,0,1-1-3.8V5.26a5.23,5.23,0,0,1,1-3.8A4.52,4.52,0,0,1,4.69,0h9.49a4.83,4.83,0,0,1,3.71,1.44,5.48,5.48,0,0,1,1.24,3.84,1,1,0,0,1-1,.91H3.44a1,1,0,0,1,0-2H17.07a2.89,2.89,0,0,0-.66-1.41A2.92,2.92,0,0,0,14.18,2H4.69a2.66,2.66,0,0,0-2.12.75A3.26,3.26,0,0,0,2,5a.76.76,0,0,1,0,.15v5.66A.86.86,0,0,1,2,11a3.26,3.26,0,0,0,.55,2.29A2.7,2.7,0,0,0,4.69,14h9.42c3,0,3-1.31,3-2.83v-.39c0-.7,0-2.79,0-2.79l2,0s0,2.16,0,2.87v.35C19.11,12.67,19.08,16,14.11,16Z"/></g></g></svg>