<svg xmlns="http://www.w3.org/2000/svg" viewBox="0 0 9.8 12"><defs><style>.cls-1{fill:#30b9b0;}</style></defs><title>phone</title><g id="Layer_2" data-name="Layer 2"><g id="Layer_1-2" data-name="Layer 1"><path class="cls-1" d="M0,3.85v4.3A3.86,3.86,0,0,0,3.85,12H6A3.86,3.86,0,0,0,9.8,8.15V3.85A3.86,3.86,0,0,0,6,0H3.85A3.86,3.86,0,0,0,0,3.85ZM3.43,1.91C4.87,3,6.28,4.16,6.28,6S4.94,8.84,3.75,9.83l-.29.24a.66.66,0,1,1-.85-1L2.9,8.8C4,7.93,5,7.1,5,6S3.86,3.87,2.64,3a.67.67,0,1,1,.79-1.07Z"/></g></g></svg>