<svg xmlns="http://www.w3.org/2000/svg" viewBox="0 0 21.64 17.7"><defs><style>.cls-1{fill-rule:evenodd;}</style></defs><title>scan</title><g id="Layer_2" data-name="Layer 2"><g id="Layer_1-2" data-name="Layer 1"><path class="cls-1" d="M16.72,6.3V5.51a.58.58,0,0,0-.59-.59H5.51a.58.58,0,0,0-.59.59V6.3a.58.58,0,0,0,.59.58H16.13A.58.58,0,0,0,16.72,6.3Zm-.59,2.55H5.51a.59.59,0,0,0-.59.59V12.2a.59.59,0,0,0,.59.59H16.13a.59.59,0,0,0,.59-.59V9.44A.59.59,0,0,0,16.13,8.85ZM4.74,3H16.9a1.88,1.88,0,0,1,1.79,2v7.87a1.88,1.88,0,0,1-1.79,2H4.74a1.88,1.88,0,0,1-1.79-2V4.92A1.88,1.88,0,0,1,4.74,3ZM3.93,1h0A1,1,0,0,1,3,2H2.56A.58.58,0,0,0,2,2.56V3a1,1,0,0,1-1,1H1A1,1,0,0,1,0,3V2A1.88,1.88,0,0,1,1.79,0H3A1,1,0,0,1,3.93,1ZM17.7,16.72h0a1,1,0,0,1,1-1h.39a.59.59,0,0,0,.59-.59v-.4a1,1,0,0,1,1-1h0a1,1,0,0,1,1,1v1a1.88,1.88,0,0,1-1.79,2H18.69A1,1,0,0,1,17.7,16.72ZM17.7,1a1,1,0,0,1,1-1h1.16a1.88,1.88,0,0,1,1.79,2V3a1,1,0,0,1-1,1h0a1,1,0,0,1-1-1V2.56A.58.58,0,0,0,19.08,2h-.39a1,1,0,0,1-1-1ZM3.93,16.72a1,1,0,0,1-1,1H1.79a1.88,1.88,0,0,1-1.79-2v-1a1,1,0,0,1,1-1H1a1,1,0,0,1,1,1v.4a.59.59,0,0,0,.59.59H3a1,1,0,0,1,1,1Z"/></g></g></svg>