<svg xmlns="http://www.w3.org/2000/svg" viewBox="0 0 20.15 14.57"><defs><style>.cls-1{fill:#e1e1e1;}</style></defs><title>smile2</title><g id="Layer_2" data-name="Layer 2"><g id="Layer_1-2" data-name="Layer 1"><path class="cls-1" d="M17.87,9.32a15.56,15.56,0,0,1-7.4,2.19l-.39,0c-.14,0-.27,0-.4,0A15.49,15.49,0,0,1,2.29,9.32a1.52,1.52,0,0,0-2.08.56A1.5,1.5,0,0,0,.76,12s0,0,.05,0v0a18.51,18.51,0,0,0,9.25,2.57h0A18.57,18.57,0,0,0,19.36,12v0s0,0,0,0a1.52,1.52,0,1,0-1.52-2.63Z"/><path class="cls-1" d="M18.63,0a1.52,1.52,0,0,0-1.52,1.52V4.68a1.52,1.52,0,1,0,3,0V1.52A1.52,1.52,0,0,0,18.63,0Z"/><path class="cls-1" d="M1.52,6.21A1.53,1.53,0,0,0,3,4.68V1.52a1.52,1.52,0,0,0-3,0V4.68A1.53,1.53,0,0,0,1.52,6.21Z"/></g></g></svg>