<svg xmlns="http://www.w3.org/2000/svg" viewBox="0 0 13.02 12.34"><defs><style>.cls-1{fill:#30b9b0;}</style></defs><title>smile</title><g id="Layer_2" data-name="Layer 2"><g id="Layer_1-2" data-name="Layer 1"><path class="cls-1" d="M8.84,0H4.18C1.88,0,0,2.18,0,4.85V7.49c0,2.68,1.88,4.85,4.18,4.85H8.84c2.3,0,4.18-2.17,4.18-4.85V4.85C13,2.18,11.14,0,8.84,0ZM2.59,4.18a.59.59,0,0,1,1.18,0V5.41a.59.59,0,1,1-1.18,0Zm7.55,4.07h0a7.2,7.2,0,0,1-3.61,1h0a7.17,7.17,0,0,1-3.61-1h0a.6.6,0,0,1,.6-1,6,6,0,0,0,2.88.86h.31a6,6,0,0,0,2.88-.86.59.59,0,0,1,.59,1Zm.3-2.84a.6.6,0,1,1-1.19,0V4.18a.6.6,0,0,1,1.19,0Z"/></g></g></svg>