<svg xmlns="http://www.w3.org/2000/svg" viewBox="0 0 12.49 12.49"><defs><style>.cls-1{fill:none;stroke:#30b9b0;stroke-miterlimit:10;}.cls-2{fill:#30b9b0;}</style></defs><title>tick2</title><g id="Layer_2" data-name="Layer 2"><g id="Layer_1-2" data-name="Layer 1"><circle class="cls-1" cx="6.24" cy="6.24" r="5.74"/><path class="cls-2" d="M3,6.83a.31.31,0,0,1,0-.28.25.25,0,0,1,.25-.13.76.76,0,0,1,.25.06c.4.15.88.74,1.28.9a.29.29,0,0,0,.34-.06C6.26,6.26,7.33,4.75,8.48,3.7a.65.65,0,0,1,.16-.13.26.26,0,0,1,.32,0A.28.28,0,0,1,9,3.91a.55.55,0,0,1-.09.14L5.27,8.73l-.07.08a.29.29,0,0,1-.5,0l-.46-.54L3.08,6.93Z"/></g></g></svg>