<svg xmlns="http://www.w3.org/2000/svg" viewBox="0 0 26.85 16.73"><defs><style>.cls-1{fill:#e1e1e1;}</style></defs><title>transactions</title><g id="Layer_2" data-name="Layer 2"><g id="Layer_1-2" data-name="Layer 1"><path class="cls-1" d="M24.58,6.59a.48.48,0,0,1-.25.89H1.23A1.23,1.23,0,0,1,1.23,5H15.59a.48.48,0,0,0,.25-.89l-3-1.85A1.23,1.23,0,1,1,14.09.18Z"/><path class="cls-1" d="M13.4,16.73a1.24,1.24,0,0,1-.64-.18L2.27,10.14a.48.48,0,0,1,.25-.89h23.1a1.23,1.23,0,1,1,0,2.45H11.26a.48.48,0,0,0-.25.89l3,1.86a1.23,1.23,0,0,1-.64,2.28Z"/></g></g></svg>