<svg xmlns="http://www.w3.org/2000/svg" viewBox="0 0 21.94 17.5"><defs><style>.cls-1{fill:#30b9b0;}</style></defs><title>withdraw2</title><g id="Layer_2" data-name="Layer 2"><g id="Layer_1-2" data-name="Layer 1"><path class="cls-1" d="M14.67,17.5H7.28a2.7,2.7,0,0,1-2.71-2.7V1a1,1,0,0,1,1-1H16.38a1,1,0,0,1,1,1V14.8A2.71,2.71,0,0,1,14.67,17.5ZM6.57,2V14.8a.71.71,0,0,0,.71.7h7.39a.72.72,0,0,0,.71-.7V2Z"/><path class="cls-1" d="M11,14.42a1,1,0,0,1-1-1v-7a1,1,0,0,1,2,0v7A1,1,0,0,1,11,14.42Z"/><path class="cls-1" d="M11,14.42a1,1,0,0,1-.67-.26L8,12.07a1,1,0,0,1,1.34-1.48L11,12.07l1.64-1.48A1,1,0,1,1,14,12.07l-2.31,2.09A1,1,0,0,1,11,14.42Z"/><path class="cls-1" d="M20.94,5.93H18.52v-2h1.42V2H2V3.93H3.43v2H1a1,1,0,0,1-1-1V1A1,1,0,0,1,1,0H20.94a1,1,0,0,1,1,1V4.93A1,1,0,0,1,20.94,5.93Z"/></g></g></svg>